<svg width="390" height="576" viewBox="0 0 390 576" fill="none" xmlns="http://www.w3.org/2000/svg">
<path opacity="0.3" d="M431 563C390.709 563 363.719 546.433 363.719 486V273.39C363.719 226.966 337.783 207.708 301.113 208.051H189C151.189 208.051 111 180.445 111 138L111 -8" stroke="#C0DAF2" stroke-width="26"/>
<path d="M13 -1L13 62.5C13 98.5 33 119 67.5 119L233.5 119C268.404 118.936 286 140 286 170.5V310C287.151 341.875 312.5 367 347 367H397" stroke="#FFA061" stroke-width="26"/>
<path d="M290.286 234.8L286 239.175L281.714 234.8L280 235.675L286 241.8L292 235.675L290.286 234.8Z" fill="white"/>
<path d="M290.286 227L286 231.375L281.714 227L280 227.875L286 234L292 227.875L290.286 227Z" fill="white"/>
<path d="M17.2857 16.8L13 21.175L8.71429 16.8L7 17.675L13 23.8L19 17.675L17.2857 16.8Z" fill="white"/>
<path d="M17.2857 9L13 13.375L8.71429 9L7 9.875L13 16L19 9.875L17.2857 9Z" fill="white"/>
<circle r="4" transform="matrix(0 1 1 0 271 133)" fill="white"/>
<circle r="4" transform="matrix(0 1 1 0 307 352)" fill="white"/>
<path d="M156.8 115.714L161.175 120L156.8 124.286L157.675 126L163.8 120L157.675 114L156.8 115.714Z" fill="white"/>
<path d="M149 115.714L153.375 120L149 124.286L149.875 126L156 120L149.875 114L149 115.714Z" fill="white"/>
<circle r="4" transform="matrix(0 1 1 0 34 110)" fill="white"/>
</svg>
