<svg width="603" height="338" viewBox="0 0 603 338" fill="none" xmlns="http://www.w3.org/2000/svg">
<path opacity="0.3" d="M-57.9924 94.9999L195.56 94.9999C250.902 98.3612 291.829 111.566 296.045 183.025C296.045 236.066 327.181 271.05 409.267 271.05H488.523C550.795 271.05 589.008 303.777 589.008 360.204V407.602" stroke="#C0DAF2" stroke-width="26"/>
<path d="M-138 13.0002L-51.9925 13.0002C0.405022 13.0002 47.3217 21.9999 47.3217 76.9999V119C47.3217 159 80.0074 189 121.007 189H435.615C475.878 189 504.007 231.5 504.007 268.5V338" stroke="#6275FF" stroke-width="26"/>
<path d="M277.808 193.286L282.183 189L277.808 184.714L278.683 183L284.808 189L278.683 195L277.808 193.286Z" fill="white"/>
<path d="M270.008 193.286L274.383 189L270.008 184.714L270.883 183L277.008 189L270.883 195L270.008 193.286Z" fill="white"/>
<path d="M499.722 312.8L504.008 317.175L508.293 312.8L510.008 313.675L504.008 319.8L498.008 313.675L499.722 312.8Z" fill="white"/>
<path d="M499.722 305L504.008 309.375L508.293 305L510.008 305.875L504.008 312L498.008 305.875L499.722 305Z" fill="white"/>
<circle cx="491.008" cy="223" r="4" fill="white"/>
<circle cx="68.0075" cy="167" r="4" fill="white"/>
<circle cx="26.0075" cy="30.9999" r="4" fill="white"/>
<path d="M42.7218 102.8L47.0075 107.175L51.2932 102.8L53.0075 103.675L47.0075 109.8L41.0075 103.675L42.7218 102.8Z" fill="white"/>
<path d="M42.7218 94.9999L47.0075 99.3749L51.2932 94.9999L53.0075 95.8749L47.0075 102L41.0075 95.8749L42.7218 94.9999Z" fill="white"/>
</svg>
