<svg width="458" height="333" viewBox="0 0 458 333" fill="none" xmlns="http://www.w3.org/2000/svg">
<g filter="url(#filter0_d)">
<path d="M118.383 247.807C131.602 248.398 144.822 248.693 158.041 248.667C158.551 248.667 158.551 247.86 158.041 247.86C144.822 247.887 131.602 247.592 118.383 247.001C117.872 246.974 117.872 247.78 118.383 247.807Z" fill="#E8E8E8"/>
<path d="M189.875 263.904C223.541 263.904 257.181 263.904 290.847 263.904C300.332 263.904 309.816 263.904 319.301 263.904C319.811 263.904 319.811 263.098 319.301 263.098C285.635 263.098 251.995 263.098 218.329 263.098C208.844 263.098 199.359 263.098 189.875 263.098C189.337 263.098 189.337 263.904 189.875 263.904Z" fill="#E8E8E8"/>
<path d="M303.744 198.076C303.744 201.998 303.744 205.921 303.744 209.844C303.744 210.355 304.55 210.355 304.55 209.844C304.55 205.921 304.55 201.998 304.55 198.076C304.55 197.565 303.744 197.565 303.744 198.076Z" fill="#E8E8E8"/>
<path d="M285.205 211.644C298.236 211.644 311.267 211.644 324.298 211.644C324.809 211.644 324.809 210.838 324.298 210.838C311.267 210.838 298.236 210.838 285.205 210.838C284.694 210.838 284.667 211.644 285.205 211.644Z" fill="#E8E8E8"/>
<path d="M293.964 211.859C293.964 215.245 293.964 218.63 293.964 222.042C293.964 222.553 294.77 222.553 294.77 222.042C294.77 218.657 294.77 215.272 294.77 211.859C294.77 211.322 293.964 211.322 293.964 211.859Z" fill="#E8E8E8"/>
<path d="M314.115 211.644C314.115 214.627 314.115 217.636 314.115 220.618C314.115 221.129 314.921 221.129 314.921 220.618C314.921 217.636 314.921 214.627 314.921 211.644C314.921 211.134 314.115 211.134 314.115 211.644Z" fill="#E8E8E8"/>
<path d="M301.353 222.822C311.321 222.822 321.289 222.822 331.257 222.822C331.768 222.822 331.768 222.016 331.257 222.016C321.289 222.016 311.321 222.016 301.353 222.016C300.842 222.016 300.842 222.822 301.353 222.822Z" fill="#E8E8E8"/>
<path d="M278.81 271.696C300.815 271.696 322.821 271.696 344.826 271.696C345.337 271.696 345.337 270.89 344.826 270.89C322.821 270.89 300.815 270.89 278.81 270.89C278.299 270.89 278.299 271.696 278.81 271.696Z" fill="#E8E8E8"/>
<path d="M369.814 264.737C391.416 264.737 413.045 264.737 434.648 264.737C440.72 264.737 446.792 264.737 452.865 264.737C453.375 264.737 453.375 263.931 452.865 263.931C431.262 263.931 409.633 263.931 388.031 263.931C381.958 263.931 375.886 263.931 369.814 263.931C369.303 263.931 369.303 264.737 369.814 264.737Z" fill="#E8E8E8"/>
<path d="M101.961 278.493C124.1 278.493 146.267 278.493 168.407 278.493C168.917 278.493 168.917 277.687 168.407 277.687C146.267 277.687 124.1 277.687 101.961 277.687C101.45 277.687 101.45 278.493 101.961 278.493Z" fill="#E8E8E8"/>
<path d="M146.616 286.554C164.699 286.554 182.781 286.554 200.864 286.554C201.374 286.554 201.374 285.748 200.864 285.748C182.781 285.748 164.699 285.748 146.616 285.748C146.079 285.748 146.079 286.554 146.616 286.554Z" fill="#E8E8E8"/>
<path d="M421.509 56.8272C421.509 49.3308 421.509 41.8613 421.509 34.365C421.509 33.8545 420.703 33.8545 420.703 34.365C420.703 41.8613 420.703 49.3308 420.703 56.8272C420.703 57.3377 421.509 57.3377 421.509 56.8272Z" fill="#E8E8E8"/>
<path d="M421.375 34.2038C431.074 34.2038 440.774 34.2038 450.473 34.2038C450.984 34.2038 450.984 33.3977 450.473 33.3977C440.774 33.3977 431.074 33.3977 421.375 33.3977C420.864 33.3977 420.864 34.2038 421.375 34.2038Z" fill="#E8E8E8"/>
<path d="M450.07 33.8545C450.017 41.4583 449.963 49.0621 449.882 56.6659C449.882 57.1764 450.688 57.1764 450.688 56.6659C450.742 49.0621 450.796 41.4583 450.876 33.8545C450.876 33.344 450.07 33.344 450.07 33.8545Z" fill="#E8E8E8"/>
<path d="M421.509 57.2302C431.074 57.2302 440.639 57.2302 450.205 57.2302C450.715 57.2302 450.715 56.4242 450.205 56.4242C440.639 56.4242 431.074 56.4242 421.509 56.4242C420.998 56.4242 420.998 57.2302 421.509 57.2302Z" fill="#E8E8E8"/>
<path d="M422.288 35.9233C422.288 42.2375 422.288 48.5247 422.288 54.8389C422.288 55.3494 423.094 55.3494 423.094 54.8389C423.094 48.5247 423.094 42.2375 423.094 35.9233C423.094 35.4128 422.288 35.4128 422.288 35.9233Z" fill="#E8E8E8"/>
<path d="M422.879 36.3264C431.37 36.3264 439.833 36.3264 448.324 36.3264C448.834 36.3264 448.834 35.5204 448.324 35.5204C439.833 35.5204 431.37 35.5204 422.879 35.5204C422.342 35.5204 422.342 36.3264 422.879 36.3264Z" fill="#E8E8E8"/>
<path d="M447.894 36.1115C447.867 42.2912 447.84 48.471 447.813 54.6777C447.813 55.1882 448.62 55.1882 448.62 54.6777C448.646 48.4979 448.673 42.3181 448.7 36.1115C448.7 35.601 447.894 35.601 447.894 36.1115Z" fill="#E8E8E8"/>
<path d="M423.041 55.3494C431.397 55.3494 439.753 55.3494 448.109 55.3494C448.62 55.3494 448.62 54.5433 448.109 54.5433C439.753 54.5433 431.397 54.5433 423.041 54.5433C422.53 54.5433 422.53 55.3494 423.041 55.3494Z" fill="#E8E8E8"/>
<path d="M422.879 49.7875C425.969 48.7128 429.22 49.6801 432.229 50.5667C435.292 51.4534 438.302 52.5282 441.23 53.7641C441.714 53.9522 441.929 53.173 441.445 52.9849C438.194 51.6146 434.863 50.4593 431.477 49.5189C428.602 48.7397 425.566 47.9873 422.664 49.0084C422.181 49.1696 422.396 49.9488 422.879 49.7875Z" fill="#E8E8E8"/>
<path d="M433.09 50.7011C438.168 50.4056 442.923 48.3636 447.948 47.7993C448.458 47.7456 448.458 46.9395 447.948 46.9933C442.923 47.5575 438.168 49.5727 433.09 49.8951C432.552 49.9488 432.552 50.7549 433.09 50.7011Z" fill="#E8E8E8"/>
<path d="M442.708 40.8672C441.58 40.2223 442.601 38.0997 443.81 38.6102C444.455 38.8789 444.589 39.6581 444.24 40.2223C443.864 40.8403 443.085 40.9478 442.44 40.7597C441.929 40.6253 441.714 41.4045 442.225 41.5389C443.3 41.8344 444.509 41.512 445.046 40.4641C445.53 39.5237 445.153 38.2878 444.132 37.8579C442.037 36.9712 440.317 40.4641 442.305 41.5658C442.735 41.8076 443.165 41.109 442.708 40.8672Z" fill="#E8E8E8"/>
<path d="M434.487 33.6664C434.514 33.2096 434.54 32.7529 434.675 32.323C434.782 31.9737 435.051 31.1408 435.454 30.9795C436.179 30.7109 436.448 33.2634 436.502 33.747C436.556 34.2575 437.362 34.2575 437.308 33.747C437.227 32.8066 437.012 29.8511 435.508 30.066C434.863 30.1466 434.406 30.8721 434.164 31.4094C433.842 32.108 433.734 32.8872 433.707 33.6395C433.681 34.1769 434.487 34.1769 434.487 33.6664Z" fill="#E8E8E8"/>
<path d="M439 159.009C439 162.233 439 165.484 439 168.708C439 169.219 439.807 169.219 439.807 168.708C439.807 165.484 439.807 162.233 439.807 159.009C439.807 158.498 439 158.498 439 159.009Z" fill="#E8E8E8"/>
<path d="M429.247 169.89C436.555 169.89 443.891 169.89 451.199 169.89C451.709 169.89 451.709 169.084 451.199 169.084C443.891 169.084 436.555 169.084 429.247 169.084C428.737 169.084 428.737 169.89 429.247 169.89Z" fill="#E8E8E8"/>
<path d="M432.337 170.132C432.337 171.664 432.337 173.168 432.337 174.7C432.337 175.21 433.143 175.21 433.143 174.7C433.143 173.168 433.143 171.664 433.143 170.132C433.143 169.622 432.337 169.622 432.337 170.132Z" fill="#E8E8E8"/>
<path d="M444.079 170.374C444.079 172.174 444.079 174.001 444.079 175.802C444.079 176.312 444.885 176.312 444.885 175.802C444.885 174.001 444.885 172.174 444.885 170.374C444.885 169.837 444.079 169.837 444.079 170.374Z" fill="#E8E8E8"/>
<path d="M438.383 176.849C443.461 176.849 448.539 176.849 453.617 176.849C454.128 176.849 454.128 176.043 453.617 176.043C448.539 176.043 443.461 176.043 438.383 176.043C437.872 176.043 437.872 176.849 438.383 176.849Z" fill="#E8E8E8"/>
<path d="M327.55 172.416C260.19 177.279 192.83 182.116 125.498 186.979C123.67 138.132 121.843 89.2845 120.043 40.4373C187.698 39.5238 255.354 38.6102 323.009 37.6967C324.514 82.5942 326.018 127.492 327.55 172.416Z" fill="white" stroke="#161616" stroke-miterlimit="10"/>
<path d="M128.211 146.353C128.695 157.585 129.178 168.842 129.662 180.074C129.689 180.584 130.495 180.584 130.468 180.074C129.984 168.842 129.501 157.585 129.017 146.353C128.99 145.843 128.184 145.843 128.211 146.353Z" fill="#161616"/>
<path d="M125.82 56.1017C126.411 76.495 127.002 96.9151 127.593 117.308C127.754 123.112 127.916 128.889 128.104 134.692C128.131 135.203 128.937 135.203 128.91 134.692C128.319 114.299 127.727 93.879 127.136 73.4857C126.975 67.682 126.814 61.9053 126.626 56.1017C126.626 55.5912 125.82 55.5912 125.82 56.1017Z" fill="#161616"/>
<path d="M321.128 122.763C321.531 136.251 321.934 149.712 322.337 163.2C322.364 163.711 323.17 163.711 323.143 163.2C322.74 149.712 322.337 136.251 321.934 122.763C321.934 122.252 321.128 122.252 321.128 122.763Z" fill="#161616"/>
<path d="M342.236 58.4198C343.804 58.4198 345.075 57.1483 345.075 55.5798C345.075 54.0114 343.804 52.7399 342.236 52.7399C340.668 52.7399 339.397 54.0114 339.397 55.5798C339.397 57.1483 340.668 58.4198 342.236 58.4198Z" fill="#FFA061"/>
<path d="M348.842 61.631C349.734 61.631 350.457 60.908 350.457 60.0161C350.457 59.1242 349.734 58.4012 348.842 58.4012C347.951 58.4012 347.228 59.1242 347.228 60.0161C347.228 60.908 347.951 61.631 348.842 61.631Z" fill="#FFA061"/>
<path d="M347.766 60.9627C349.252 60.9627 350.456 59.7577 350.456 58.2713C350.456 56.7848 349.252 55.5798 347.766 55.5798C346.28 55.5798 345.075 56.7848 345.075 58.2713C345.075 59.7577 346.28 60.9627 347.766 60.9627Z" fill="#3F56FF"/>
<path d="M341.327 199.471C343.336 199.471 344.964 197.842 344.964 195.832C344.964 193.823 343.336 192.194 341.327 192.194C339.318 192.194 337.69 193.823 337.69 195.832C337.69 197.842 339.318 199.471 341.327 199.471Z" fill="#3F56FF"/>
<path d="M202.951 239.974C204.519 239.974 205.79 238.703 205.79 237.134C205.79 235.566 204.519 234.294 202.951 234.294C201.383 234.294 200.112 235.566 200.112 237.134C200.112 238.703 201.383 239.974 202.951 239.974Z" fill="#3F56FF"/>
<path d="M351.05 141.502C349.825 138.811 354.464 137.623 354.78 140.444C354.891 141.391 354.372 142.393 353.407 142.653C352.331 142.931 351.18 142.208 350.883 141.168C350.79 140.815 350.252 140.964 350.345 141.317C350.716 142.653 352.182 143.544 353.555 143.191C354.91 142.839 355.578 141.335 355.262 140.036C354.928 138.662 353.5 137.994 352.182 138.347C350.642 138.755 349.918 140.37 350.568 141.818C350.716 142.115 351.199 141.818 351.05 141.502Z" fill="#FFA061"/>
<path d="M354.502 143.637C353.5 143.544 353.129 142.208 353.815 141.539C354.39 140.964 355.374 141.001 355.986 141.484C356.617 141.985 357.23 143.451 356.524 144.157C355.597 145.085 354.465 143.581 354.019 142.913C353.815 142.616 353.333 142.894 353.537 143.191C354.186 144.194 355.671 145.771 356.914 144.546C357.898 143.581 357.192 141.632 356.228 140.945C355.244 140.24 353.63 140.481 353.073 141.632C352.516 142.746 353.333 144.082 354.52 144.194C354.854 144.231 354.854 143.674 354.502 143.637Z" fill="#FFA061"/>
<path d="M240.372 207.454C240.131 206.971 239.852 206.47 239.63 205.969C239.388 205.449 239.5 205.245 239.815 204.8C240.223 204.224 240.854 203.704 241.578 204.094C242.098 204.373 242.432 205.004 242.58 205.542C242.84 206.452 242.617 207.751 241.559 208.048C240.687 208.289 239.555 207.751 239.593 206.749C239.593 206.396 239.036 206.396 239.036 206.749C238.999 207.992 240.242 208.772 241.392 208.642C242.803 208.475 243.397 206.99 243.192 205.728C242.988 204.503 241.856 202.943 240.446 203.519C239.76 203.797 239.24 204.521 238.924 205.171C238.739 205.561 238.776 205.579 238.962 205.969C239.258 206.563 239.555 207.157 239.852 207.732C240.056 208.048 240.539 207.769 240.372 207.454Z" fill="#3F56FF"/>
<path d="M242.432 211.092C241.727 210.257 240.52 208.623 241.56 207.584C242.302 206.841 243.638 207.12 244.25 207.862C244.881 208.623 245.011 210.108 244.028 210.665C243.192 211.148 241.986 210.684 241.838 209.718C241.782 209.366 241.244 209.514 241.3 209.867C241.522 211.129 243.063 211.723 244.176 211.222C245.531 210.591 245.586 208.716 244.788 207.621C244.028 206.563 242.357 206.192 241.318 207.064C239.815 208.308 241.114 210.35 242.061 211.463C242.265 211.76 242.654 211.37 242.432 211.092Z" fill="#FFA061"/>
<path d="M344.11 101.966C344.129 100.332 346.374 100.815 347.339 100.926C348.174 101.019 348.935 100.908 349.677 100.499C350.494 100.072 351.162 99.4041 351.96 98.9401C352.479 98.6245 353.11 98.3461 353.722 98.3461C354.372 98.3647 354.78 98.7544 355.355 98.9958C356.691 99.534 357.545 98.2904 358.38 97.4737C360.032 95.8588 362.388 96.527 364.318 97.1953C364.652 97.3066 364.801 96.7683 364.466 96.657C362.741 96.063 360.551 95.4133 358.844 96.3971C358.027 96.8611 357.545 97.715 356.803 98.2533C355.745 99.0143 354.854 97.8078 353.741 97.7892C351.347 97.7521 350.085 100.518 347.673 100.388C346.634 100.332 345.632 99.9424 344.63 100.406C343.98 100.703 343.572 101.223 343.554 101.947C343.535 102.318 344.092 102.318 344.11 101.966Z" fill="#3F56FF"/>
<path d="M357.99 101.335C359.178 99.6454 361.405 98.8287 363.409 99.4041C364.281 99.664 365.097 100.369 366.062 100.314C366.86 100.258 367.287 99.6083 367.825 99.1071C368.697 98.3089 369.829 97.6593 371.054 97.6964C371.796 97.715 372.371 97.9934 372.947 98.476C373.132 98.6431 373.281 98.7916 373.54 98.8658C373.912 98.9586 374.246 98.7915 374.58 98.6431C375.155 98.3832 375.749 98.1604 376.361 97.9934C377.623 97.6778 378.903 97.6222 380.184 97.7892C380.536 97.8263 380.536 97.2695 380.184 97.2324C378.959 97.0653 377.734 97.1024 376.528 97.3809C375.99 97.5108 375.452 97.6778 374.932 97.882C374.524 98.0491 374.32 98.1605 373.856 98.1605C373.355 98.1605 373.392 98.0862 373.058 97.8263C371.481 96.6198 369.365 97.1767 367.936 98.3089C367.547 98.6059 367.231 99.0143 366.86 99.3113C365.97 100.017 365.264 99.5711 364.355 99.1628C363.576 98.8101 362.759 98.6431 361.906 98.6802C360.143 98.7544 358.547 99.6268 357.545 101.056C357.304 101.353 357.786 101.631 357.99 101.335Z" fill="#3F56FF"/>
<path d="M372.821 296.956C373.322 300.126 373.824 303.322 374.3 306.493C363.867 309.874 358.744 312.014 358.955 312.912C359.219 314.022 367.565 313.203 383.992 310.535C383.042 305.515 382.117 300.496 381.166 295.476C378.367 295.952 375.594 296.454 372.821 296.956Z" fill="black"/>
<path d="M350.372 190.805C350.187 194.398 349.923 199.524 349.685 205.732C349.447 212.31 349.315 215.745 349.342 219.972C349.342 221.794 349.421 229.218 350.372 238.782C351.164 246.839 352.405 258.886 356.816 273.707C358.559 279.572 361.253 287.445 365.452 296.427C367.38 296.718 369.652 296.876 372.24 296.771C377.099 296.533 381.035 295.344 383.755 294.234C382.963 291.645 381.853 287.973 380.691 283.561C379.133 277.591 374.643 259.6 372.9 235.426C372.029 223.274 371.712 208.11 373.243 190.673C365.637 190.7 358.004 190.753 350.372 190.805Z" fill="#3C2FC0"/>
<path opacity="0.09" d="M372.583 192.84C372.081 194.742 371.421 197.489 370.708 200.818C368.859 209.615 366.957 222.164 367.142 243.378C367.248 256.429 368.172 274.473 371.553 296.269C372.873 296.137 374.22 295.978 375.62 295.767C378.552 295.318 381.272 294.736 383.755 294.076C382.645 290.483 381.114 285.146 379.529 278.647C373.903 255.478 372.319 235.823 371.896 222.851C371.659 215.137 371.659 204.913 372.583 192.84Z" fill="#606060"/>
<path d="M372.662 191.492C370.021 218.228 371.659 245.36 377.495 271.594C379.159 279.044 381.14 286.388 383.464 293.653C383.623 294.129 384.389 293.917 384.23 293.442C376.096 267.895 372.028 241.106 372.24 214.292C372.293 206.683 372.715 199.048 373.455 191.466C373.507 190.99 372.715 190.99 372.662 191.492Z" fill="#161616"/>
<path d="M349.289 215.19C348.311 236.853 351.349 258.648 358.163 279.229C360.064 284.988 362.283 290.641 364.792 296.163C365.003 296.638 365.69 296.216 365.478 295.767C356.631 276.085 351.428 254.818 350.187 233.287C349.843 227.263 349.817 221.24 350.081 215.19C350.107 214.661 349.315 214.688 349.289 215.19Z" fill="#161616"/>
<path d="M365.109 296.401C366.007 297.405 368.067 297.167 369.282 297.193C371.131 297.22 373.006 297.035 374.828 296.771C376.809 296.48 378.79 296.057 380.744 295.582C381.721 295.344 383.755 295.291 384.257 294.208C384.468 293.759 383.781 293.336 383.57 293.812C383.332 294.367 382.012 294.472 381.51 294.578C380.77 294.763 380.057 294.921 379.318 295.106C377.918 295.423 376.545 295.714 375.145 295.925C373.692 296.163 372.24 296.322 370.787 296.374C369.678 296.427 366.509 296.771 365.69 295.846C365.32 295.45 364.766 296.031 365.109 296.401Z" fill="#161616"/>
<path d="M342.58 190.647C341.814 192.311 340.784 195.482 340.045 198.282C339.12 201.848 338.883 203.988 338.354 207.106C337.377 212.865 336.717 213.843 335.291 220.157C333.785 226.92 333.099 232.124 332.57 236.272C332.148 239.495 331.382 246.073 331.039 254.58C330.88 258.252 330.801 260.419 330.88 263.404C331.091 272.783 332.597 280.048 333.257 282.901C335.027 290.747 337.615 297.458 340.203 302.9C341.392 303.507 343.188 304.274 345.459 304.776C348.258 305.383 351.85 306.176 355.284 304.432C356.234 303.957 358.4 302.636 360.038 299.518C358.77 296.057 357.212 291.144 355.97 285.12C352.907 270.167 354.016 258.332 354.782 250.881C356.208 236.8 359.483 226.233 365.108 208.004C367.01 201.875 368.7 196.908 369.862 193.606C370.259 190.99 371.183 183.144 366.984 179.868C360.83 175.007 346.489 182.219 342.58 190.647Z" fill="#3C2FC0"/>
<path opacity="0.08" d="M366.138 204.702C364.422 207.423 362.045 211.465 359.694 216.564C356.789 222.851 352.51 233.894 350.213 255.901C348.945 267.921 348.1 284.75 350.054 305.066C350.873 305.145 354.359 305.436 357.344 303.032C358.875 301.79 359.668 300.364 360.064 299.465C358.77 295.899 357.106 290.668 355.838 284.195C352.088 265.332 354.438 250.168 356.182 239.601C357.608 230.777 360.381 218.598 366.138 204.702Z" fill="#606060"/>
<path d="M346.727 304.723C347.625 307.946 348.523 311.195 349.421 314.418C335.265 318.725 328.318 321.419 328.556 322.476C328.82 323.691 338.46 322.793 357.476 319.781C356.974 314.603 356.472 309.452 355.997 304.274C352.88 304.406 349.79 304.564 346.727 304.723Z" fill="black"/>
<path d="M342.29 190.964C339.49 198.044 338.064 205.547 336.558 212.997C334.974 220.791 333.442 228.584 332.333 236.457C330.273 251.04 329.639 265.967 332.465 280.497C333.97 288.317 336.506 295.925 340.23 302.953C340.467 303.402 341.154 303.005 340.916 302.556C326.787 275.689 331.065 244.25 336.823 215.745C338.486 207.476 339.965 199.048 343.082 191.175C343.24 190.7 342.474 190.488 342.29 190.964Z" fill="#161616"/>
<path d="M365.795 204.649C356.947 228.241 351.031 253.603 354.465 278.885C355.416 285.86 357.079 292.702 359.509 299.307C359.694 299.782 360.46 299.571 360.275 299.096C351.48 275.345 353.276 249.296 359.879 225.229C361.781 218.334 364.052 211.544 366.561 204.834C366.746 204.358 365.98 204.173 365.795 204.649Z" fill="#161616"/>
<path d="M340.309 302.926C344.033 304.987 348.311 305.859 352.537 305.304C355.997 304.828 360.011 303.243 360.354 299.254C360.407 298.752 359.615 298.752 359.562 299.254C359.192 303.402 354.174 304.511 350.767 304.67C347.255 304.828 343.795 303.957 340.731 302.239C340.256 302.002 339.86 302.688 340.309 302.926Z" fill="#161616"/>
<path d="M348.021 121.8C347.308 122.645 346.304 123.94 345.353 125.657C342.105 131.363 341.894 136.964 341.841 141.878C341.788 149.037 341.735 152.63 342.501 160.424C343.214 167.715 343.399 178.177 340.837 191.519C343.135 193.21 346.489 195.164 350.873 196.195C363.498 199.154 373.956 191.783 375.937 190.356C373.428 175.641 372.055 163.858 371.262 155.589C370.76 150.358 368.912 142.75 365.241 127.506C364.131 122.857 362.996 118.418 359.562 117.15C354.808 115.354 348.972 120.875 348.021 121.8Z" fill="#FFA061"/>
<path opacity="0.1" d="M359.431 117.52C359.853 119.237 360.461 121.826 361.068 125.023C361.86 129.144 362.917 135.379 363.656 144.652C364.422 154.216 365.294 172.154 365.558 195.349C367.354 194.821 369.52 194.029 371.817 192.76C373.349 191.915 374.67 191.017 375.779 190.171C375.594 188.137 375.251 185.046 374.696 181.321C373.983 176.645 373.27 173.396 372.927 171.784C372.081 167.61 371.131 161.375 371.025 152.71C369.942 148.113 369.123 144.414 368.569 141.957C367.037 134.983 366.588 132.42 365.426 128.193C364.264 123.94 363.049 120.558 362.283 118.524C361.332 118.154 360.381 117.837 359.431 117.52Z" fill="#606060"/>
<path d="M347.995 124.336C348.232 124.812 348.628 124.97 349.5 125.393C350.24 125.763 350.953 126.212 351.692 126.529C353.963 127.506 356.631 131.839 357.054 132.526C358.665 135.141 360.54 138.206 361.623 142.644C361.913 143.807 362.573 146.818 361.807 156.989C360.989 167.425 359.932 168.878 360.751 174.082C361.358 177.86 362.124 182.378 365.848 184.835C369.308 187.107 373.296 186.314 374.115 186.156C379.133 185.178 381.985 181.295 384.758 177.517C388.984 171.784 390.595 166.051 391.282 162.722C391.599 161.164 391.546 156.593 391.467 147.479C391.361 138.074 391.202 134.824 388.746 132.077C387.082 130.227 385.049 129.356 383.649 128.906C383.755 128.325 383.781 127.453 383.306 126.714C382.408 125.34 380.268 125.366 378.895 125.393C373.006 125.551 368.621 129.514 368.41 129.699C364.739 133.107 363.656 137.281 363.313 139.025C362.573 135.749 361.358 133.239 360.408 131.628C359.589 130.227 358.374 128.801 355.918 125.895C353.99 123.623 353.065 122.751 351.613 122.275C351.296 122.17 348.893 121.456 348.1 122.54C347.731 123.041 347.731 123.808 347.995 124.336Z" fill="white"/>
<path opacity="0.11" d="M347.81 123.358C347.968 123.068 349.738 123.728 349.923 123.808C352.537 124.812 354.861 126.899 357.846 131.733C359.378 134.217 361.306 137.73 362.943 142.301C364.105 141.112 365.082 140.134 365.848 139.395C365.848 139.395 368.674 136.673 373.243 134.032C373.692 133.767 374.247 133.45 374.643 133.688C375.462 134.137 374.59 136.33 374.828 138.364C375.013 139.897 375.911 142.01 379.318 144.361C379.397 144.81 379.423 145.444 379.054 145.867C378.314 146.686 376.412 146.026 375.435 145.682C373.851 145.127 370.787 143.674 367.169 139.421C366.825 140.795 366.376 142.75 366.033 145.154C365.716 147.241 364.845 154.189 366.297 163.119C366.878 166.659 367.961 171.388 370.18 176.777C371.157 177.2 372.398 177.596 373.877 177.834C376.967 178.309 379.529 177.702 381.008 177.226C380.136 177.649 378.948 178.362 377.918 179.604C376.677 181.11 376.65 182.246 375.62 183.646C374.933 184.597 373.692 185.786 371.394 186.631C370.681 186.552 369.599 186.367 368.41 185.839C364.792 184.227 363.154 180.819 362.415 179.234C361.438 177.094 359.932 172.761 361.358 158.099C362.177 149.724 363.075 147.109 361.702 142.327C360.645 138.655 358.823 135.617 358.189 134.586C357.053 132.737 355.02 129.435 351.322 126.397C349.579 124.917 347.651 123.702 347.81 123.358Z" fill="#606060"/>
<path d="M377.258 129.276C376.782 129.91 376.175 130.835 375.699 132.05C375.435 132.764 374.801 134.428 374.96 136.541C375.25 140.742 378.261 143.305 378.816 143.754C379.186 144.044 379.503 144.282 379.714 144.414C379.397 145.497 379.027 147.109 378.895 149.09C378.684 151.891 378.473 155.034 380.11 155.959C381.166 156.54 382.751 156.144 383.623 155.299C383.834 155.087 384.441 154.427 384.6 151.442C384.785 147.901 384.045 146.422 385.102 145.392C385.551 144.916 386.316 144.626 386.977 144.335C387.716 144.018 388.377 143.859 388.852 143.754C388.561 145.92 388.35 147.849 388.192 149.407C388.007 151.336 387.928 152.313 388.588 152.921C389.195 153.476 390.199 153.581 390.965 153.238C391.968 152.789 392.285 151.547 392.84 149.064C393.289 147.109 393.659 145.471 393.421 143.252C393.289 142.116 393.051 141.191 392.84 140.557C392.787 140.108 392.655 139.447 392.444 138.681C391.995 137.149 391.572 136.7 391.308 135.722C390.912 134.322 391.361 133.635 391.467 132.05C391.572 130.809 391.467 129.039 390.569 126.819C390.225 126.846 389.512 126.899 388.773 127.401C387.875 127.982 387.505 128.827 387.373 129.118C386.686 128.959 385.445 128.801 384.019 129.197C381.563 129.858 380.268 131.68 379.925 132.235C380.612 130.729 380.031 129.25 379.106 128.88C378.314 128.537 377.363 129.223 377.258 129.276Z" fill="black"/>
<path d="M380.242 137.466C380.506 136.964 381.827 135.855 382.276 136.779C382.487 137.228 383.174 136.832 382.963 136.383C382.672 135.775 381.959 135.59 381.325 135.722C380.559 135.855 379.925 136.383 379.556 137.07C379.318 137.519 380.005 137.915 380.242 137.466Z" fill="white"/>
<path d="M387.98 135.432C388.139 135.088 388.297 134.692 388.562 134.428C388.826 134.164 389.618 133.873 389.644 134.481C389.671 134.983 390.463 134.983 390.437 134.481C390.384 133.715 389.724 133.213 388.958 133.318C388.086 133.477 387.637 134.269 387.294 135.009C387.083 135.485 387.769 135.907 387.98 135.432Z" fill="white"/>
<path d="M388.191 137.942C388.191 137.968 388.191 137.994 388.191 138.021C388.139 138.074 388.086 138.126 388.059 138.153C387.927 138.232 387.716 138.153 387.742 137.994C387.742 137.994 387.742 137.915 387.769 137.942L387.69 138.021C387.874 138.021 388.059 138.021 388.244 138.021C388.218 137.994 388.218 137.994 388.191 137.968C388.218 137.994 388.218 137.994 388.218 137.994C388.191 137.968 388.218 137.968 388.218 138.021C388.244 138.179 388.165 138.285 387.954 138.364C387.874 138.338 387.822 138.338 387.742 138.311C387.637 138.259 387.663 138.1 387.69 138.021C387.716 137.994 387.69 137.994 387.663 138.047C387.69 138.021 387.69 138.021 387.663 138.047C387.478 138.179 387.399 138.391 387.531 138.602C387.637 138.761 387.901 138.866 388.086 138.734C388.271 138.602 388.455 138.417 388.482 138.153C388.482 137.862 388.271 137.598 387.98 137.598C387.69 137.598 387.478 137.783 387.452 138.074C387.425 138.285 387.557 138.47 387.69 138.602C387.848 138.761 388.086 138.734 388.244 138.602C388.587 138.338 388.667 137.783 388.271 137.519C388.086 137.413 387.848 137.387 387.663 137.492C387.425 137.625 387.399 137.942 387.452 138.179C387.478 138.391 387.742 138.496 387.927 138.444C388.139 138.364 388.218 138.153 388.191 137.942Z" fill="white"/>
<path d="M383.966 138.761C383.2 139.21 382.17 138.998 381.668 138.259C381.377 137.836 380.691 138.232 380.981 138.655C381.747 139.738 383.2 140.108 384.388 139.447C384.811 139.183 384.415 138.496 383.966 138.761Z" fill="white"/>
<path d="M383.385 140.478C382.804 140.927 382.302 141.508 381.958 142.169C381.721 142.618 382.407 143.014 382.645 142.565C382.962 141.957 383.411 141.455 383.966 141.033C384.124 140.9 384.098 140.61 383.966 140.478C383.781 140.319 383.543 140.346 383.385 140.478Z" fill="white"/>
<path d="M389.802 137.572C390.331 136.964 390.727 136.277 390.991 135.511C391.149 135.035 390.383 134.824 390.225 135.3C390.014 135.934 389.67 136.515 389.248 137.017C388.931 137.413 389.485 137.968 389.802 137.572Z" fill="white"/>
<path d="M389.855 138.576C390.489 138.443 391.229 138.285 391.731 138.813C392.074 139.183 392.629 138.628 392.285 138.259C391.572 137.492 390.542 137.625 389.618 137.836C389.142 137.915 389.354 138.681 389.855 138.576Z" fill="white"/>
<path d="M347.678 123.728C348.893 121.826 351.771 122.962 353.224 123.913C354.967 125.023 356.288 126.687 357.476 128.352C359.879 131.707 362.019 135.353 362.811 139.447C362.917 139.949 363.683 139.738 363.577 139.236C362.653 134.349 359.8 129.646 356.578 125.895C354.703 123.728 349.394 119.633 346.991 123.359C346.727 123.755 347.414 124.177 347.678 123.728Z" fill="#161616"/>
<path d="M349.315 125.525C355.653 129.091 359.219 135.775 361.015 142.591C361.147 143.093 361.913 142.882 361.781 142.38C359.932 135.379 356.208 128.484 349.711 124.838C349.262 124.574 348.866 125.261 349.315 125.525Z" fill="#161616"/>
<path d="M363.577 139.104C364.237 134.428 367.222 130.518 371.315 128.272C373.428 127.11 375.779 126.397 378.182 126.053C379.318 125.895 380.638 125.736 381.747 126.159C382.962 126.608 384.124 128.537 382.593 129.408C382.144 129.646 382.54 130.333 382.989 130.095C384.679 129.144 384.256 126.714 382.777 125.789C380.48 124.336 376.677 125.366 374.326 126.159C368.516 128.035 363.709 132.737 362.837 138.946C362.732 139.395 363.498 139.606 363.577 139.104Z" fill="#161616"/>
<path d="M365.346 140.293C366.64 138.787 368.278 137.519 369.862 136.33C371.394 135.168 373.032 134.217 374.933 133.794C375.435 133.688 375.224 132.922 374.722 133.028C372.768 133.477 371.051 134.454 369.466 135.643C367.829 136.885 366.139 138.179 364.792 139.738C364.448 140.108 365.003 140.689 365.346 140.293Z" fill="#161616"/>
<path d="M375.039 133.873C375.593 132.605 376.306 131.39 377.178 130.307C377.336 130.122 377.521 129.805 377.732 129.673C377.917 129.329 378.155 129.303 378.498 129.62C378.921 129.62 379.106 129.778 379.106 130.148C379.396 130.703 379.423 131.654 379.528 132.288C379.634 132.79 380.4 132.579 380.294 132.077C380.083 131.073 379.819 127.48 377.917 128.457C377.178 128.827 376.623 129.752 376.148 130.386C375.435 131.363 374.854 132.394 374.352 133.477C374.141 133.926 374.827 134.349 375.039 133.873Z" fill="#161616"/>
<path d="M380.136 132.526C381.483 130.782 384.23 128.378 386.58 129.673C387.029 129.91 387.426 129.223 386.977 128.986C384.256 127.533 381.193 129.91 379.555 131.971C379.265 132.367 379.819 132.922 380.136 132.526Z" fill="#161616"/>
<path d="M387.347 129.54C387.716 128.959 389.433 126.872 390.172 127.427C390.569 127.718 390.648 128.748 390.754 129.223C390.912 129.963 390.965 130.703 390.991 131.469C391.018 131.971 391.81 131.971 391.784 131.469C391.757 130.412 391.625 129.382 391.361 128.352C391.203 127.77 391.07 126.661 390.384 126.476C389.75 126.317 388.878 126.925 388.403 127.268C387.69 127.77 387.135 128.404 386.686 129.144C386.396 129.567 387.082 129.963 387.347 129.54Z" fill="#161616"/>
<path d="M366.376 138.998C368.199 140.768 370.127 142.406 372.187 143.886C374.22 145.339 376.201 146.369 378.763 146.237C379.265 146.211 379.265 145.418 378.763 145.444C376.148 145.577 374.22 144.414 372.187 142.935C370.312 141.561 368.569 140.055 366.905 138.444C366.561 138.1 366.007 138.655 366.376 138.998Z" fill="#161616"/>
<path d="M361.041 141.719C363.92 154.506 356.42 168.482 362.626 180.713C363.788 183.012 365.558 185.099 367.987 186.129C370.364 187.133 373.111 187.054 375.567 186.261C381.008 184.518 384.521 179.472 387.214 174.716C388.931 171.731 390.357 168.534 391.202 165.179C391.625 163.515 391.889 161.771 391.968 160.054C392.048 158.073 391.783 156.091 391.863 154.11C391.889 153.608 391.097 153.608 391.07 154.11C390.965 157.333 391.387 160.397 390.753 163.594C390.199 166.447 389.169 169.221 387.875 171.81C385.471 176.671 382.223 182.14 377.231 184.703C374.643 186.024 371.447 186.526 368.674 185.495C365.954 184.491 364.158 182.087 362.996 179.525C360.513 173.95 360.804 167.61 361.464 161.692C362.203 154.982 363.366 148.192 361.86 141.482C361.675 141.033 360.909 141.218 361.041 141.719Z" fill="#161616"/>
<path d="M372.794 168.165C371.315 170.754 370.338 173.554 369.915 176.513C369.836 177.015 370.602 177.226 370.681 176.724C371.104 173.818 372.028 171.097 373.481 168.561C373.745 168.138 373.058 167.742 372.794 168.165Z" fill="#161616"/>
<path d="M373.296 168.455C377.205 168.112 381.325 167.372 385.233 167.795C385.735 167.847 385.735 167.055 385.233 167.002C381.325 166.553 377.205 167.319 373.296 167.663C372.794 167.715 372.794 168.508 373.296 168.455Z" fill="#161616"/>
<path d="M370.311 177.226C372.239 178.362 374.484 178.256 376.65 178.204C378.921 178.124 381.192 177.86 383.173 176.671C383.622 176.407 383.2 175.72 382.777 175.984C380.902 177.12 378.789 177.332 376.65 177.411C374.643 177.49 372.53 177.622 370.707 176.566C370.285 176.301 369.889 176.988 370.311 177.226Z" fill="#161616"/>
<path d="M384.864 167.61C384.362 170.516 383.596 173.316 382.566 176.064C382.381 176.539 383.147 176.751 383.332 176.275C384.389 173.527 385.154 170.701 385.63 167.821C385.709 167.319 384.943 167.108 384.864 167.61Z" fill="#161616"/>
<path d="M372.583 169.538C373.877 172.392 377.548 173.105 380.374 173.131C380.876 173.131 380.876 172.339 380.374 172.339C377.838 172.286 374.431 171.705 373.269 169.116C373.058 168.666 372.371 169.089 372.583 169.538Z" fill="#161616"/>
<path d="M378.288 172.101C378.208 172.761 378.129 173.422 378.05 174.056C377.997 174.558 378.789 174.558 378.842 174.056C378.921 173.395 379.001 172.735 379.08 172.101C379.133 171.599 378.34 171.599 378.288 172.101Z" fill="#161616"/>
<path d="M379.793 172.101C379.713 172.761 379.634 173.422 379.581 174.082C379.529 174.584 380.321 174.584 380.374 174.082C380.453 173.422 380.532 172.761 380.585 172.101C380.638 171.599 379.845 171.599 379.793 172.101Z" fill="#161616"/>
<path d="M380.479 173.21C382.355 172.788 383.913 171.625 384.89 169.987C385.154 169.538 384.467 169.142 384.203 169.591C383.305 171.071 381.932 172.048 380.268 172.444C379.766 172.576 379.978 173.343 380.479 173.21Z" fill="#161616"/>
<path d="M374.696 132.446C373.904 137.123 374.775 142.697 379.556 144.837C380.005 145.048 380.427 144.361 379.952 144.15C375.488 142.142 374.722 136.991 375.462 132.658C375.541 132.156 374.775 131.945 374.696 132.446Z" fill="#161616"/>
<path d="M390.938 131.178C390.991 132.684 390.965 134.217 391.176 135.696C391.387 137.308 392.84 139.104 392.074 140.716C391.863 141.165 392.549 141.587 392.761 141.112C393.447 139.659 392.84 138.444 392.338 137.017C391.678 135.194 391.836 133.081 391.757 131.152C391.704 130.65 390.912 130.65 390.938 131.178Z" fill="#161616"/>
<path d="M381.721 144.282C382.883 143.674 384.204 144.309 384.468 145.577C384.495 145.709 384.679 145.656 384.653 145.524C384.336 144.124 382.883 143.437 381.616 144.097C381.51 144.176 381.616 144.361 381.721 144.282Z" fill="white"/>
<path d="M383.728 145.629C383.913 145.841 384.045 146.079 384.124 146.343C384.177 146.475 384.362 146.422 384.309 146.29C384.203 145.999 384.045 145.735 383.86 145.497C383.781 145.392 383.622 145.55 383.728 145.629Z" fill="white"/>
<path d="M389.037 143.78C389.274 142.697 389.961 141.799 390.965 141.297C391.07 141.244 390.991 141.059 390.859 141.138C389.802 141.64 389.089 142.591 388.852 143.727C388.825 143.859 389.01 143.912 389.037 143.78Z" fill="white"/>
<path d="M342.527 87.7727C340.705 88.6973 339.173 90.441 338.486 91.2071C336.796 93.1357 335.925 94.9321 334.974 96.9399C334.181 98.5779 333.257 100.903 332.518 103.809C333.548 103.994 334.578 104.152 335.608 104.337C335.555 105.341 335.555 106.821 335.951 108.564C336.321 110.149 336.928 112.685 339.041 114.456C341.946 116.939 345.802 116.331 346.515 116.226C346.568 117.467 346.832 119.237 347.836 121.06C348.1 121.509 348.364 121.932 348.628 122.302C350.081 121.879 352.326 121.007 354.518 119.211C360.117 114.693 360.883 107.957 361.12 106.002C361.464 102.99 362.124 97.3098 358.4 92.6073C354.518 87.7463 347.149 85.4478 342.527 87.7727Z" fill="white"/>
<path d="M337.113 93.2677C337.853 92.1581 339.279 90.5202 340.89 89.3842C343.478 87.5613 344.64 88.3274 345.961 86.7159C346.912 85.5535 347.519 83.6513 346.806 82.7531C345.67 81.3265 341.629 83.0437 341.101 83.2815C339.939 83.7834 336.11 85.395 334.578 89.4634C333.31 92.8714 334.155 96.5965 334.736 96.6757C334.895 96.7022 335 96.438 335.846 95.1435C336.242 94.483 336.691 93.8754 337.113 93.2677Z" fill="#3F56FF"/>
<path d="M342.871 85.3157C342.659 86.0026 342.342 87.3764 343.399 90.0711C345.274 94.9057 349.658 99.2384 351.85 98.4458C352.326 98.2609 352.828 97.7853 353.778 97.7325C354.016 97.7325 354.967 97.6797 355.706 98.2609C356.868 99.1855 356.921 101.193 356.155 102.488C356.023 102.726 355.31 103.809 354.227 103.888C353.277 103.967 352.96 103.228 352.194 103.175C350.319 103.069 348.707 107.19 348.496 107.745C348.074 108.802 347.044 111.549 347.783 115.063C347.942 115.829 348.311 117.441 349.447 119.105C351.903 122.672 356.023 123.544 357.555 123.861C359.06 124.178 364.792 125.366 369.255 121.668C369.968 121.087 372.319 119.079 372.952 115.671C374.035 109.911 369.202 105.605 368.912 105.367C368.7 102.382 367.987 97.6268 365.478 92.4223C363.894 89.12 362.415 86.0819 359.06 83.7834C354.65 80.7981 348.232 79.9527 344.878 82.5418C344.535 82.8588 343.399 83.757 342.871 85.3157Z" fill="#3F56FF"/>
<path d="M337.853 113.663C337.457 114.059 336.295 115.275 336.083 117.177C335.793 119.819 337.562 121.641 337.932 122.011C339.86 123.993 343.082 124.785 345.406 123.596C345.591 123.517 347.625 122.434 347.704 120.875C347.73 120.188 347.361 119.845 346.832 118.313C346.489 117.309 346.278 116.49 346.119 115.935C345.406 116.173 344.191 116.49 342.686 116.278C339.992 115.935 338.328 114.191 337.853 113.663Z" fill="#3F56FF"/>
<path opacity="0.12" d="M343.135 87.6406C343.161 88.4595 343.267 89.6748 343.821 90.9693C344.191 91.8411 344.561 92.3695 344.851 92.7922C345.961 94.483 346.33 96.0681 346.911 97.8382C347.836 100.586 347.677 102.884 347.493 105.737C347.334 108.115 346.806 111.734 345.089 115.935C345.802 116.146 346.832 116.569 347.942 117.309C349.975 118.682 350.899 120.32 351.481 121.087C352.669 122.645 355.31 124.283 361.675 124.178C361.041 123.544 360.143 122.592 359.166 121.43C356.868 118.735 354.861 116.384 353.673 113.531C352.986 111.893 351.93 108.538 352.748 103.677C353.488 104.047 354.359 104.02 355.046 103.571C355.759 103.095 356.208 102.144 355.97 101.273C355.68 100.269 354.465 99.5818 353.224 99.8988C352.96 99.2384 352.537 98.2873 351.85 97.257C350.767 95.6454 349.632 94.6415 349.209 94.2716C347.862 93.1092 345.908 91.1278 343.135 87.6406Z" fill="#606060"/>
<path opacity="0.14" d="M332.808 103.333C332.835 102.911 334.181 102.567 335.317 102.646C336.321 102.726 337.509 103.175 337.483 103.571C337.456 103.941 336.347 104.232 335.528 104.258C334.261 104.311 332.808 103.756 332.808 103.333Z" fill="#606060"/>
<path d="M336.083 93.5055C334.578 96.8079 333.231 100.163 332.069 103.597C331.99 103.809 332.148 104.02 332.333 104.073C333.363 104.469 334.393 104.654 335.476 104.628C335.978 104.628 335.978 103.835 335.476 103.835C334.446 103.835 333.495 103.65 332.544 103.307C332.623 103.465 332.729 103.624 332.808 103.782C333.944 100.401 335.238 97.0985 336.743 93.8754C336.981 93.4527 336.294 93.03 336.083 93.5055Z" fill="#161616"/>
<path d="M335.37 104.786C335.581 108.194 335.898 111.972 338.434 114.535C340.863 117.018 344.376 116.807 347.572 116.437C348.074 116.384 348.074 115.592 347.572 115.644C344.614 115.988 341.26 116.278 338.988 113.98C336.611 111.576 336.374 107.983 336.162 104.786C336.136 104.284 335.344 104.284 335.37 104.786Z" fill="#161616"/>
<path d="M346.014 116.516C346.357 118.365 346.991 120.136 347.889 121.773C348.127 122.223 348.813 121.826 348.576 121.377C347.704 119.766 347.123 118.101 346.78 116.305C346.7 115.803 345.935 116.014 346.014 116.516Z" fill="#161616"/>
<path d="M335.898 108.828C337.192 109.964 339.12 109.436 339.622 107.772C339.781 107.27 339.015 107.085 338.856 107.56C338.539 108.617 337.298 109.013 336.479 108.247C336.083 107.93 335.528 108.485 335.898 108.828Z" fill="#161616"/>
<path d="M338.328 107.745C338.751 107.851 339.068 108.089 339.332 108.406C339.464 108.564 339.754 108.538 339.886 108.406C340.045 108.247 340.018 108.009 339.886 107.851C339.543 107.428 339.068 107.111 338.539 106.979C338.064 106.847 337.853 107.613 338.328 107.745Z" fill="#161616"/>
<path d="M339.516 97.8646C339.728 96.755 341.101 96.9664 341.84 97.3627C342.474 97.7061 342.923 98.2609 343.187 98.9214C343.372 99.3969 344.138 99.1856 343.953 98.71C343.531 97.574 342.659 96.6758 341.444 96.3588C340.335 96.0682 339.015 96.4116 338.777 97.6533C338.671 98.1552 339.437 98.3666 339.516 97.8646Z" fill="#161616"/>
<path d="M339.49 93.1885C340.678 91.2071 343.003 92.7394 343.478 94.4038C343.61 94.9057 344.376 94.6944 344.244 94.1924C343.901 92.9772 343.055 91.8412 341.761 91.5241C340.599 91.26 339.411 91.7619 338.803 92.7658C338.539 93.2414 339.226 93.6376 339.49 93.1885Z" fill="#161616"/>
<path d="M340.282 102.356C340.784 102.356 340.784 101.563 340.282 101.563C339.781 101.563 339.754 102.356 340.282 102.356Z" fill="#161616"/>
<path d="M341.788 101.167C341.814 101.167 341.867 101.167 341.893 101.167C342.105 101.167 342.29 100.982 342.29 100.771C342.29 100.559 342.105 100.374 341.893 100.374C341.867 100.374 341.814 100.374 341.788 100.374C341.576 100.374 341.392 100.559 341.392 100.771C341.392 101.008 341.576 101.167 341.788 101.167Z" fill="#161616"/>
<path d="M341.814 102.514C341.814 102.541 341.814 102.567 341.814 102.594C341.814 103.095 342.606 103.095 342.606 102.594C342.606 102.567 342.606 102.541 342.606 102.514C342.606 102.012 341.814 102.012 341.814 102.514C341.814 102.541 341.814 102.567 341.814 102.594C341.814 103.095 342.606 103.095 342.606 102.594C342.606 102.567 342.606 102.541 342.606 102.514C342.606 102.012 341.814 102.012 341.814 102.514Z" fill="#161616"/>
<path d="M353.33 98.4723C354.043 97.4419 355.258 98.1024 355.68 98.9478C356.024 99.6083 356.024 100.401 355.997 101.114C355.892 102.911 354.386 104.179 352.643 103.069C352.22 102.779 351.824 103.465 352.247 103.756C353.277 104.443 354.597 104.522 355.627 103.73C356.684 102.911 356.869 101.563 356.789 100.295C356.71 99.0799 356.235 97.7325 354.967 97.2834C354.069 96.9664 353.171 97.3098 352.643 98.076C352.379 98.4723 353.066 98.8685 353.33 98.4723Z" fill="#161616"/>
<path d="M282.285 83.3871C281.73 83.3871 281.176 83.4135 280.647 83.4135C279.749 85.1571 279.248 86.7422 278.957 87.9046C278.112 91.3127 278.323 94.1395 278.482 95.5132C278.587 96.4379 278.746 97.204 278.878 97.7324C279.353 97.7324 279.829 97.7324 280.304 97.7324C280.489 98.3664 280.674 99.0005 280.859 99.6345C285.322 99.6081 288.993 99.6081 291.555 99.6345C307.084 99.7666 317.913 100.374 320.422 100.506C323.565 100.691 326.127 100.876 327.711 100.982C327.764 100.004 328.028 99.6609 328.266 99.5553C328.688 99.3703 329.058 99.8195 329.613 99.7138C330.194 99.6081 330.564 99.0005 330.801 98.4457C331.277 98.6835 332.148 99.0005 333.178 98.842C333.416 98.8156 333.627 98.7363 333.812 98.6835C334.261 97.7852 334.71 96.887 335.159 95.9888C334.525 95.7774 333.627 95.5925 332.544 95.5925C331.937 95.5925 331.409 95.6717 330.96 95.751C330.907 95.6189 330.484 94.4301 329.375 94.1659C329.032 94.0866 328.741 94.113 328.504 94.1659C328.345 93.8753 328.187 93.5847 328.028 93.2941C327.394 93.1884 326.417 93.0299 325.255 92.8185C315.826 91.1013 309.25 89.0142 304.232 87.5084C299.425 86.0553 292.427 84.0739 283.447 81.8812C283.077 82.3831 282.681 82.8851 282.285 83.3871Z" fill="#4F5772"/>
<path opacity="0.07" d="M278.561 93.6375C278.798 93.5847 279.063 94.1923 279.353 94.113C279.828 94.0074 279.723 92.343 279.828 91.1013C279.908 89.9125 280.251 88.1953 281.413 86.1082C282.179 86.4252 283.341 86.9272 284.741 87.5348C289.785 89.7275 293.271 91.4183 294.328 91.8939C301.3 95.1434 308.959 96.5964 310.887 96.9663C315.272 97.8116 321.346 98.5514 328.635 98.2343C328.318 99.1062 328.002 99.978 327.685 100.85C326.47 100.823 324.7 100.823 322.535 100.771C313.238 100.586 306.741 100.295 303.017 100.136C297.761 99.9251 290.234 99.7138 280.726 99.7402C280.621 99.0269 280.515 98.3136 280.409 97.6003C279.802 97.706 279.195 97.8117 278.587 97.9173C278.191 94.615 278.297 93.6903 278.561 93.6375Z" fill="#606060"/>
<path d="M282.839 81.9076C279.538 87.0064 278.614 93.3469 280.304 99.1855C280.436 99.6874 281.202 99.4761 281.07 98.9741C279.433 93.3205 280.33 87.2442 283.526 82.3039C283.817 81.8548 283.13 81.4585 282.839 81.9076Z" fill="#161616"/>
<path d="M283.526 82.6737C298.395 86.4251 313.238 90.1766 328.108 93.9016C328.609 94.0337 328.821 93.2676 328.319 93.1355C313.45 89.384 298.607 85.6326 283.738 81.9075C283.262 81.7755 283.051 82.5416 283.526 82.6737Z" fill="#161616"/>
<path d="M280.859 100.057C296.362 99.9252 311.865 100.295 327.342 101.14C327.843 101.167 327.843 100.374 327.342 100.348C311.865 99.5025 296.362 99.1326 280.859 99.2647C280.357 99.2647 280.357 100.057 280.859 100.057Z" fill="#161616"/>
<path d="M327.87 93.6111C328.926 95.9623 328.688 98.6306 327.236 100.771C326.945 101.193 327.632 101.589 327.922 101.167C329.533 98.7891 329.745 95.8302 328.556 93.2148C328.345 92.7657 327.658 93.1619 327.87 93.6111Z" fill="#161616"/>
<path d="M328.662 94.6414C328.952 94.8527 329.164 94.7735 329.507 94.8527C330.167 95.0377 330.431 95.6453 330.564 96.2794C330.775 97.4418 330.484 99.8987 328.768 99.2118C328.292 99.0269 328.081 99.793 328.556 99.978C330.299 100.665 331.435 98.842 331.435 97.3097C331.435 96.4643 331.329 95.5132 330.854 94.7999C330.696 94.5621 330.484 94.3244 330.22 94.1923C329.877 94.0338 329.401 94.1394 329.111 93.9281C328.636 93.6639 328.239 94.3508 328.662 94.6414Z" fill="#161616"/>
<path d="M330.986 96.0944C332.333 96.0151 333.68 96.0415 335 96.2265C335.502 96.2793 335.502 95.4868 335 95.4339C333.653 95.2754 332.333 95.2226 330.986 95.3018C330.484 95.3547 330.484 96.1472 330.986 96.0944Z" fill="#161616"/>
<path d="M330.88 99.0005C331.963 99.1854 333.046 99.2647 334.129 99.159C334.631 99.1061 334.631 98.3136 334.129 98.3664C333.099 98.4457 332.095 98.4193 331.092 98.2343C330.59 98.1551 330.379 98.8948 330.88 99.0005Z" fill="#161616"/>
<path d="M282.39 83.1757C279.828 81.6962 279.115 86.3195 278.772 87.7725C277.98 91.1277 277.61 94.5885 278.587 97.9437C278.64 98.1022 278.798 98.2343 278.957 98.2343C279.3 98.2343 279.67 98.2343 280.013 98.2343C280.515 98.2343 280.515 97.4418 280.013 97.4418C279.67 97.4418 279.3 97.4418 278.957 97.4418C279.089 97.5474 279.221 97.6267 279.327 97.7324C278.64 95.3018 278.64 92.8449 279.036 90.3616C279.221 89.252 279.459 88.1424 279.749 87.0592C279.934 86.3459 280.515 82.9908 281.968 83.8626C282.443 84.1268 282.839 83.4399 282.39 83.1757Z" fill="#161616"/>
<path d="M310.94 88.8557C310.465 88.2745 309.673 88.3537 309.567 88.3537C308.696 88.4066 307.85 89.1991 306.926 91.1277C305.13 94.7999 305.051 98.4721 305.051 99.0533C305.025 101.589 305.262 105.711 307.058 110.625C307.217 112.685 307.56 115.565 308.326 118.92C309.673 124.944 311.099 131.284 316.011 136.911C317.86 139.051 321.505 143.199 327.843 144.705C334.472 146.29 339.86 143.939 341.181 143.331C342.343 142.776 345.591 141.138 348.338 137.677C350.002 135.59 351.93 133.318 351.613 130.518C351.481 129.303 350.953 128.272 350.16 126.634C349.368 124.996 348.945 124.177 348.1 123.86C346.938 123.411 345.697 124.204 344.324 124.996C341.999 126.317 341.788 127.585 339.279 128.906C338.619 129.25 337.959 129.488 336.638 129.91C334.552 130.597 332.492 131.284 330.59 131.416C326.444 131.707 323.116 129.329 322.165 128.642C318.652 126.132 317.279 122.777 316.381 120.584C314.374 115.671 314.532 111.153 314.876 108.511C316.117 108.3 316.883 107.798 317.253 107.507C318.652 106.424 318.996 104.918 319.524 102.593C319.867 101.14 320.026 100.374 319.656 100.084C318.89 99.5024 316.54 101.405 316.011 101.854C316.117 100.057 316.381 98.6042 316.645 97.5739C316.989 96.2001 317.173 95.4868 317.649 94.932C318.573 93.8488 319.656 93.9545 320.026 92.9242C320.237 92.3694 320.211 91.6032 319.762 91.1541C319.233 90.6257 318.098 90.6522 317.121 91.4183C316.804 90.7314 316.17 90.3087 315.483 90.2823C314.796 90.2559 314.347 90.6786 314.215 90.7843C314.295 90.071 313.978 89.4105 313.45 89.1463C312.736 88.7764 311.601 89.1991 311.178 90.2823C311.205 90.1502 311.389 89.4105 310.94 88.8557Z" fill="white"/>
<path opacity="0.12" d="M309.567 88.3538C308.933 89.4634 308.14 91.1013 307.612 93.2412C306.45 97.8909 307.401 101.774 307.824 103.65C312.366 123.015 310.385 123.491 313.555 128.035C314.717 129.673 322.693 140.663 334.578 139.21C344.534 137.994 349.817 128.933 350.503 127.718C350.899 128.774 351.375 130.571 351.058 132.711C350.582 135.855 348.628 137.836 347.915 138.576C347.228 139.263 346.383 139.87 344.666 141.059C343.135 142.142 341.629 143.093 340.969 143.437C337.826 145.207 332.967 145.629 329.586 145.18C320.395 143.965 314.875 135.247 312.577 131.628C307.322 123.359 306.793 114.984 306.846 110.81C306.345 109.119 305.843 107.402 305.341 105.711C304.998 103.095 304.971 100.929 305.024 99.4232C305.156 95.6453 305.262 92.8185 307.19 90.4144C308.035 89.3577 308.959 88.7237 309.567 88.3538Z" fill="#606060"/>
<path d="M345.327 140.663C349.5 138.681 352.299 134.534 351.612 129.831C351.216 126.978 348.919 122.064 345.248 123.808C343.61 124.6 342.263 126.053 340.758 127.084C338.671 128.51 336.268 129.62 333.865 130.386C330.801 131.363 327.394 131.575 324.436 130.095C322.27 129.012 320.58 127.242 319.286 125.234C316.433 120.822 314.954 115.618 315.298 110.361C315.324 109.859 314.532 109.859 314.505 110.361C314.215 114.799 315.192 119.026 317.147 122.989C318.863 126.529 321.372 129.857 325.175 131.284C329.797 133.001 334.842 131.258 339.015 129.065C340.89 128.061 342.501 126.766 344.191 125.472C345.723 124.283 347.255 123.702 348.813 125.287C350.741 127.242 351.322 130.65 350.741 133.239C350.028 136.33 347.73 138.655 344.931 139.976C344.482 140.187 344.878 140.874 345.327 140.663Z" fill="#161616"/>
<path d="M315.245 110.704C314.902 109.251 315.932 108.881 316.883 108.194C317.437 107.798 317.86 107.243 318.256 106.688C319.26 105.235 320.052 103.545 320.263 101.774C320.369 100.903 320.554 99.5289 319.365 99.476C317.965 99.4232 317.384 101.193 316.064 101.325C315.562 101.378 315.562 102.171 316.064 102.118C317.067 102.012 317.569 101.378 318.335 100.797C318.784 100.454 319.286 100.057 319.524 100.823C319.656 101.246 319.444 102.039 319.339 102.461C319.154 103.36 318.758 104.231 318.335 105.05C317.939 105.79 317.49 106.556 316.883 107.164C316.328 107.745 315.562 107.877 314.955 108.353C314.136 108.987 314.268 110.07 314.479 110.942C314.611 111.417 315.377 111.206 315.245 110.704Z" fill="#161616"/>
<path d="M306.028 106.53C305.499 103.122 305.446 99.6346 305.975 96.2266C306.186 94.8528 306.45 93.4526 306.925 92.1317C307.216 91.3127 307.612 90.3616 308.193 89.7012C308.986 88.8294 310.544 88.3802 310.966 89.8597C311.098 90.3616 311.864 90.1503 311.732 89.6483C311.362 88.3802 310.148 87.6934 308.88 88.1953C307.269 88.8558 306.503 90.8372 306.001 92.343C304.522 96.9135 304.522 102.039 305.235 106.741C305.341 107.243 306.107 107.032 306.028 106.53Z" fill="#161616"/>
<path d="M309.857 92.8978C310.491 91.3391 312.287 88.1953 314.242 90.3352C314.585 90.705 315.14 90.1502 314.796 89.7804C313.898 88.8029 312.604 88.6444 311.469 89.3048C310.201 90.0181 309.62 91.4183 309.092 92.7128C308.907 93.162 309.673 93.3733 309.857 92.8978Z" fill="#161616"/>
<path d="M313.185 93.5582C313.211 92.5543 313.608 91.4447 314.585 90.9692C315.404 90.5729 316.381 90.7578 316.935 91.4711C317.252 91.8674 317.807 91.3126 317.49 90.9163C316.724 89.9653 315.351 89.7275 314.268 90.2295C313 90.8371 312.419 92.2109 312.393 93.5582C312.366 94.0602 313.159 94.0602 313.185 93.5582Z" fill="#161616"/>
<path d="M315.483 93.8224C315.958 92.0523 317.939 90.4408 319.655 91.8674C320.052 92.1844 320.606 91.6296 320.21 91.3126C318.018 89.5161 315.377 91.2069 314.717 93.611C314.585 94.113 315.351 94.3243 315.483 93.8224Z" fill="#161616"/>
<path d="M319.497 91.7353C320.342 92.9242 318.467 93.6639 317.807 94.2187C317.252 94.6678 316.935 95.249 316.697 95.9095C316.064 97.7324 315.773 99.7138 315.615 101.616C315.562 102.118 316.354 102.118 316.407 101.616C316.539 100.216 316.75 98.8155 317.094 97.4418C317.199 96.9927 317.305 96.5435 317.463 96.0944C317.807 95.1698 318.308 94.8263 319.074 94.2715C320.025 93.5846 321.029 92.4751 320.184 91.2862C319.893 90.9164 319.206 91.3126 319.497 91.7353Z" fill="#161616"/>
<path d="M305.05 105.737C305.473 107.534 306.001 109.304 306.661 111.047C306.846 111.523 307.612 111.312 307.427 110.836C306.767 109.092 306.239 107.322 305.816 105.526C305.711 105.024 304.945 105.235 305.05 105.737Z" fill="#161616"/>
<path d="M306.529 111.549C307.533 120.637 309.778 129.963 315.879 137.043C320.738 142.671 328.45 146.95 336.057 145.55C339.648 144.89 342.923 143.093 345.538 140.583C345.908 140.24 345.353 139.659 344.983 140.029C339.754 145.048 332.306 146.369 325.677 143.384C318.546 140.134 313.555 134.032 310.729 126.819C308.827 121.932 307.876 116.754 307.295 111.576C307.269 111.047 306.477 111.047 306.529 111.549Z" fill="#161616"/>
<path d="M322.534 4.64044C323.815 4.64044 324.854 3.60164 324.854 2.32022C324.854 1.0388 323.815 0 322.534 0C321.253 0 320.215 1.0388 320.215 2.32022C320.215 3.60164 321.253 4.64044 322.534 4.64044Z" fill="#3F56FF"/>
<path d="M115.132 8.77833C114.817 8.48135 114.91 8.29573 115.392 8.20292C115.596 7.92449 115.819 7.86881 116.06 8.05443C116.394 8.12867 116.617 8.42566 116.858 8.6484C117.155 8.90827 117.415 9.20525 117.749 9.40943C118.213 9.6693 118.788 9.78067 119.27 9.53937C119.864 9.24238 119.883 8.6484 120.087 8.09155C120.644 6.60661 122.536 6.45811 123.427 7.72031C123.538 7.86881 123.817 7.92449 123.909 7.72031C124.262 6.88503 124.707 5.93839 125.505 5.43722C126.303 4.93605 127.639 4.99174 127.992 6.03119C128.103 6.36531 128.641 6.21681 128.53 5.8827C128.177 4.88037 127.157 4.43488 126.136 4.60194C124.726 4.84324 123.947 6.25394 123.427 7.44189C123.594 7.44189 123.742 7.44189 123.909 7.44189C123.26 6.5138 122.147 6.01263 121.033 6.42099C120.569 6.58805 120.143 6.92216 119.864 7.34908C119.716 7.57182 119.623 7.81312 119.53 8.07299C119.474 8.24004 119.474 8.44422 119.382 8.59272C119.14 9.00108 118.472 9.16813 118.046 8.92683C117.136 8.42566 116.246 6.82935 114.984 7.47901C114.279 7.83168 114.186 8.83402 114.854 9.26094C115.169 9.44656 115.448 8.96395 115.132 8.77833Z" fill="#FFA061"/>
<path d="M127.046 8.6299C126.916 6.77372 129.291 7.38626 130.237 7.8503C130.72 8.09161 131.314 8.53709 131.833 8.12873C132 7.9988 132.074 7.81318 132.149 7.62756C132.427 7.01502 132.612 6.56954 133.355 6.3468C134.505 6.01269 135.619 6.7366 136.546 7.33057C136.843 7.51619 137.122 7.03359 136.825 6.84797C135.841 6.23543 134.728 5.54865 133.522 5.75283C133.132 5.80851 132.742 5.95701 132.427 6.19831C131.944 6.55098 131.852 7.16352 131.369 7.46051C130.905 7.73893 130.72 7.46051 130.256 7.23777C130.015 7.1264 129.773 7.01503 129.514 6.92222C129.031 6.75516 128.512 6.68091 128.011 6.79228C127.138 6.99646 126.433 7.70181 126.489 8.6299C126.507 8.98257 127.064 8.98257 127.046 8.6299Z" fill="#FFA061"/>
<path d="M237.377 17.0267C236.987 16.8596 237.433 16.1729 237.637 16.08C237.878 15.9687 238.36 16.1172 238.62 16.1914C239.028 16.3213 239.381 16.5441 239.789 16.6555C240.235 16.7854 240.773 16.8225 241.199 16.6183C242.684 15.8573 240.921 13.2958 243.092 13.2958C244.28 13.2958 245.282 15.0591 246.265 13.7413C246.618 13.2772 246.766 12.6832 246.952 12.1264C247.1 11.6438 247.23 11.1426 247.564 10.7528C247.954 10.3073 249.141 9.86185 249.271 10.8271C249.308 11.1797 249.884 11.1797 249.828 10.8271C249.735 10.1588 249.253 9.71335 248.566 9.67622C247.75 9.62054 247.156 10.2331 246.822 10.9013C246.581 11.3653 246.469 11.8851 246.302 12.3862C246.191 12.7389 246.043 13.3515 245.727 13.5742C245.393 13.7969 245.133 13.5556 244.855 13.3886C244.131 12.906 243.259 12.5347 242.387 12.8503C241.589 13.1473 241.274 13.8341 241.311 14.6508C241.311 14.8921 241.385 15.1891 241.366 15.4304C241.237 16.2842 240.661 16.3213 240.068 16.1914C239.474 16.0615 238.973 15.6902 238.36 15.5789C237.711 15.4489 237.061 15.616 236.765 16.2657C236.523 16.8225 236.672 17.3794 237.228 17.6021C237.562 17.6949 237.711 17.1566 237.377 17.0267Z" fill="#3F56FF"/>
<path d="M246.952 17.9177C246.674 17.4908 246.674 16.9525 246.97 16.5256C247.397 15.913 247.991 16.0058 248.641 16.0986C249.123 16.1729 249.717 16.2657 250.069 15.8388C250.311 15.5604 250.273 15.2262 250.366 14.9107C250.496 14.4466 250.793 14.0383 251.183 13.7599C251.999 13.1659 253.15 13.0731 253.966 13.7042C254.17 13.8527 254.411 13.7599 254.449 13.5C254.671 11.6995 256.453 10.3631 258.234 10.6786C258.587 10.7343 258.735 10.196 258.382 10.1403C256.211 9.76908 254.152 11.3283 253.892 13.5C254.059 13.4257 254.207 13.3701 254.374 13.2958C253.614 12.7018 252.649 12.5533 251.739 12.8689C250.7 13.2216 250.218 13.9084 249.828 14.8736C249.643 15.3562 249.42 15.6532 248.882 15.5789C248.585 15.5418 248.306 15.4675 248.01 15.449C247.583 15.4304 247.212 15.5418 246.878 15.8202C246.173 16.4142 245.987 17.4351 246.488 18.2147C246.674 18.5117 247.156 18.2332 246.952 17.9177Z" fill="#3F56FF"/>
<path d="M16.0598 190.943C16.802 190.906 17.1917 190.405 17.7113 189.941C18.936 188.846 20.3462 189.885 21.1256 190.962C21.8678 191.983 22.9441 192.707 23.8905 191.482C24.3358 190.906 24.5585 190.052 25.1708 189.644C26.4141 188.809 27.4718 190.461 28.2511 191.185C29.1418 192.001 30.9789 192.372 31.3871 190.85C31.4799 190.498 30.9418 190.349 30.849 190.702C30.6449 191.5 29.68 191.482 29.1047 191.147C28.6594 190.888 28.3439 190.479 27.9914 190.127C27.4718 189.57 26.8965 189.031 26.1172 188.883C24.8368 188.66 24.2616 189.811 23.6863 190.739C23.5379 190.999 23.3523 191.352 23.074 191.5C22.406 191.853 21.9235 191.147 21.5709 190.683C21.1256 190.052 20.6246 189.514 19.9009 189.18C19.3071 188.901 18.602 188.809 17.9896 189.068C17.2845 189.365 16.8391 190.368 16.0412 190.405C15.7072 190.405 15.7072 190.962 16.0598 190.943Z" fill="#FFA061"/>
<path d="M29.0303 187.12C29.8096 188.048 31.2014 189.291 32.4261 188.27C32.723 188.01 32.89 187.639 33.2054 187.379C33.6693 187.027 34.2817 186.952 34.8198 187.12C35.9888 187.435 36.6754 188.549 37.2878 189.495C37.3991 189.662 37.6775 189.7 37.7702 189.495C38.5682 187.751 40.7021 187.324 42.3722 187.992C42.7062 188.122 42.8546 187.584 42.5206 187.454C40.6464 186.693 38.1785 187.249 37.2878 189.198C37.4548 189.198 37.6032 189.198 37.7702 189.198C36.9352 187.899 35.8775 186.414 34.1332 186.47C33.5209 186.488 32.9642 186.748 32.556 187.194C32.0735 187.751 31.6653 188.196 30.8673 187.955C30.255 187.769 29.8096 187.194 29.4014 186.711C29.1973 186.451 28.8076 186.841 29.0303 187.12Z" fill="#FFA061"/>
<path d="M69.1442 77.4173C70.415 77.4173 71.4452 76.3868 71.4452 75.1156C71.4452 73.8445 70.415 72.814 69.1442 72.814C67.8734 72.814 66.8433 73.8445 66.8433 75.1156C66.8433 76.3868 67.8734 77.4173 69.1442 77.4173Z" fill="#FFA061"/>
<path d="M75.3604 82.4661C76.0266 82.4661 76.5666 81.926 76.5666 81.2596C76.5666 80.5933 76.0266 80.0531 75.3604 80.0531C74.6943 80.0531 74.1543 80.5933 74.1543 81.2596C74.1543 81.926 74.6943 82.4661 75.3604 82.4661Z" fill="#FFA061"/>
<path d="M118.062 281.365C106.491 281.365 94.9043 281.365 83.334 281.365C80.0426 281.365 76.7344 281.365 73.443 281.365C73.1239 281.365 73.1239 280.861 73.443 280.861C85.0133 280.861 96.6004 280.861 108.171 280.861C111.462 280.861 114.77 280.861 118.062 280.861C118.381 280.861 118.381 281.365 118.062 281.365Z" fill="#E8E8E8"/>
<path d="M68.7575 281.785C60.9992 281.18 53.2577 281.012 45.4826 281.667C45.1635 281.701 45.1635 281.197 45.4826 281.164C53.2577 280.509 60.9824 280.677 68.7575 281.281C69.0766 281.298 69.0766 281.802 68.7575 281.785Z" fill="#E8E8E8"/>
<path d="M47.7329 284.438C43.5514 284.808 39.4036 283.766 35.239 283.498C30.9568 283.229 26.6578 283.498 22.426 284.253C22.1069 284.304 21.9726 283.817 22.2916 283.766C26.4563 283.028 30.6881 282.742 34.9199 282.977C39.1853 283.212 43.4507 284.321 47.7329 283.934C48.0519 283.901 48.0519 284.405 47.7329 284.438Z" fill="#E8E8E8"/>
<path d="M45.1133 281.046C46.8597 279.703 48.4886 278.191 49.9328 276.529C50.2519 276.159 50.5542 275.79 50.8564 275.42C51.0747 275.152 51.3098 274.866 51.461 274.564C51.6625 274.161 51.5785 273.875 51.5785 273.422C51.5785 272.633 52.0319 272.666 52.5525 272.129C53.3418 271.306 53.4593 270.114 53.6944 269.056C53.9127 268.065 54.3158 267.192 54.7692 266.302C55.8271 264.169 56.3141 261.734 56.9523 259.45C57.0026 259.551 57.0698 259.652 57.1202 259.753C54.9035 259.45 52.5021 261.113 50.7389 262.322C49.8321 262.943 48.9756 263.615 48.1528 264.337C47.3299 265.076 46.0704 266.117 46.5239 267.36C46.591 267.528 46.4231 267.679 46.2888 267.679C44.9117 267.729 43.8706 269.106 43.1317 270.131C42.4096 271.105 41.8218 272.179 41.3852 273.304C40.512 275.572 40.2433 278.04 40.6295 280.441C40.6799 280.761 40.1929 280.895 40.1426 280.576C39.7059 277.889 40.0418 275.135 41.1333 272.616C41.6707 271.39 42.376 270.231 43.2324 269.19C44.0217 268.233 44.9789 267.209 46.3056 267.158C46.2216 267.259 46.1376 267.377 46.0705 267.477C45.6842 266.436 46.2888 265.479 46.9941 264.74C47.9009 263.783 48.9588 262.96 50.0336 262.204C52.0151 260.794 54.7188 258.896 57.2881 259.266C57.4225 259.282 57.4896 259.45 57.456 259.568C56.8011 261.902 56.3141 264.354 55.2226 266.537C54.6684 267.662 54.299 268.72 54.0303 269.946C53.8456 270.853 53.5769 271.793 52.9052 272.482C52.6197 272.784 52.1159 272.952 52.0655 273.388C52.0319 273.791 52.1663 274.077 52.0151 274.514C51.6961 275.404 50.8732 276.21 50.2687 276.898C48.7909 278.594 47.1284 280.122 45.3483 281.499C45.1132 281.667 44.8614 281.231 45.1133 281.046Z" fill="#E8E8E8"/>
<path d="M42.2416 269.979C41.6538 267.813 39.9074 265.932 38.5304 264.219C38.1609 263.766 37.8083 263.329 37.4388 262.893C37.1365 262.523 36.7503 261.835 36.2297 261.751C36.0114 261.717 35.9107 261.852 35.6756 261.701C35.4237 261.549 35.3229 261.247 35.1886 261.012C34.181 259.182 32.5689 257.855 30.8728 256.663C29.5462 255.722 28.2363 254.782 27.5814 253.237C27.7493 253.187 27.9005 253.153 28.0684 253.103C28.7569 255.655 28.7569 258.191 28.3203 260.794C27.8669 263.497 27.7661 266.117 28.505 268.804C29.9156 273.926 33.7948 277.368 37.7411 280.626C37.993 280.828 37.6403 281.18 37.3884 280.979C33.5261 277.788 29.7141 274.413 28.1859 269.476C27.4638 267.125 27.2623 264.639 27.5982 262.204C27.7997 260.76 28.1188 259.35 28.1691 257.872C28.2195 256.293 28.018 254.732 27.5982 253.22C27.5142 252.901 27.9676 252.8 28.0852 253.086C28.8576 254.933 30.7553 255.873 32.2666 257.032C33.0391 257.62 33.7612 258.275 34.4161 258.997C34.7016 259.316 34.9703 259.669 35.2054 260.021C35.3901 260.307 35.6756 261.079 35.9778 261.18C36.1794 261.247 36.3977 261.13 36.6328 261.23C36.9686 261.365 37.1869 261.768 37.4052 262.02C38.1441 262.91 38.883 263.783 39.5883 264.69C40.8142 266.235 42.208 267.88 42.7454 269.812C42.8125 270.164 42.3255 270.299 42.2416 269.979Z" fill="#E8E8E8"/>
<path d="M55.038 262.339C53.5266 263.413 52.3847 264.858 51.2596 266.319C50.0673 267.83 48.8918 269.358 47.7834 270.937C45.6507 273.959 43.7867 277.2 42.7959 280.794C42.712 281.113 42.225 280.979 42.3089 280.66C43.3333 276.932 45.2813 273.573 47.5148 270.45C48.6063 268.921 49.7482 267.444 50.9069 265.966C52.0656 264.471 53.2411 263.01 54.8029 261.919C55.0548 261.717 55.3067 262.154 55.038 262.339Z" fill="#E8E8E8"/>
<path d="M29.8483 257.452C32.5184 264.471 38.6814 269.711 40.4446 277.133C40.5118 277.452 40.0416 277.587 39.9576 277.268C38.2112 269.845 32.0314 264.606 29.3613 257.586C29.2438 257.284 29.7308 257.15 29.8483 257.452Z" fill="#E8E8E8"/>
<path d="M33.9795 258.644C33.7276 260.978 33.8788 263.296 34.4329 265.563C34.5169 265.882 34.0299 266.016 33.946 265.697C33.3918 263.38 33.2238 261.012 33.4757 258.644C33.5093 258.325 34.0131 258.325 33.9795 258.644Z" fill="#E8E8E8"/>
<path d="M32.4514 263.397C30.8728 262.406 29.3783 261.297 27.9677 260.072C27.7158 259.853 28.0852 259.501 28.3203 259.719C29.6973 260.911 31.1583 262.003 32.7033 262.96C32.9888 263.145 32.7369 263.581 32.4514 263.397Z" fill="#E8E8E8"/>
<path d="M54.8531 266.755C53.6944 266.722 52.0654 266.386 51.0075 266.94C50.722 267.091 50.4701 266.654 50.7556 266.503C51.9479 265.865 53.56 266.201 54.8531 266.251C55.1889 266.268 55.1889 266.772 54.8531 266.755Z" fill="#E8E8E8"/>
<path d="M48.5054 264.203C48.7069 265.832 48.6733 267.427 48.4382 269.056C48.3878 269.375 47.9008 269.241 47.9512 268.922C48.1863 267.343 48.1863 265.781 48.0016 264.203C47.9512 263.884 48.455 263.884 48.5054 264.203Z" fill="#E8E8E8"/>
<path d="M58.833 287.075C56.1125 287.226 53.4256 286.621 50.7052 286.672C48.1023 286.722 45.5666 287.41 42.9637 286.991C42.6446 286.94 42.779 286.453 43.098 286.504C45.7513 286.94 48.371 286.168 51.0243 286.168C53.6272 286.168 56.2133 286.722 58.833 286.571C59.152 286.537 59.152 287.041 58.833 287.075Z" fill="#E8E8E8"/>
<path d="M27.363 280.76C25.4151 280.492 23.4503 280.408 21.4855 280.492C19.5543 280.576 17.64 280.811 15.692 280.643C13.7944 280.492 11.9136 280.189 9.99918 280.206C8.06799 280.223 6.15361 280.441 4.23922 280.693C3.92016 280.727 3.92016 280.223 4.23922 280.19C6.15361 279.954 8.06799 279.719 9.99918 279.703C12.0143 279.686 13.9959 280.022 16.011 280.156C17.9422 280.29 19.8566 280.038 21.7878 279.971C23.7022 279.904 25.5998 280.022 27.4806 280.273C27.8165 280.324 27.6821 280.811 27.363 280.76Z" fill="#E8E8E8"/>
<path d="M201.606 283.985C196.4 284.707 191.245 283.548 186.056 283.195C183.302 283.011 180.598 283.212 177.844 283.464C175.09 283.716 172.336 283.834 169.565 283.85C166.408 283.867 163.234 283.783 160.077 283.682C159.758 283.666 159.758 283.162 160.077 283.179C163.621 283.279 167.181 283.38 170.724 283.33C174.2 283.279 177.626 282.893 181.085 282.675C187.903 282.221 194.671 284.438 201.472 283.498C201.791 283.464 201.925 283.934 201.606 283.985Z" fill="#E8E8E8"/>
<path d="M172.202 286.823C170.237 286.823 168.289 286.353 166.341 286.201C164.36 286.05 162.378 286.017 160.396 286.101C160.077 286.117 160.077 285.614 160.396 285.597C162.378 285.513 164.36 285.53 166.341 285.698C168.289 285.849 170.254 286.319 172.202 286.319C172.521 286.319 172.521 286.823 172.202 286.823Z" fill="#E8E8E8"/>
<path d="M155.977 261.813C155.211 265.839 154.47 269.89 153.705 273.916C166.45 278.535 172.649 281.721 172.254 283.5C171.785 285.649 161.781 285.723 142.219 283.747C143.059 275.349 143.899 266.951 144.739 258.528C148.493 259.64 152.247 260.727 155.977 261.813Z" fill="#161616" stroke="#161616" stroke-miterlimit="10"/>
<path d="M96.327 211.352C101.662 213.55 103.91 213.006 110.653 214.859C123.077 218.268 132.068 224.64 137.675 229.457C137.403 238.645 137.131 247.833 136.859 257.022C137.428 257.688 143.652 264.753 153.087 263.789C159.583 263.122 163.634 259.022 164.721 257.837C164.894 249.365 164.746 240.325 164.177 230.815C163.832 225.307 163.387 219.972 162.819 214.859C161.979 213.673 160.695 211.969 159.04 209.993C146.048 194.531 130.487 187.664 122.015 184.058C113.567 180.452 108.282 178.204 100.402 177.562C98.303 177.389 77.3082 175.907 73.9243 184.33C70.7874 192.012 83.162 205.942 96.327 211.352Z" fill="#3C2FC0" stroke="#161616" stroke-miterlimit="10"/>
<path opacity="0.16" d="M75.2829 181.736C79.9758 178.501 90.325 192.283 110.925 205.275C130.734 217.749 141.108 217.551 147.085 229.679C148.913 233.359 150.815 239.188 151.976 245.116C153.408 252.576 153.408 258.948 153.087 263.468C151.482 263.394 149.58 263.172 147.53 262.628C142.565 261.319 139.033 258.825 136.958 257.071C137.23 247.71 137.526 238.348 137.798 229.012C134.34 226.196 128.832 222.17 121.397 218.737C107.491 212.29 102.28 215.057 90.8191 208.462C88.1762 206.955 73.2328 198.335 73.5786 187.072C73.6774 185.269 73.7021 182.823 75.2829 181.736Z" fill="#3D3D3D"/>
<path opacity="0.25" d="M73.356 186.182C74.3934 185.343 78.4195 190.974 88.0771 197.865C100.081 206.412 105.861 206.313 119.075 214.266C123.842 217.131 130.734 221.725 138.366 228.716C136.884 228.073 134.488 226.987 131.697 225.381C126.016 222.071 124.633 220.046 120.31 217.872C118.754 217.107 115.84 216.316 110.035 214.81C99.8836 212.167 98.4263 212.29 94.7461 210.635C89.8802 208.462 86.6939 205.72 85.0144 204.238C76.9622 197.174 72.047 187.22 73.356 186.182Z" fill="#3D3D3D"/>
<path opacity="0.2" d="M138.095 228.987C141.256 240.374 144.393 251.785 147.555 263.172C146.147 262.801 144.418 262.209 142.541 261.221C139.848 259.788 137.946 258.084 136.711 256.775C137.181 247.512 137.625 238.25 138.095 228.987Z" fill="#3D3D3D"/>
<path d="M75.6285 300.395C74.8628 304.421 74.1218 308.471 73.3561 312.497C84.8909 318.302 90.3743 321.908 89.8803 323.316C89.2628 325.02 79.9509 323.538 61.9694 318.895C62.7845 311.633 63.5749 304.371 64.39 297.109C68.1444 298.221 71.8741 299.308 75.6285 300.395Z" fill="#161616" stroke="#161616" stroke-miterlimit="10"/>
<path d="M65.7484 174.87C64.884 181.539 63.7724 191.592 63.229 203.868C62.414 222.812 63.5996 233.359 63.7972 247.364C63.9701 259.64 63.4019 277.251 59.8946 298.962C61.7965 300.222 66.0942 302.716 72.1704 303.136C77.9502 303.531 82.3714 301.852 84.4462 300.913C84.9896 290.391 85.9529 279.202 87.509 267.445C90.3742 245.783 94.6966 226.27 99.4884 209.178C102.452 205.078 105.441 201.002 108.405 196.902C97.6112 189.27 86.8421 181.662 76.0483 174.03C72.6397 174.327 69.2064 174.598 65.7484 174.87Z" fill="#3C2FC0" stroke="#161616" stroke-miterlimit="10"/>
<path d="M104.33 199.026C105.095 197.964 105.836 196.877 106.602 195.815C106.824 196.655 107.047 197.495 107.269 198.359C103.613 196.087 100.032 193.691 96.5985 191.073C93.7333 188.899 91.0658 186.504 88.1759 184.379C86.3481 183.021 84.4709 181.736 82.5937 180.452C80.7906 179.242 78.9628 177.71 76.9869 176.747C75.9248 176.228 74.6651 176.303 73.5289 176.303C71.3553 176.303 69.2064 176.377 67.0575 176.5C64.6863 176.624 64.6863 172.919 67.0575 172.795C69.2064 172.696 71.38 172.598 73.5289 172.598C74.9121 172.598 76.3447 172.598 77.6537 173.017C79.7038 173.684 81.5563 175.29 83.31 176.5C85.3354 177.859 87.3361 179.217 89.3121 180.65C92.3748 182.873 95.1906 185.367 98.1793 187.664C101.687 190.357 105.367 192.827 109.121 195.148C109.912 195.642 110.381 196.853 109.788 197.693C109.023 198.755 108.282 199.841 107.516 200.904C106.157 202.83 102.946 200.978 104.33 199.026Z" fill="#3C2FC0"/>
<path opacity="0.14" d="M90.3 177.834C86.5457 188.924 83.063 201.274 80.2966 214.785C73.4054 248.599 73.2819 278.683 75.2825 302.321C74.097 302.741 72.5903 303.111 70.8366 303.161C65.2791 303.309 61.2777 300.098 59.9933 298.987C61.0801 293.528 62.488 285.352 63.3278 275.374C65.1556 253.761 62.8585 241.51 62.488 223.133C62.2657 211.969 62.6856 196.112 65.8225 176.722C73.9981 177.093 82.1491 177.463 90.3 177.834Z" fill="#3D3D3D"/>
<path opacity="0.2" d="M65.0073 188.134C65.6989 212.463 66.8845 237.484 68.6135 263.172C69.5027 276.436 70.5401 289.502 71.6763 302.346C70.5401 302.543 68.5147 302.741 66.1188 302.074C63.0066 301.185 61.08 299.332 60.2896 298.468C63.056 282.413 63.7476 269.396 63.8958 260.677C64.1675 244.178 62.6114 235.755 63.056 216.489C63.3524 204.238 64.291 194.309 65.0073 188.134Z" fill="#3D3D3D"/>
<path d="M166.029 87.7784C165.708 87.0374 168.87 85.506 168.548 84.6415C168.227 83.7523 164.3 83.53 161.657 85.4813C158.891 87.5067 159.064 90.4706 157.483 94.2744C155.68 98.5475 152.839 100.869 148.517 104.426C145.923 106.575 135.796 114.627 121.199 114.182C114.579 113.985 109.047 112.083 104.946 110.082C105.514 117.171 106.107 124.285 106.675 131.374C110.035 132.139 114.653 132.806 120.063 132.337C139.724 130.633 152.345 115.467 156.248 110.799C158.619 107.958 161.855 103.586 164.819 97.6336C167.141 98.3252 170.747 99.1156 175.069 98.671C178.132 98.3746 181.788 97.436 181.763 96.5715C181.738 95.4353 175.44 94.6696 175.489 94.2744C175.538 93.9286 180.503 95.2871 181.763 93.4346C182.751 91.9773 181.368 88.6923 179.046 87.3585C178.33 86.9633 177.514 86.7163 175.489 86.741C170.006 86.741 166.325 88.4453 166.029 87.7784Z" fill="white" stroke="#161616" stroke-miterlimit="10"/>
<path d="M181.838 92.0267C180.578 91.7303 179.121 92.3478 177.836 92.3972C176.7 92.4466 175.564 92.3478 174.453 92.1255C173.983 92.0267 174.181 91.3104 174.65 91.4092C176.058 91.6809 177.466 91.755 178.898 91.5574C179.985 91.4092 180.949 91.0635 182.035 91.3104C182.505 91.4092 182.307 92.1255 181.838 92.0267Z" fill="#161616"/>
<path d="M180.8 89.5814C179.318 89.285 178.009 89.9025 176.576 89.9766C175.317 90.0507 174.057 89.8037 172.822 89.4826C172.353 89.3591 172.55 88.6428 173.02 88.7663C174.625 89.1862 176.181 89.3838 177.836 89.038C178.948 88.8157 179.886 88.6181 181.022 88.8404C181.467 88.9639 181.269 89.6802 180.8 89.5814Z" fill="#161616"/>
<path d="M167.141 90.3225C165.882 91.6563 164.177 92.3478 162.35 92.2984C161.88 92.2737 161.88 91.5328 162.35 91.5575C164.005 91.6316 165.487 91.0141 166.598 89.8038C166.944 89.458 167.463 89.9767 167.141 90.3225Z" fill="#161616"/>
<path opacity="0.18" d="M181.764 93.237C181.69 92.5701 176.305 92.3972 171.365 93.1135C168.697 93.484 166.104 93.8545 163.659 95.0154C158.323 97.5101 156.57 102.277 153.803 106.649C153.803 106.649 147.604 116.356 136.514 121.79C125.497 127.175 112.925 123.568 105.836 120.703C106.108 124.26 106.38 127.817 106.651 131.374C113.197 132.707 118.433 132.386 121.792 131.917C140.49 129.274 152.223 114.899 156.891 109.193C160.67 104.574 163.189 100.326 164.721 97.436C167.166 98.3252 170.797 99.2391 175.119 98.7945C178.108 98.4734 181.64 97.4854 181.615 96.6209C181.566 95.5094 175.613 94.8425 175.663 94.5955C175.687 94.472 177.367 94.8425 179.442 94.3238C180.257 94.1262 181.788 93.6075 181.764 93.237Z" fill="#3D3D3D"/>
<path opacity="0.24" d="M125.671 127.693C116.853 127.817 110.036 124.359 106.479 122.16C106.602 125.322 106.75 128.459 106.874 131.621C111.765 132.436 120.335 133.127 130.117 129.99C147.826 124.334 156.521 110.255 158.768 106.328C158.052 107.612 146.418 127.422 125.671 127.693Z" fill="#3D3D3D"/>
<path opacity="0.19" d="M173.366 97.2878C168.08 97.3125 164.523 96.5221 164.449 96.8926C164.4 97.189 166.598 98.0782 168.92 98.5228C175.663 99.8072 181.838 97.0161 181.763 96.6209C181.689 96.3492 178.923 97.2631 173.366 97.2878Z" fill="#3D3D3D"/>
<path d="M97.488 108.329C98.3031 108.378 101.045 108.501 104.552 109.366C106.553 109.86 108.134 110.428 109.048 110.798C110.702 114.158 112.827 119.345 113.617 125.915C114.753 135.276 112.481 141.303 110.925 150.615C109.863 157.012 108.998 166.274 110.184 177.982C107.664 180.279 101.094 185.639 91.1155 187.022C76.9872 188.998 66.6132 181.539 64.4644 179.933C63.1553 171.832 61.9203 163.508 60.8088 154.986C58.9069 140.562 57.4743 126.606 56.4122 113.194C63.2541 106.748 69.182 105.019 73.3563 104.673C81.3838 103.981 88.6455 107.835 97.488 108.329Z" fill="#FFA061"/>
<path opacity="0.17" d="M86.398 114.553C84.8666 116.134 82.7671 118.529 80.8899 121.79C71.8745 137.45 77.4567 155.727 79.9513 163.829C81.6803 169.51 84.9654 177.834 91.4368 186.825C88.9668 187.244 85.8546 187.491 82.2978 187.146C73.8505 186.306 67.7249 182.477 64.6621 180.205C62.3404 167.015 60.3644 152.986 58.833 138.166C57.9438 129.472 57.2769 120.999 56.7829 112.824C57.7462 111.885 59.2282 110.626 61.2042 109.366C64.3904 107.316 69.4045 104.129 75.0608 105.117C82.2731 106.352 85.9287 113.565 86.398 114.553Z" fill="#3D3D3D"/>
<path opacity="0.11" d="M57.8942 118.48C59.1539 122.012 61.1052 127.644 63.0811 134.708C68.9597 155.431 68.5398 164.323 75.6781 175.018C77.8516 178.278 81.5072 182.897 87.6575 187.467C84.6194 187.442 80.2228 187.071 75.2088 185.417C70.664 183.91 67.1813 181.884 64.8101 180.23C62.8835 169.905 61.1793 158.765 59.9196 146.835C58.9069 136.906 58.24 127.421 57.8942 118.48Z" fill="#3D3D3D"/>
<path d="M69.3549 166.027C69.8736 165.064 69.3302 163.631 68.5151 162.866C67.0084 161.433 64.2668 161.977 63.0318 163.533C62.8589 163.755 62.0191 164.792 62.3649 165.682C63.1059 167.485 68.2928 167.954 69.3549 166.027Z" fill="white" stroke="#161616" stroke-miterlimit="10"/>
<path d="M62.3897 108.995C58.7094 111.539 54.1646 115.244 49.7927 120.431C45.0257 126.063 41.9135 131.744 39.8387 136.511C38.085 140.586 37.0229 144.217 36.356 146.959C38.5543 152.022 42.6792 159.482 50.2867 166.027C53.0284 168.398 55.7454 170.226 58.2401 171.659C59.5492 173.116 61.3769 174.969 63.7975 176.871C65.3783 178.13 67.5272 179.81 68.0212 179.39C68.4164 179.044 67.7248 177.34 66.6627 176.154C65.403 174.771 63.8469 174.351 63.8716 174.277C63.8963 174.203 65.2795 174.45 66.5639 175.438C68.0459 176.599 67.9718 177.686 68.7128 177.859C70.2689 178.229 73.8504 174.475 73.307 170.671C72.8624 167.485 69.7255 165.78 68.6634 165.188C65.7488 163.582 62.9083 163.878 61.8709 164.027C58.166 158.272 54.461 152.541 50.756 146.786C51.7687 145.971 53.1025 144.81 54.5598 143.303C56.2641 141.55 61.0558 136.56 63.3529 129.719C66.4404 120.53 63.5999 112.058 62.3897 108.995Z" fill="white" stroke="#161616" stroke-miterlimit="10"/>
<path d="M72.7138 173.808C71.7999 171.782 70.2438 170.202 68.2184 169.312C67.7738 169.115 68.169 168.473 68.5889 168.67C70.7131 169.609 72.4174 171.313 73.356 173.437C73.5536 173.857 72.9114 174.228 72.7138 173.808Z" fill="#161616"/>
<path d="M69.9966 177.241C70.7623 174.919 68.5146 172.523 66.6621 171.461C66.2422 171.214 66.6127 170.572 67.0326 170.819C69.1815 172.054 71.6021 174.771 70.7129 177.439C70.5647 177.883 69.8484 177.686 69.9966 177.241Z" fill="#161616"/>
<path opacity="0.18" d="M63.5254 113.071C60.5615 116.134 56.3872 120.703 51.9165 126.705C45.6428 135.078 42.5306 139.277 42.3083 143.699C41.9131 151.899 48.0633 162.149 56.1649 166.052C58.5114 167.188 64.6122 169.485 68.1196 173.981C69.1323 175.265 70.1697 177.043 69.7992 177.439C69.4781 177.76 68.2925 176.92 67.8973 177.315C67.428 177.784 68.5642 179.217 68.2431 179.538C67.8479 179.933 65.6496 178.525 63.4266 176.747C61.994 175.586 60.2404 174.005 58.3879 171.931C56.0414 170.597 53.5467 168.917 51.0026 166.793C42.9258 160.05 38.5786 152.171 36.2568 146.786C36.8249 144.613 37.6894 141.673 39.0479 138.289C43.1481 128.088 48.6314 121.494 50.4345 119.419C53.028 116.405 56.9306 112.478 62.3893 108.699C62.7845 110.156 63.1549 111.614 63.5254 113.071Z" fill="#3D3D3D"/>
<path opacity="0.21" d="M39.8386 150.392C42.2098 153.455 43.4201 155.406 44.4081 156.864C46.2853 159.581 49.0764 162.174 54.6832 167.361C56.6839 169.214 59.4009 171.684 62.7354 174.524C66.2427 177.562 67.947 179.118 67.8729 179.217C67.7741 179.341 64.3903 176.772 57.6966 171.511C56.4369 170.77 54.6585 169.683 52.6578 168.152C41.1477 159.334 35.9855 146.663 36.4548 146.366C36.6524 146.267 37.7144 147.626 39.8386 150.392Z" fill="#3D3D3D"/>
<path d="M102.65 67.8208C109.912 73.7735 109.616 85.8517 106.775 93.6568C104.972 98.5968 102.082 101.981 100.18 103.858C100.576 106.723 100.971 109.588 101.366 112.453C99.2666 113.417 96.2532 114.429 92.5729 114.602C82.94 115.072 76.0487 109.44 74.1716 107.81C75.8758 102.104 77.5801 96.3985 79.2844 90.6681C79.5067 89.0627 79.8772 86.5927 80.2724 83.5793C81.3345 75.7248 81.2851 75.3049 81.7544 74.0205C81.952 73.5018 84.916 65.9683 91.8072 64.6345C97.3647 63.5971 101.959 67.2527 102.65 67.8208Z" fill="white" stroke="#161616" stroke-miterlimit="10"/>
<path d="M108.628 87.9264C109.048 89.5813 109.492 92.1748 109.196 95.287C108.998 97.3618 108.652 100.968 106.059 104.451C103.268 108.205 99.5134 109.638 97.9079 110.156C98.0314 109.736 98.1796 109.218 98.2537 108.6C98.3278 107.958 98.3031 107.365 98.2537 106.921C96.5494 107.859 94.8205 108.773 93.1162 109.712C88.7937 105.735 87.3611 102.079 86.8671 99.4366C86.4719 97.3618 86.2249 93.558 85.311 86.5927C85.1381 85.3577 84.817 83.1347 83.4092 82.5666C82.7423 82.2949 81.8531 82.4184 81.285 82.9124C79.5807 84.345 81.3097 88.4945 80.9392 88.618C80.5687 88.7415 77.58 84.5673 78.5927 79.8002C79.1114 77.3302 80.544 75.6259 81.3838 74.7861C83.261 77.7501 85.3357 80.8129 87.6328 83.9498C89.0901 85.9505 90.5474 87.8276 91.98 89.6554C92.5234 89.9518 93.3385 90.2729 94.2771 90.1988C95.0181 90.1247 95.265 89.8777 95.8084 89.7295C97.8338 89.1614 98.9206 91.5573 100.921 91.2362C102.551 90.9645 102.7 89.2108 104.503 89.1614C105.367 89.1367 105.713 89.5319 106.602 89.359C107.541 89.0873 108.208 88.4451 108.628 87.9264Z" fill="#161616" stroke="#161616" stroke-miterlimit="10"/>
<path d="M100.23 80.9117C100.847 83.7769 101.243 86.6668 101.415 89.5814C101.44 89.8778 101.094 90.026 100.847 89.9025C99.8347 89.3838 98.7973 88.8404 97.7846 88.3217C97.3647 88.0994 97.7352 87.4572 98.1551 87.6795C99.1678 88.1982 100.205 88.7416 101.218 89.2603C101.02 89.3591 100.847 89.4826 100.65 89.5814C100.477 86.7162 100.106 83.9004 99.4889 81.1093C99.4148 80.64 100.131 80.4424 100.23 80.9117Z" fill="#161616"/>
<path d="M104.182 83.8757C103.868 83.8757 103.614 83.2343 103.614 82.4431C103.614 81.6519 103.868 81.0105 104.182 81.0105C104.496 81.0105 104.75 81.6519 104.75 82.4431C104.75 83.2343 104.496 83.8757 104.182 83.8757Z" fill="#161616" stroke="#161616" stroke-miterlimit="10"/>
<path d="M94.5981 83.8757C94.1752 83.8757 93.8324 83.2343 93.8324 82.4431C93.8324 81.6519 94.1752 81.0105 94.5981 81.0105C95.021 81.0105 95.3638 81.6519 95.3638 82.4431C95.3638 83.2343 95.021 83.8757 94.5981 83.8757Z" fill="#161616" stroke="#161616" stroke-miterlimit="10"/>
<path d="M105.565 79.6521C105.096 78.7876 104.058 78.9852 103.293 79.2569C102.848 79.4051 102.65 78.6888 103.095 78.5406C104.182 78.1454 105.565 78.1207 106.207 79.2816C106.429 79.6768 105.787 80.072 105.565 79.6521Z" fill="#161616"/>
<path d="M96.2281 78.6394C95.0672 77.5279 93.2888 77.6267 92.3008 78.9605C92.0291 79.331 91.3869 78.9605 91.6586 78.59C92.9183 76.8857 95.1907 76.6634 96.7468 78.1207C97.0926 78.4418 96.5739 78.9605 96.2281 78.6394Z" fill="#161616"/>
<path d="M114.358 75.1073C103.959 75.7248 93.5854 76.5893 83.2608 77.7255C81.853 77.8737 81.853 75.6507 83.2608 75.5025C93.6101 74.3663 103.984 73.5018 114.358 72.8843C115.791 72.8102 115.791 75.0332 114.358 75.1073Z" fill="#161616"/>
<path d="M107.639 73.5759C107.467 71.9704 106.824 67.8455 103.663 64.4864C99.5379 60.1145 91.9056 58.2867 85.9776 61.9917C81.3341 64.9062 78.8394 70.5378 79.6792 76.2682C88.991 75.379 98.3029 74.4898 107.639 73.5759Z" fill="#3F56FF"/>
<path opacity="0.69" d="M94.4995 60.8554C95.7098 61.8681 95.7098 64.017 95.2899 66.2894C94.8206 68.7841 93.6103 71.8222 91.8072 74.959C87.7564 75.4283 83.7056 75.9223 79.6549 76.3916C79.482 75.5024 79.3091 74.218 79.4573 72.6866C79.4573 72.6866 79.7289 69.8709 81.2109 67.3268C84.1749 62.2386 91.9307 58.6818 94.4995 60.8554Z" fill="#3A1DA3"/>
<path opacity="0.24" d="M81.8035 89.8531C82.7174 90.3471 83.6313 90.2236 83.9524 90.1495C83.162 91.6562 80.7167 96.7443 81.9023 103.314C83.0385 109.564 86.7434 113.343 88.0278 114.553C86.4223 114.232 84.5946 113.713 82.6186 112.923C78.8642 111.391 76.0484 109.366 74.1465 107.711C76.1225 100.77 78.0985 93.8297 80.0745 86.8891C80.0745 87.0126 80.1733 88.9886 81.8035 89.8531Z" fill="#3D3D3D"/>
<path opacity="0.19" d="M90.9425 76.9104C90.6461 78.1701 90.3991 80.072 90.6955 82.295C91.2141 86.0493 93.0172 88.6428 93.9558 89.8531C93.3877 89.6802 92.8196 89.4826 92.2515 89.3097C91.1153 87.9265 89.9545 86.4445 88.8183 84.9378C86.9411 82.4432 85.2121 79.9732 83.6313 77.602C86.0766 77.3797 88.4972 77.1327 90.9425 76.9104Z" fill="#3D3D3D"/>
</g>
<defs>
<filter id="filter0_d" x="0" y="0" width="458" height="332.5" filterUnits="userSpaceOnUse" color-interpolation-filters="sRGB">
<feFlood flood-opacity="0" result="BackgroundImageFix"/>
<feColorMatrix in="SourceAlpha" type="matrix" values="0 0 0 0 0 0 0 0 0 0 0 0 0 0 0 0 0 0 127 0"/>
<feOffset dy="4"/>
<feGaussianBlur stdDeviation="2"/>
<feColorMatrix type="matrix" values="0 0 0 0 0 0 0 0 0 0 0 0 0 0 0 0 0 0 0.25 0"/>
<feBlend mode="normal" in2="BackgroundImageFix" result="effect1_dropShadow"/>
<feBlend mode="normal" in="SourceGraphic" in2="effect1_dropShadow" result="shape"/>
</filter>
</defs>
</svg>
