<svg width="504" height="748" viewBox="0 0 504 748" fill="none" xmlns="http://www.w3.org/2000/svg">
<path opacity="0.3" d="M659 -26C613.531 -26 584.2 -8.4892 584.2 55.3847V157.496C584.2 206.564 554.93 226.918 513.548 226.556H387.025C344.354 226.556 299 255.734 299 300.596V441.169C302.361 482.499 315.567 513.064 387.025 516.212C440.066 516.212 475.05 539.465 475.05 600.768V659.957C475.05 706.463 507.777 735 564.204 735H611.602" stroke="#C0DAF2" stroke-width="26"/>
<path d="M0 230H120.008C172.405 230 219.322 239 219.322 294V336C219.322 376 252.007 406 293.007 406H607.615C647.878 406 676.007 448.5 676.007 485.5V555" stroke="#6275FF" stroke-width="26"/>
<path d="M55.8414 225.714L60.6675 230L55.8414 234.286L56.8066 236L63.5631 230L56.8066 224L55.8414 225.714Z" fill="white"/>
<path d="M47.2372 225.714L52.0633 230L47.2372 234.286L48.2025 236L54.959 230L48.2025 224L47.2372 225.714Z" fill="white"/>
<path d="M449.807 410.286L454.182 406L449.807 401.714L450.682 400L456.807 406L450.682 412L449.807 410.286Z" fill="white"/>
<path d="M442.008 410.286L446.383 406L442.008 401.714L442.883 400L449.008 406L442.883 412L442.008 410.286Z" fill="white"/>
<circle cx="240.008" cy="384" r="4" fill="white"/>
<circle cx="198.008" cy="248" r="4" fill="white"/>
<path d="M214.722 319.8L219.008 324.175L223.293 319.8L225.008 320.675L219.008 326.8L213.008 320.675L214.722 319.8Z" fill="white"/>
<path d="M214.722 312L219.008 316.375L223.293 312L225.008 312.875L219.008 319L213.008 312.875L214.722 312Z" fill="white"/>
</svg>
