<svg width="504" height="442" viewBox="0 0 504 442" fill="none" xmlns="http://www.w3.org/2000/svg">
<path opacity="0.3" d="M-38 429C2.29084 429 29.2809 412.433 29.2809 352V139.39C29.2809 92.966 55.2175 73.7084 91.8868 74.0506H204C241.811 74.0506 282 46.4448 282 4V-142" stroke="#C0DAF2" stroke-width="26"/>
<path d="M-176 -98H-112.5C-76.5 -98 -56 -78 -56 -43.5V122.5C-56.0643 157.404 -35 175 -4.5 175H135C166.875 176.151 192 201.5 192 236C192 236 192 245.474 192 265C189.959 300.223 216 327 256 327C296 327 504 327 504 327" stroke="#FFA061" stroke-width="26"/>
<path d="M59.8 179.286L64.175 175L59.8 170.714L60.675 169L66.8 175L60.675 181L59.8 179.286Z" fill="white"/>
<path d="M52 179.286L56.375 175L52 170.714L52.875 169L59 175L52.875 181L52 179.286Z" fill="white"/>
<path d="M345.8 329.286L350.175 325L345.8 320.714L346.675 319L352.8 325L346.675 331L345.8 329.286Z" fill="white"/>
<path d="M338 329.286L342.375 325L338 320.714L338.875 319L345 325L338.875 331L338 329.286Z" fill="white"/>
<circle cx="177" cy="196" r="4" fill="white"/>
<circle cx="205" cy="305" r="4" fill="white"/>
<path d="M186.714 251.8L191 256.175L195.286 251.8L197 252.675L191 258.8L185 252.675L186.714 251.8Z" fill="white"/>
<path d="M186.714 244L191 248.375L195.286 244L197 244.875L191 251L185 244.875L186.714 244Z" fill="white"/>
</svg>
