<svg width="282" height="764" viewBox="0 0 282 764" fill="none" xmlns="http://www.w3.org/2000/svg">
<path opacity="0.3" d="M373 -10C327.531 -10 298.2 7.5108 298.2 71.3847V173.496C298.2 222.564 268.93 242.918 227.548 242.556H101.025C58.3538 242.556 13 271.734 13 316.596L13 457.169C16.3613 498.499 29.5666 529.064 101.025 532.212C154.066 532.212 189.05 555.465 189.05 616.768V675.957C189.05 722.463 221.777 751 278.204 751H325.602" stroke="#C0DAF2" stroke-width="26"/>
<path d="M44.0002 0L44.0002 98C44.0002 145.5 55 168 110 168H162C194 168 220 193.5 220 223V520C220 556.5 244.5 582 281.5 582H304" stroke="#6275FF" stroke-width="26"/>
<path d="M134.8 172.286L139.175 168L134.8 163.714L135.675 162L141.8 168L135.675 174L134.8 172.286Z" fill="white"/>
<path d="M127 172.286L131.375 168L127 163.714L127.875 162L134 168L127.875 174L127 172.286Z" fill="white"/>
<path d="M215.714 372.8L220 377.175L224.286 372.8L226 373.675L220 379.8L214 373.675L215.714 372.8Z" fill="white"/>
<path d="M215.714 365L220 369.375L224.286 365L226 365.875L220 372L214 365.875L215.714 365Z" fill="white"/>
<circle cx="244" cy="571" r="4" fill="white"/>
<circle cx="204" cy="187" r="4" fill="white"/>
<circle cx="59" cy="154" r="4" fill="white"/>
<path d="M39.7143 19.8L44 24.175L48.2857 19.8L50 20.675L44 26.8L38 20.675L39.7143 19.8Z" fill="white"/>
<path d="M39.7143 12L44 16.375L48.2857 12L50 12.875L44 19L38 12.875L39.7143 12Z" fill="white"/>
</svg>
