<svg width="576" height="396" viewBox="0 0 576 396" fill="none" xmlns="http://www.w3.org/2000/svg">
<path opacity="0.3" d="M563 431C563 390.709 546.433 363.719 486 363.719H273.39C226.966 363.719 207.708 337.783 208.051 301.113V189C208.051 151.189 180.445 111 138 111H-8" stroke="#C0DAF2" stroke-width="26"/>
<path d="M-1 13H62.5C98.5 13 119 33 119 67.5V233.5C118.936 268.404 140 286 170.5 286H310C341.875 287.151 367 312.5 367 347V397" stroke="#FFA061" stroke-width="26"/>
<path d="M234.8 290.286L239.175 286L234.8 281.714L235.675 280L241.8 286L235.675 292L234.8 290.286Z" fill="white"/>
<path d="M227 290.286L231.375 286L227 281.714L227.875 280L234 286L227.875 292L227 290.286Z" fill="white"/>
<path d="M16.8 17.2857L21.175 13L16.8 8.71429L17.675 7L23.8 13L17.675 19L16.8 17.2857Z" fill="white"/>
<path d="M9 17.2857L13.375 13L9 8.71429L9.875 7L16 13L9.875 19L9 17.2857Z" fill="white"/>
<circle cx="133" cy="271" r="4" fill="white"/>
<circle cx="352" cy="307" r="4" fill="white"/>
<path d="M115.714 156.8L120 161.175L124.286 156.8L126 157.675L120 163.8L114 157.675L115.714 156.8Z" fill="white"/>
<path d="M115.714 149L120 153.375L124.286 149L126 149.875L120 156L114 149.875L115.714 149Z" fill="white"/>
<circle cx="110" cy="34" r="4" fill="white"/>
</svg>
