<svg width="247" height="162" viewBox="0 0 247 162" fill="none" xmlns="http://www.w3.org/2000/svg">
<path opacity="0.3" d="M241.804 220.909C241.804 200.107 233.251 186.172 202.05 186.172H92.2801C68.3117 186.172 58.3691 172.781 58.5457 153.849V95.9657C58.5457 76.4438 44.293 55.6947 22.379 55.6947H-53" stroke="#C0DAF2" stroke-width="10"/>
<path d="M-49.386 5.09778H-16.6013C1.98533 5.09778 12.5694 15.4237 12.5694 33.2358V118.941C12.5361 136.961 23.4116 146.046 39.1585 146.046H111.182C127.638 146.64 140.61 159.728 140.61 177.54V203.355" stroke="#FFA061" stroke-width="10"/>
<path d="M72.3563 148.259L74.6151 146.046L72.3563 143.834L72.808 142.948L75.9703 146.046L72.808 149.144L72.3563 148.259Z" fill="white"/>
<path d="M68.3292 148.259L70.588 146.046L68.3292 143.834L68.7809 142.948L71.9432 146.046L68.7809 149.144L68.3292 148.259Z" fill="white"/>
<circle cx="19.7975" cy="138.302" r="2.06518" fill="white"/>
<circle cx="132.866" cy="156.888" r="2.06518" fill="white"/>
<path d="M10.8731 79.3409L13.0858 81.5997L15.2985 79.3409L16.1836 79.7927L13.0858 82.955L9.98806 79.7927L10.8731 79.3409Z" fill="white"/>
<path d="M10.8731 75.3138L13.0858 77.5726L15.2985 75.3138L16.1836 75.7656L13.0858 78.9279L9.98806 75.7656L10.8731 75.3138Z" fill="white"/>
<circle cx="7.92272" cy="15.94" r="2.06518" fill="white"/>
</svg>
