<svg width="180" height="95" viewBox="0 0 180 95" fill="none" xmlns="http://www.w3.org/2000/svg">
<path opacity="0.3" d="M307.484 -60C307.484 -43.9871 301.317 -33.6579 278.822 -33.6579H242.862C225.582 -33.6579 218.414 -23.3499 218.541 -8.77633V35.7809C218.541 50.8084 208.266 66.7806 192.467 66.7806H142.961C128.406 65.5968 117.642 60.9464 116.534 35.7809C116.534 17.1017 108.345 4.78131 86.7557 4.78131H65.9113C49.5335 4.78131 39.4835 -6.74419 39.4835 -26.6158V-43.3079" stroke="#C0DAF2" stroke-width="10"/>
<path d="M209.962 89.8633L175.449 89.8633C158.721 89.8633 150.798 85.9896 150.798 66.6203V48.3076C150.798 37.0383 141.817 27.8817 131.428 27.8817L26.8344 27.8817C13.9803 27.8817 4.99998 19.2538 4.99998 6.22348V-1.7004" stroke="#6275FF" stroke-width="10"/>
<path d="M149.288 57.8866L150.798 56.3459L152.307 57.8866L152.911 57.5784L150.798 55.4214L148.685 57.5784L149.288 57.8866Z" fill="white"/>
<path d="M149.288 60.6335L150.798 59.0927L152.307 60.6335L152.911 60.3253L150.798 58.1683L148.685 60.3253L149.288 60.6335Z" fill="white"/>
<path d="M78.6735 29.3911L77.1328 27.8818L78.6735 26.3725L78.3654 25.7688L76.2083 27.8818L78.3654 29.9948L78.6735 29.3911Z" fill="white"/>
<path d="M81.4204 29.3911L79.8797 27.8818L81.4204 26.3725L81.1123 25.7688L78.9552 27.8818L81.1123 29.9948L81.4204 29.3911Z" fill="white"/>
<circle r="1.40867" transform="matrix(0 -1 -1 0 8.8738 19.4298)" fill="white"/>
<circle r="1.40867" transform="matrix(0 -1 -1 0 144.106 33.5165)" fill="white"/>
<circle r="1.40867" transform="matrix(0 -1 -1 0 155.728 84.5809)" fill="white"/>
</svg>
