<svg width="388" height="315" viewBox="0 0 388 315" fill="none" xmlns="http://www.w3.org/2000/svg">
<path d="M8.2383 265.255C21.8605 265.864 35.4828 266.168 49.105 266.141C49.6311 266.141 49.6311 265.311 49.105 265.311C35.4828 265.338 21.8605 265.034 8.2383 264.425C7.71223 264.398 7.71223 265.228 8.2383 265.255Z" fill="#E8E8E8"/>
<path d="M49.9357 244.671C52.0676 252.667 54.0611 260.718 55.8885 268.797C55.9992 269.322 56.8021 269.101 56.6914 268.575C54.8363 260.497 52.8705 252.446 50.7386 244.45C50.6002 243.952 49.7972 244.173 49.9357 244.671Z" fill="#E8E8E8"/>
<path d="M87.037 245.28C86.2618 252.888 85.4865 260.524 84.739 268.133C84.6836 268.658 85.5142 268.658 85.5696 268.133C86.3448 260.524 87.1201 252.888 87.8676 245.28C87.8953 244.754 87.0647 244.754 87.037 245.28Z" fill="#E8E8E8"/>
<path d="M56.11 269.544C60.9553 270.401 65.856 270.789 70.7844 270.65C75.4913 270.512 80.6411 270.152 85.1265 268.658C85.6249 268.492 85.4034 267.69 84.905 267.856C80.4473 269.322 75.4359 269.682 70.7844 269.82C65.9391 269.959 61.0938 269.571 56.3315 268.741C55.8054 268.631 55.5839 269.433 56.11 269.544Z" fill="#E8E8E8"/>
<path d="M50.268 244.948C55.9993 246.553 62.229 246.58 68.1541 246.608C74.5222 246.663 80.8903 246.304 87.2031 245.584C87.7291 245.529 87.7291 244.699 87.2031 244.754C81.0565 245.474 74.8821 245.806 68.7078 245.778C62.6996 245.75 56.3315 245.75 50.4895 244.146C49.9634 244.007 49.7419 244.81 50.268 244.948Z" fill="#E8E8E8"/>
<path d="M47.8868 242.098C47.9422 242.624 47.9976 243.177 48.0529 243.703C48.0806 244.035 48.0806 244.45 48.219 244.754C48.5513 245.474 49.6588 245.225 50.2956 245.225C50.8217 245.225 50.8217 244.395 50.2956 244.395C49.991 244.395 49.6865 244.395 49.3542 244.395C48.9389 244.395 48.9389 244.312 48.9112 243.897C48.8559 243.288 48.8005 242.707 48.7451 242.098C48.6621 241.573 47.8314 241.545 47.8868 242.098Z" fill="#E8E8E8"/>
<path d="M48.4406 242.541C55.3625 243.343 62.312 243.731 69.2893 243.786C72.7225 243.814 76.1558 243.758 79.6167 243.648C81.3334 243.592 83.05 243.509 84.7666 243.426C85.5696 243.399 86.6771 243.122 87.48 243.288C88.4491 243.454 88.3937 244.284 88.5044 245.142C88.5875 244.976 88.6982 244.81 88.7813 244.644C88.4214 244.644 88.0614 244.644 87.7015 244.644C87.1754 244.533 86.9539 245.335 87.48 245.446C88.0337 245.557 88.4491 245.557 88.9751 245.446C89.2243 245.391 89.3074 245.142 89.252 244.948C89.1136 243.98 89.2243 242.762 88.0614 242.513C87.3693 242.347 86.5109 242.541 85.7911 242.569C84.8774 242.624 83.9914 242.652 83.0777 242.707C79.2014 242.873 75.2975 242.984 71.3935 242.984C63.6964 242.984 56.027 242.624 48.3852 241.711C47.9145 241.656 47.9145 242.486 48.4406 242.541Z" fill="#E8E8E8"/>
<path d="M54.4487 262.655C56.6637 265.56 59.2664 268.077 62.2013 270.235C62.6443 270.54 63.0596 269.82 62.6166 269.516C59.7924 267.441 57.2729 265.006 55.1409 262.212C54.8364 261.797 54.1165 262.212 54.4487 262.655Z" fill="#E8E8E8"/>
<path d="M52.5937 254.216C56.913 260.441 62.229 265.892 68.3756 270.346C68.8186 270.65 69.2339 269.931 68.7909 269.627C62.7827 265.255 57.5498 259.888 53.3136 253.801C53.009 253.359 52.2892 253.774 52.5937 254.216Z" fill="#E8E8E8"/>
<path d="M50.9047 246.802C58.3804 255.655 66.6866 263.927 76.5988 270.069C77.0418 270.346 77.4848 269.627 77.0141 269.35C67.1573 263.263 58.9064 255.046 51.4862 246.221C51.1539 245.806 50.5725 246.414 50.9047 246.802Z" fill="#E8E8E8"/>
<path d="M58.8511 246.331C65.9667 254.604 73.8577 262.461 82.6623 268.935C83.1053 269.239 83.5206 268.52 83.0776 268.216C74.3284 261.797 66.4928 253.94 59.4325 245.75C59.0725 245.335 58.4911 245.916 58.8511 246.331Z" fill="#E8E8E8"/>
<path d="M67.9325 246.912C72.7501 252.805 78.2876 258.062 84.4342 262.572C84.8772 262.876 85.2925 262.157 84.8495 261.852C78.7583 257.398 73.2761 252.169 68.5139 246.331C68.1816 245.916 67.6002 246.497 67.9325 246.912Z" fill="#E8E8E8"/>
<path d="M75.3528 246.608C78.4538 250.094 81.9978 253.082 85.9294 255.6C86.3724 255.876 86.7877 255.157 86.3447 254.88C82.4685 252.418 78.9798 249.43 75.9342 246.027C75.5743 245.612 74.9928 246.193 75.3528 246.608Z" fill="#E8E8E8"/>
<path d="M37.0333 201.013C38.833 204.804 40.0512 208.788 40.7434 212.938C40.7711 213.131 40.9649 213.242 41.131 213.242C41.2972 213.242 42.1832 213.214 42.2385 213.491C42.2662 213.602 41.7125 214.238 41.6571 214.376C41.491 214.819 41.491 215.345 41.6571 215.787C41.8786 216.313 42.2939 216.673 42.7923 216.866C42.9584 216.949 43.1522 216.977 43.346 217.005C43.5122 217.032 43.6783 217.032 43.8444 217.005C44.0659 216.977 44.0382 217.005 43.789 217.115C43.5122 217.53 43.1245 217.586 43.0138 218.194C42.9307 218.775 43.2076 219.329 43.4291 219.827C44.3428 221.763 44.8688 223.811 45.6164 225.83C48.1913 232.692 53.1197 238.363 58.6849 243.039C59.1002 243.371 59.6817 242.79 59.2663 242.458C53.535 237.644 48.4405 231.751 46.0317 224.53C45.7272 223.589 45.4503 222.649 45.118 221.736C44.8412 220.933 44.3151 220.103 44.0659 219.301C43.789 218.858 43.8167 218.36 44.1767 217.862C44.2874 217.779 44.3982 217.696 44.5089 217.613C44.592 217.475 44.7581 217.392 44.8412 217.226C44.9519 216.922 44.8688 216.645 44.6473 216.424C44.2874 216.064 43.7337 216.258 43.263 216.119C41.4633 215.594 42.9307 214.376 43.0692 213.491C43.263 212.329 41.8232 212.467 41.048 212.412C41.1864 212.523 41.3248 212.606 41.4356 212.716C40.7434 208.511 39.4698 204.444 37.6424 200.598C37.5317 200.1 36.8118 200.515 37.0333 201.013Z" fill="#E8E8E8"/>
<path d="M37.3378 200.82C46.3362 203.227 54.2271 209.341 59.9585 216.59C66.0497 224.281 69.8429 233.522 71.8918 243.067C72.0025 243.592 72.8055 243.371 72.6947 242.845C70.6181 233.162 66.7419 223.811 60.5676 216.009C54.7532 208.677 46.7238 202.48 37.5869 200.045C37.0332 199.879 36.8117 200.681 37.3378 200.82Z" fill="#E8E8E8"/>
<path d="M40.6049 204.25C51.6245 214.957 60.1246 228.099 65.3575 242.569C65.5514 243.067 66.3543 242.845 66.1605 242.347C60.8722 227.767 52.3167 214.487 41.1864 203.669C40.8264 203.282 40.2173 203.863 40.6049 204.25Z" fill="#E8E8E8"/>
<path d="M45.5056 221.653C47.8314 221.902 50.1017 222.427 52.2614 223.285C54.3656 224.115 56.6637 225.166 57.9927 227.075C58.2972 227.518 59.0171 227.103 58.7126 226.66C57.3836 224.751 55.307 223.672 53.2027 222.787C50.7386 221.736 48.1636 221.099 45.4779 220.823C44.9796 220.767 44.9796 221.597 45.5056 221.653Z" fill="#E8E8E8"/>
<path d="M49.631 206.491C49.6034 209.673 50.1294 212.799 51.1539 215.815C51.32 216.313 52.1229 216.092 51.9568 215.594C50.96 212.661 50.4617 209.618 50.4617 206.491C50.4617 205.966 49.631 205.966 49.631 206.491Z" fill="#E8E8E8"/>
<path d="M64.8315 221.542C66.1882 216.479 70.7012 213.463 74.5498 210.365C78.6475 207.072 82.6069 203.559 86.3724 199.907C86.1509 199.768 85.9017 199.63 85.6802 199.492C84.4342 202.839 84.185 206.353 84.2404 209.894C84.2958 213.436 85.0987 217.503 83.9635 220.933C84.102 220.823 84.2404 220.74 84.3512 220.629C83.4652 220.684 82.5792 220.767 81.6932 220.823C81.4163 220.85 81.1394 221.182 81.3332 221.459C81.97 222.317 82.7176 222.593 82.6899 223.866C82.6899 224.751 82.4684 225.775 82.1639 226.605C81.8593 227.463 81.0564 228.044 80.7795 228.846C80.558 229.565 81.1117 230.174 81.1117 230.893C81.1394 232.083 80.2811 233.079 79.672 234.02C79.0905 234.905 78.5645 235.818 78.0938 236.759C77.1524 238.612 76.4049 240.521 75.8511 242.513C75.7127 243.039 76.5156 243.26 76.654 242.735C77.3462 240.272 78.343 237.893 79.6443 235.68C80.5303 234.186 82.1915 232.443 81.9977 230.561C81.9147 229.814 81.527 229.593 81.8593 228.735C81.887 228.708 82.3854 228.044 82.413 227.988C82.9391 227.131 83.1883 226.162 83.3544 225.194C83.4652 224.475 83.6867 223.589 83.5759 222.87C83.4098 221.846 82.6345 221.763 82.0531 220.989C81.9424 221.21 81.8039 221.404 81.6932 221.625C82.5792 221.57 83.4652 221.487 84.3512 221.431C84.545 221.404 84.6834 221.321 84.7388 221.127C85.7909 217.918 85.1541 214.183 85.0434 210.863C84.9326 207.072 85.071 203.254 86.4277 199.658C86.5939 199.243 86.0124 198.994 85.7355 199.243C81.7209 203.144 77.5124 206.879 73.11 210.365C69.3445 213.353 65.2745 216.396 63.9732 221.265C63.8901 221.846 64.693 222.068 64.8315 221.542Z" fill="#E8E8E8"/>
<path d="M83.299 203.503C80.5856 208.234 77.8169 212.91 75.2143 217.696C72.7778 222.123 70.6181 226.716 69.5937 231.668C69.483 232.194 70.2859 232.415 70.3966 231.889C71.4488 226.826 73.6914 222.178 76.1833 217.669C78.7306 213.048 81.4162 208.511 84.0189 203.918C84.2681 203.476 83.5482 203.033 83.299 203.503Z" fill="#E8E8E8"/>
<path d="M75.1313 211.195C75.4912 212.772 75.6573 214.349 75.602 215.953C75.5743 216.479 76.4049 216.479 76.4326 215.953C76.488 214.266 76.3218 212.633 75.9342 210.973C75.7958 210.448 75.0205 210.669 75.1313 211.195Z" fill="#E8E8E8"/>
<path d="M79.6444 205.91C79.949 207.1 80.0043 208.262 79.8659 209.452C79.8105 209.977 80.6411 209.977 80.6965 209.452C80.8626 208.179 80.7796 206.934 80.4473 205.689C80.3089 205.191 79.506 205.412 79.6444 205.91Z" fill="#E8E8E8"/>
<path d="M79.8382 211.416C81.4717 210.448 83.1607 209.59 84.905 208.871C85.4034 208.677 85.1819 207.875 84.6835 208.068C82.8561 208.815 81.1118 209.701 79.3952 210.697C78.9522 210.973 79.3675 211.693 79.8382 211.416Z" fill="#E8E8E8"/>
<path d="M72.6948 225.305C73.7469 224.419 74.799 223.562 75.8788 222.732C77.014 221.846 78.26 220.657 79.6443 220.103C80.1427 219.91 79.9212 219.107 79.4228 219.301C78.1769 219.771 77.1525 220.684 76.1003 221.514C74.7437 222.566 73.4147 223.617 72.1133 224.724C71.698 225.056 72.2795 225.637 72.6948 225.305Z" fill="#E8E8E8"/>
<path d="M40.6327 209.784C42.5708 209.977 44.5089 210.171 46.4471 210.337C46.9731 210.392 46.9731 209.562 46.4471 209.507C44.5089 209.313 42.5708 209.12 40.6327 208.954C40.1066 208.898 40.1066 209.728 40.6327 209.784Z" fill="#E8E8E8"/>
<path d="M91.4392 264.979C126.132 264.979 160.796 264.979 195.489 264.979C205.263 264.979 215.036 264.979 224.81 264.979C225.336 264.979 225.336 264.149 224.81 264.149C190.117 264.149 155.453 264.149 120.76 264.149C110.987 264.149 101.213 264.149 91.4392 264.149C90.8855 264.149 90.8855 264.979 91.4392 264.979Z" fill="#E8E8E8"/>
<path d="M208.779 197.195C208.779 201.235 208.779 205.274 208.779 209.313C208.779 209.839 209.609 209.839 209.609 209.313C209.609 205.274 209.609 201.235 209.609 197.195C209.609 196.67 208.779 196.67 208.779 197.195Z" fill="#E8E8E8"/>
<path d="M189.674 211.167C203.103 211.167 216.531 211.167 229.96 211.167C230.486 211.167 230.486 210.337 229.96 210.337C216.531 210.337 203.103 210.337 189.674 210.337C189.148 210.337 189.121 211.167 189.674 211.167Z" fill="#E8E8E8"/>
<path d="M198.701 211.388C198.701 214.874 198.701 218.36 198.701 221.874C198.701 222.4 199.531 222.4 199.531 221.874C199.531 218.388 199.531 214.902 199.531 211.388C199.531 210.835 198.701 210.835 198.701 211.388Z" fill="#E8E8E8"/>
<path d="M219.466 211.167C219.466 214.238 219.466 217.337 219.466 220.408C219.466 220.933 220.297 220.933 220.297 220.408C220.297 217.337 220.297 214.238 220.297 211.167C220.297 210.641 219.466 210.641 219.466 211.167Z" fill="#E8E8E8"/>
<path d="M206.315 222.676C216.587 222.676 226.859 222.676 237.131 222.676C237.657 222.676 237.657 221.846 237.131 221.846C226.859 221.846 216.587 221.846 206.315 221.846C205.789 221.846 205.789 222.676 206.315 222.676Z" fill="#E8E8E8"/>
<path d="M183.085 273.002C205.761 273.002 228.437 273.002 251.113 273.002C251.639 273.002 251.639 272.172 251.113 272.172C228.437 272.172 205.761 272.172 183.085 272.172C182.559 272.172 182.559 273.002 183.085 273.002Z" fill="#E8E8E8"/>
<path d="M276.862 265.836C299.123 265.836 321.411 265.836 343.672 265.836C349.93 265.836 356.187 265.836 362.444 265.836C362.97 265.836 362.97 265.006 362.444 265.006C340.184 265.006 317.895 265.006 295.634 265.006C289.377 265.006 283.12 265.006 276.862 265.006C276.336 265.006 276.336 265.836 276.862 265.836Z" fill="#E8E8E8"/>
<path d="M0.845719 280.002C23.6602 280.002 46.5024 280.002 69.3169 280.002C69.8429 280.002 69.8429 279.172 69.3169 279.172C46.5024 279.172 23.6602 279.172 0.845719 279.172C0.319656 279.172 0.319656 280.002 0.845719 280.002Z" fill="#E8E8E8"/>
<path d="M46.8623 288.302C65.496 288.302 84.1297 288.302 102.763 288.302C103.289 288.302 103.289 287.472 102.763 287.472C84.1297 287.472 65.496 287.472 46.8623 287.472C46.3086 287.472 46.3086 288.302 46.8623 288.302Z" fill="#E8E8E8"/>
<path d="M330.133 51.7517C330.133 44.0327 330.133 36.3413 330.133 28.6223C330.133 28.0967 329.302 28.0967 329.302 28.6223C329.302 36.3413 329.302 44.0327 329.302 51.7517C329.302 52.2773 330.133 52.2773 330.133 51.7517Z" fill="#E8E8E8"/>
<path d="M329.995 28.4563C339.99 28.4563 349.985 28.4563 359.98 28.4563C360.506 28.4563 360.506 27.6263 359.98 27.6263C349.985 27.6263 339.99 27.6263 329.995 27.6263C329.469 27.6263 329.469 28.4563 329.995 28.4563Z" fill="#E8E8E8"/>
<path d="M359.565 28.0967C359.51 35.9264 359.454 43.756 359.371 51.5857C359.371 52.1114 360.202 52.1114 360.202 51.5857C360.257 43.756 360.313 35.9264 360.396 28.0967C360.396 27.571 359.565 27.571 359.565 28.0967Z" fill="#E8E8E8"/>
<path d="M330.133 52.1667C339.99 52.1667 349.847 52.1667 359.703 52.1667C360.229 52.1667 360.229 51.3367 359.703 51.3367C349.847 51.3367 339.99 51.3367 330.133 51.3367C329.607 51.3367 329.607 52.1667 330.133 52.1667Z" fill="#E8E8E8"/>
<path d="M330.936 30.227C330.936 36.7287 330.936 43.2027 330.936 49.7044C330.936 50.23 331.767 50.23 331.767 49.7044C331.767 43.2027 331.767 36.7287 331.767 30.227C331.767 29.7013 330.936 29.7013 330.936 30.227Z" fill="#E8E8E8"/>
<path d="M331.545 30.642C340.294 30.642 349.016 30.642 357.765 30.642C358.291 30.642 358.291 29.812 357.765 29.812C349.016 29.812 340.294 29.812 331.545 29.812C330.991 29.812 330.991 30.642 331.545 30.642Z" fill="#E8E8E8"/>
<path d="M357.322 30.4207C357.295 36.784 357.267 43.1474 357.239 49.5384C357.239 50.064 358.07 50.064 358.07 49.5384C358.098 43.175 358.125 36.8117 358.153 30.4207C358.153 29.895 357.322 29.895 357.322 30.4207Z" fill="#E8E8E8"/>
<path d="M331.711 50.23C340.322 50.23 348.933 50.23 357.544 50.23C358.07 50.23 358.07 49.4 357.544 49.4C348.933 49.4 340.322 49.4 331.711 49.4C331.185 49.4 331.185 50.23 331.711 50.23Z" fill="#E8E8E8"/>
<path d="M331.545 44.503C334.729 43.3963 338.079 44.3923 341.18 45.3053C344.337 46.2183 347.438 47.325 350.456 48.5977C350.954 48.7914 351.176 47.989 350.677 47.7953C347.327 46.3843 343.894 45.1947 340.405 44.2263C337.443 43.424 334.314 42.6493 331.324 43.7007C330.825 43.8667 331.047 44.669 331.545 44.503Z" fill="#E8E8E8"/>
<path d="M342.066 45.4437C347.299 45.1393 352.2 43.0367 357.378 42.4557C357.904 42.4003 357.904 41.5703 357.378 41.6257C352.2 42.2067 347.299 44.2817 342.066 44.6137C341.513 44.669 341.513 45.499 342.066 45.4437Z" fill="#E8E8E8"/>
<path d="M351.979 35.3177C350.816 34.6537 351.868 32.468 353.114 32.9937C353.778 33.2704 353.917 34.0727 353.557 34.6537C353.169 35.29 352.366 35.4007 351.702 35.207C351.176 35.0687 350.954 35.871 351.48 36.0094C352.588 36.3137 353.834 35.9817 354.387 34.9027C354.886 33.9344 354.498 32.6617 353.446 32.219C351.286 31.306 349.514 34.9027 351.563 36.037C352.006 36.286 352.449 35.5667 351.979 35.3177Z" fill="#E8E8E8"/>
<path d="M343.506 27.903C343.534 27.4327 343.562 26.9623 343.7 26.5197C343.811 26.16 344.088 25.3023 344.503 25.1363C345.251 24.8597 345.527 27.488 345.583 27.986C345.638 28.5117 346.469 28.5117 346.413 27.986C346.33 27.0177 346.109 23.9743 344.558 24.1957C343.894 24.2787 343.423 25.0257 343.174 25.579C342.842 26.2983 342.731 27.1007 342.703 27.8753C342.676 28.4287 343.506 28.4287 343.506 27.903Z" fill="#E8E8E8"/>
<path d="M348.158 156.968C348.158 160.288 348.158 163.636 348.158 166.956C348.158 167.481 348.988 167.481 348.988 166.956C348.988 163.636 348.988 160.288 348.988 156.968C348.988 156.442 348.158 156.442 348.158 156.968Z" fill="#E8E8E8"/>
<path d="M338.107 168.173C345.638 168.173 353.197 168.173 360.728 168.173C361.254 168.173 361.254 167.343 360.728 167.343C353.197 167.343 345.638 167.343 338.107 167.343C337.581 167.343 337.581 168.173 338.107 168.173Z" fill="#E8E8E8"/>
<path d="M341.291 168.422C341.291 169.999 341.291 171.548 341.291 173.125C341.291 173.651 342.122 173.651 342.122 173.125C342.122 171.548 342.122 169.999 342.122 168.422C342.122 167.896 341.291 167.896 341.291 168.422Z" fill="#E8E8E8"/>
<path d="M353.391 168.671C353.391 170.525 353.391 172.406 353.391 174.26C353.391 174.785 354.221 174.785 354.221 174.26C354.221 172.406 354.221 170.525 354.221 168.671C354.221 168.118 353.391 168.118 353.391 168.671Z" fill="#E8E8E8"/>
<path d="M347.521 175.339C352.754 175.339 357.987 175.339 363.22 175.339C363.746 175.339 363.746 174.509 363.22 174.509C357.987 174.509 352.754 174.509 347.521 174.509C346.995 174.509 346.995 175.339 347.521 175.339Z" fill="#E8E8E8"/>
<path d="M155.951 256.236C164.673 250.343 169.047 247.383 170.182 247.023C172.951 246.138 181.922 243.288 189.758 248.074C195.378 251.505 200.556 258.947 198.396 263.927C196.846 267.469 192.111 268.575 187.819 269.599C181.479 271.093 176.052 270.263 173.007 269.544C171.816 270.706 169.906 272.255 167.22 273.279C162.762 274.994 157.612 274.69 157.363 273.666C157.252 273.14 158.36 272.117 163.731 270.014C163.094 269.322 162.153 268.492 160.824 267.911C156.892 266.113 152.961 267.856 152.213 268.216C156.062 270.457 156.892 271.619 156.699 272.255C156.2 273.86 148.365 274.385 146.26 270.706C146.039 270.346 145.43 269.101 145.928 266.749C146.925 262.433 150.524 259.916 155.951 256.236Z" fill="#161616"/>
<path d="M193.938 262.378C194.824 260.552 198.811 260.995 200.362 261.161C202.355 261.382 204.127 261.576 205.733 262.987C206.951 264.038 208.723 266.334 208.087 268.188C207.505 269.959 205.318 269.82 201.082 271.895C200.362 272.255 193.44 275.658 193.911 277.899C194.104 278.812 195.35 278.784 199.31 280.472C202.743 281.911 204.764 282.796 206.453 284.733C207.284 285.701 208.945 287.61 208.502 289.547C207.671 293.116 200.251 293.724 200.057 293.171C199.891 292.701 205.096 291.4 205.152 288.966C205.207 287.112 202.3 285.618 200.473 284.65C195.101 281.855 191.474 282.851 190.062 280.168C189.259 278.646 189.702 277.014 189.785 276.709C190.201 275.215 191.363 273.943 197.039 271.093C202.217 268.492 204.515 267.884 204.487 266.722C204.46 265.643 202.466 264.757 201.248 264.453C197.815 263.54 195.295 265.698 194.132 264.481C193.634 263.927 193.661 262.987 193.938 262.378Z" fill="#161616"/>
<path d="M146.648 248.987C148.392 250.288 150.137 251.588 151.881 252.888C154.373 252.639 156.837 252.418 159.329 252.169C160.879 250.675 162.43 249.153 163.98 247.659C164.091 248.6 164.313 250.73 164.396 251.754C165.365 260.967 165.448 261.769 164.866 262.821C162.956 266.224 156.505 267.607 152.795 265.228C150.995 264.066 150.303 262.323 149.002 258.975C147.423 254.936 146.87 251.394 146.648 248.987Z" fill="#161616"/>
<path d="M153.681 258.56C153.265 259.418 152.352 259.943 151.41 259.777C151.161 259.722 151.05 260.137 151.3 260.165C152.435 260.358 153.57 259.805 154.041 258.754C154.151 258.532 153.819 258.311 153.681 258.56Z" fill="white"/>
<path d="M157.529 258.283C158.443 259.169 159.661 259.556 160.907 259.362C161.184 259.335 161.046 258.92 160.796 258.975C159.689 259.141 158.609 258.781 157.806 258.007C157.612 257.813 157.335 258.09 157.529 258.283Z" fill="white"/>
<path d="M156.062 260.912C155.979 260.912 155.923 260.884 155.84 260.884C155.868 260.856 155.868 260.801 155.896 260.773C155.951 260.829 156.034 260.884 156.089 260.939C156.089 260.884 156.062 260.856 156.062 260.801C155.979 260.552 155.591 260.663 155.674 260.912C155.813 261.52 156.034 262.461 155.287 262.765C155.037 262.876 155.148 263.263 155.397 263.153C156.394 262.738 156.283 261.659 156.089 260.773C155.951 260.801 155.813 260.856 155.702 260.884C155.702 260.939 155.73 260.967 155.73 261.022C155.757 261.105 155.84 261.188 155.923 261.188C156.643 261.133 156.062 260.137 155.73 260.718C155.591 260.912 155.923 261.133 156.062 260.912Z" fill="white"/>
<path d="M155.785 261.105C155.923 261.576 155.951 262.101 156.256 262.516C156.505 262.848 156.892 263.014 157.308 262.931C157.557 262.876 157.446 262.489 157.197 262.544C156.422 262.71 156.311 261.493 156.173 260.995C156.117 260.746 155.73 260.856 155.785 261.105Z" fill="white"/>
<path d="M154.456 261.493C153.653 261.133 152.822 260.967 151.936 261.022C151.659 261.05 151.659 261.465 151.936 261.437C152.739 261.382 153.514 261.52 154.234 261.852C154.484 261.963 154.705 261.603 154.456 261.493Z" fill="white"/>
<path d="M153.736 262.046C153.044 262.101 152.435 262.378 151.964 262.848C151.77 263.042 152.075 263.319 152.269 263.153C152.684 262.765 153.182 262.516 153.764 262.461C153.985 262.433 153.985 262.018 153.736 262.046Z" fill="white"/>
<path d="M157.695 261.299C158.498 260.995 159.301 260.884 160.16 260.967C160.436 260.995 160.436 260.58 160.16 260.552C159.274 260.469 158.415 260.607 157.585 260.912C157.335 260.995 157.419 261.41 157.695 261.299Z" fill="white"/>
<path d="M158.249 262.046C158.858 261.963 159.44 262.018 160.021 262.24C160.27 262.323 160.381 261.935 160.132 261.852C159.523 261.631 158.886 261.576 158.249 261.659C157.972 261.659 157.972 262.101 158.249 262.046Z" fill="white"/>
<path d="M151.715 257.343C152.13 257.094 152.629 257.094 153.044 257.343C153.265 257.481 153.487 257.121 153.265 256.983C152.712 256.679 152.075 256.679 151.521 256.983C151.272 257.121 151.493 257.481 151.715 257.343Z" fill="white"/>
<path d="M157.529 256.789C157.945 256.568 158.415 256.513 158.914 256.568C159.163 256.596 159.301 256.208 159.024 256.181C158.443 256.098 157.862 256.181 157.335 256.457C157.059 256.54 157.28 256.9 157.529 256.789Z" fill="white"/>
<path d="M150.912 248.102C151.77 247.742 152.628 247.383 153.459 246.995C153.293 246.885 153.155 246.774 152.988 246.636C152.656 247.687 152.158 248.628 151.493 249.513C151.327 249.734 151.604 250.066 151.853 249.983C152.795 249.624 153.736 249.292 154.677 248.932C155.037 248.794 154.899 248.185 154.511 248.323C153.57 248.683 152.628 249.015 151.687 249.375C151.798 249.541 151.909 249.679 152.047 249.845C152.767 248.932 153.265 247.936 153.625 246.829C153.708 246.553 153.404 246.387 153.155 246.47C152.296 246.829 151.438 247.189 150.607 247.576C150.22 247.742 150.552 248.268 150.912 248.102Z" fill="#161616"/>
<path d="M152.296 243.067C152.878 242.735 153.459 242.513 154.096 242.375C153.985 242.209 153.874 242.071 153.736 241.905C153.487 242.458 153.182 243.011 152.822 243.509C152.684 243.731 152.878 243.952 153.099 243.98C153.847 244.035 154.539 243.841 155.12 243.399C155.425 243.15 155.12 242.624 154.816 242.873C154.317 243.26 153.764 243.426 153.127 243.371C153.21 243.537 153.293 243.675 153.404 243.841C153.764 243.316 154.068 242.79 154.317 242.237C154.428 241.988 154.234 241.711 153.958 241.766C153.265 241.905 152.601 242.154 151.992 242.513C151.632 242.735 151.936 243.26 152.296 243.067Z" fill="#161616"/>
<path d="M156.865 249.762C155.951 248.849 157.529 248.323 157.695 247.521C157.861 246.58 156.754 245.695 158 244.976C158.36 244.782 158.028 244.229 157.695 244.45C157.252 244.699 156.892 245.086 156.782 245.612C156.616 246.497 157.391 247.023 156.726 247.825C156.422 248.213 156.062 248.323 155.951 248.849C155.84 249.375 156.062 249.817 156.422 250.205C156.726 250.481 157.169 250.039 156.865 249.762Z" fill="#161616"/>
<path d="M233.31 170.774C163.897 175.781 94.4848 180.761 25.0999 185.769C23.2172 135.471 21.3344 85.173 19.4794 34.875C89.1965 33.9344 158.914 32.9937 228.631 32.053C230.181 78.284 231.732 124.515 233.31 170.774Z" fill="white" stroke="#161616" stroke-width="3.5" stroke-miterlimit="10"/>
<path d="M78.4538 59.36C91.9099 59.36 105.394 59.36 118.85 59.36C119.376 59.36 119.376 58.53 118.85 58.53C105.394 58.53 91.9099 58.53 78.4538 58.53C77.9277 58.53 77.9277 59.36 78.4538 59.36Z" fill="#161616"/>
<path d="M93.5711 62.763C107.443 62.763 121.314 62.763 135.185 62.763C135.711 62.763 135.711 61.933 135.185 61.933C121.314 61.933 107.443 61.933 93.5711 61.933C93.0173 61.933 93.0173 62.763 93.5711 62.763Z" fill="#161616"/>
<path d="M27.8963 143.937C28.3947 155.502 28.8931 167.094 29.3914 178.659C29.4191 179.184 30.2498 179.184 30.2221 178.659C29.7237 167.094 29.2253 155.502 28.7269 143.937C28.6992 143.411 27.8686 143.411 27.8963 143.937Z" fill="#161616"/>
<path d="M88.892 137.186C90.0825 137.186 91.2731 137.186 92.4913 137.186C93.0174 137.186 93.0174 136.356 92.4913 136.356C91.3008 136.356 90.1102 136.356 88.892 136.356C88.3659 136.356 88.3659 137.186 88.892 137.186Z" fill="#161616"/>
<path d="M95.62 137.186C98.6933 137.186 101.739 137.186 104.812 137.186C105.338 137.186 105.338 136.356 104.812 136.356C101.739 136.356 98.6933 136.356 95.62 136.356C95.0939 136.356 95.0939 137.186 95.62 137.186Z" fill="#161616"/>
<path d="M111.762 136.744C115.417 136.744 119.071 136.744 122.754 136.744C123.28 136.744 123.28 135.914 122.754 135.914C119.099 135.914 115.444 135.914 111.762 135.914C111.236 135.914 111.236 136.744 111.762 136.744Z" fill="#161616"/>
<path d="M93.8479 142.996C98.3333 142.996 102.819 142.996 107.304 142.996C107.83 142.996 107.83 142.166 107.304 142.166C102.819 142.166 98.3333 142.166 93.8479 142.166C93.2942 142.166 93.2942 142.996 93.8479 142.996Z" fill="#161616"/>
<path d="M100.327 139.87C105.56 139.87 110.793 139.87 116.026 139.87C116.552 139.87 116.552 139.04 116.026 139.04C110.793 139.04 105.56 139.04 100.327 139.04C99.8009 139.04 99.8009 139.87 100.327 139.87Z" fill="#161616"/>
<path d="M128.125 169.446C136.93 169.446 145.762 169.446 154.567 169.446C155.093 169.446 155.093 168.616 154.567 168.616C145.762 168.616 136.93 168.616 128.125 168.616C127.599 168.616 127.599 169.446 128.125 169.446Z" fill="#161616"/>
<path d="M149.86 171.687C154.484 171.687 159.135 171.687 163.759 171.687C164.285 171.687 164.285 170.857 163.759 170.857C159.135 170.857 154.484 170.857 149.86 170.857C149.334 170.857 149.334 171.687 149.86 171.687Z" fill="#161616"/>
<path d="M161.959 168.311C166.528 168.311 171.068 168.311 175.637 168.311C176.163 168.311 176.163 167.481 175.637 167.481C171.068 167.481 166.528 167.481 161.959 167.481C161.433 167.481 161.433 168.311 161.959 168.311Z" fill="#161616"/>
<path d="M185.272 93.307C193.717 93.307 202.161 93.307 210.606 93.307C211.132 93.307 211.132 92.477 210.606 92.477C202.161 92.477 193.717 92.477 185.272 92.477C184.746 92.477 184.746 93.307 185.272 93.307Z" fill="#161616"/>
<path d="M177.437 94.635C180.122 94.635 182.808 94.635 185.494 94.635C186.02 94.635 186.02 93.805 185.494 93.805C182.808 93.805 180.122 93.805 177.437 93.805C176.883 93.805 176.883 94.635 177.437 94.635Z" fill="#161616"/>
<path d="M178.987 96.8761C188.013 96.8761 197.067 96.8761 206.093 96.8761C206.619 96.8761 206.619 96.0461 206.093 96.0461C197.067 96.0461 188.013 96.0461 178.987 96.0461C178.461 96.0461 178.461 96.8761 178.987 96.8761Z" fill="#161616"/>
<path d="M212.406 94.8564C214.122 94.8564 215.839 94.8564 217.556 94.8564C218.082 94.8564 218.082 94.0264 217.556 94.0264C215.839 94.0264 214.122 94.0264 212.406 94.0264C211.852 94.0264 211.852 94.8564 212.406 94.8564Z" fill="#161616"/>
<path d="M205.678 128.665C208.225 128.665 210.745 128.665 213.292 128.665C213.818 128.665 213.818 127.835 213.292 127.835C210.745 127.835 208.225 127.835 205.678 127.835C205.124 127.835 205.124 128.665 205.678 128.665Z" fill="#161616"/>
<path d="M200.75 130.906C203.518 130.906 206.287 130.906 209.028 130.906C209.554 130.906 209.554 130.076 209.028 130.076C206.259 130.076 203.491 130.076 200.75 130.076C200.196 130.076 200.196 130.906 200.75 130.906Z" fill="#161616"/>
<path d="M204.764 133.147C210.218 133.147 215.673 133.147 221.127 133.147C221.653 133.147 221.653 132.317 221.127 132.317C215.673 132.317 210.218 132.317 204.764 132.317C204.238 132.317 204.238 133.147 204.764 133.147Z" fill="#161616"/>
<path d="M215.092 130.463C216.725 130.463 218.386 130.463 220.02 130.463C220.546 130.463 220.546 129.633 220.02 129.633C218.386 129.633 216.725 129.633 215.092 129.633C214.538 129.633 214.538 130.463 215.092 130.463Z" fill="#161616"/>
<path d="M101.047 95.963C104.923 95.963 108.771 95.963 112.648 95.963C113.174 95.963 113.174 95.133 112.648 95.133C108.771 95.133 104.923 95.133 101.047 95.133C100.521 95.133 100.521 95.963 101.047 95.963Z" fill="#161616"/>
<path d="M109.491 98.3424C115.195 98.3424 120.926 98.3424 126.63 98.3424C127.156 98.3424 127.156 97.5124 126.63 97.5124C120.926 97.5124 115.195 97.5124 109.491 97.5124C108.965 97.5124 108.938 98.3424 109.491 98.3424Z" fill="#161616"/>
<path d="M124.526 95.1607C127.765 95.1607 131.032 95.1607 134.272 95.1607C134.798 95.1607 134.798 94.3307 134.272 94.3307C131.032 94.3307 127.765 94.3307 124.526 94.3307C124 94.3307 124 95.1607 124.526 95.1607Z" fill="#161616"/>
<path d="M25.4321 51.0047C26.0413 72.0037 26.6504 93.0304 27.2595 114.029C27.4256 120.005 27.5918 125.954 27.7856 131.93C27.8133 132.455 28.6439 132.455 28.6162 131.93C28.0071 110.931 27.3979 89.904 26.7888 68.905C26.6227 62.929 26.4566 56.9807 26.2628 51.0047C26.2628 50.479 25.4321 50.479 25.4321 51.0047Z" fill="#161616"/>
<path d="M226.693 119.646C227.108 133.534 227.523 147.395 227.939 161.284C227.966 161.81 228.797 161.81 228.769 161.284C228.354 147.395 227.939 133.534 227.523 119.646C227.523 119.12 226.693 119.12 226.693 119.646Z" fill="#161616"/>
<path d="M169.352 113.282C169.518 114.97 169.684 116.685 169.822 118.373C171.428 117.958 173.006 117.515 174.612 117.1C174.391 115.413 174.197 113.697 173.975 112.01C172.425 112.425 170.902 112.867 169.352 113.282Z" fill="#FFA061"/>
<path d="M168.383 126.203C170.044 125.981 171.678 125.788 173.339 125.566C173.56 127.586 173.754 129.606 173.976 131.625C172.48 131.681 170.985 131.736 169.518 131.791C169.13 129.91 168.77 128.056 168.383 126.203Z" fill="#FFA061"/>
<path d="M174.446 138.459C174.972 140.202 175.498 141.973 176.052 143.716C177.547 143.024 179.042 142.332 180.51 141.641C180.039 140.091 179.541 138.57 179.07 137.02C177.547 137.518 175.997 137.989 174.446 138.459Z" fill="#FFA061"/>
<path d="M64.9976 154.948C65.3575 160.316 65.7174 165.683 66.0774 171.023C75.4911 170.414 84.9049 169.833 94.3186 169.224C94.4847 164.41 94.6785 159.569 94.8447 154.755C84.9049 154.838 74.9374 154.893 64.9976 154.948Z" fill="#6275FF"/>
<path d="M182.033 45.748C183.118 45.748 183.998 45.0172 183.998 44.1156C183.998 43.2141 183.118 42.4833 182.033 42.4833C180.947 42.4833 180.067 43.2141 180.067 44.1156C180.067 45.0172 180.947 45.748 182.033 45.748Z" fill="#6275FF"/>
<path d="M48.4404 57.9766C49.3426 57.9766 50.074 57.4935 50.074 56.8976C50.074 56.3017 49.3426 55.8186 48.4404 55.8186C47.5383 55.8186 46.8069 56.3017 46.8069 56.8976C46.8069 57.4935 47.5383 57.9766 48.4404 57.9766Z" fill="#FFA061"/>
<path d="M74.439 89.2676C75.1425 89.2676 75.7127 88.5988 75.7127 87.7736C75.7127 86.9485 75.1425 86.2796 74.439 86.2796C73.7356 86.2796 73.1654 86.9485 73.1654 87.7736C73.1654 88.5988 73.7356 89.2676 74.439 89.2676Z" fill="#FFA061"/>
<path opacity="0.21" d="M62.7548 52.0007C63.2532 51.9177 64.2223 56.538 66.6034 64.921C69.7321 75.96 72.8331 84.8687 75.0758 90.9553C71.6702 93.058 64.0561 97.0697 53.6733 97.208C46.3361 97.291 40.5495 95.4097 37.1162 93.971C43.8443 94.718 49.271 94.5243 53.0642 94.1647C59.0724 93.6113 58.0203 92.975 62.561 92.7537C64.4438 92.6707 66.908 92.6707 69.4275 91.149C70.3412 90.5957 71.0057 89.987 71.4487 89.5443C69.6767 85.8923 67.4063 80.525 65.579 73.802C62.6718 62.8737 62.035 52.139 62.7548 52.0007Z" fill="#6D6C6C"/>
<path opacity="0.25" d="M88.6981 82.019C89.1411 85.5326 89.944 89.4613 91.273 93.6667C95.0662 105.619 101.462 114.14 106.28 119.397C103.4 121.527 99.8285 123.74 95.5369 125.594C82.5238 131.21 70.369 130.38 63.8624 129.384C63.6132 127.918 63.3641 126.452 63.1149 124.985C65.8836 125.068 68.8185 125.013 71.8918 124.847C82.856 124.155 92.2698 121.693 99.7731 118.954C97.392 114.915 95.6754 111.429 94.4848 108.8C91.6053 102.52 89.4733 97.789 88.7258 91.398C88.2551 87.497 88.4489 84.2046 88.6981 82.019Z" fill="#6D6C6C"/>
<path opacity="0.14" d="M176.717 100.334C176.994 106.642 177.658 111.871 178.239 115.634C179.596 124.266 180.593 130.242 184.137 136.965C186.352 141.143 188.844 144.214 190.643 146.206C187.515 148.889 183.306 151.933 177.907 154.367C164.34 160.537 151.604 159.292 145.651 158.296C145.347 156.94 145.042 155.585 144.738 154.201C145.485 154.257 146.648 154.312 148.06 154.34C152.767 154.45 162.568 154.616 173.809 150.854C176.966 149.802 181.396 148.032 186.38 145.099C184.414 142.471 182.476 139.344 180.787 135.72C174.114 121.416 175.443 107.528 176.717 100.334Z" fill="#6D6C6C"/>
<path opacity="0.18" d="M197.925 38.278C198.479 40.851 199.282 44.7796 200.085 49.6766C201.58 59.1386 201.469 62.5693 203.214 68.158C204.127 71.063 205.761 75.1853 208.834 79.8886C206.259 81.9913 203.047 84.177 199.088 86.003C186.13 92.0066 173.726 90.319 168.023 89.1293C168.078 88.0226 168.133 86.916 168.189 85.837C168.909 86.0307 169.989 86.2796 171.318 86.501C173.062 86.7776 179.513 87.7183 191.64 84.675C194.99 83.845 199.503 82.517 204.681 80.3866C203.684 78.616 202.217 75.8493 200.888 72.308C197.012 62.0436 197.039 53.135 197.095 48.5423C197.122 46.0246 197.288 42.511 197.925 38.278Z" fill="#6D6C6C"/>
<path d="M32.4094 50.4237C29.6683 64.921 32.4371 79.5843 35.2058 93.8603C35.3166 94.386 36.1195 94.1646 36.0087 93.639C33.2677 79.529 30.5266 65.004 33.2123 50.645C33.2954 50.147 32.4924 49.898 32.4094 50.4237Z" fill="#161616"/>
<path d="M33.1846 50.313C37.1439 52.969 41.9339 53.4393 46.6131 53.1073C51.9568 52.72 57.2451 51.5857 62.5334 50.7003C63.0594 50.6173 62.8379 49.815 62.3119 49.898C57.2451 50.728 52.1783 51.807 47.0561 52.222C42.3769 52.6093 37.5869 52.2497 33.5999 49.566C33.1569 49.2893 32.7416 50.0087 33.1846 50.313Z" fill="#161616"/>
<path d="M61.9797 51.2813C62.7549 64.506 64.7484 78.0073 71.4488 89.6273C71.7257 90.0976 72.4456 89.6826 72.1687 89.2123C65.5514 77.703 63.5856 64.34 62.8103 51.2813C62.7826 50.7556 61.952 50.7556 61.9797 51.2813Z" fill="#161616"/>
<path d="M35.898 94.0816C42.183 95.9076 48.9388 94.801 55.3346 94.2753C61.0105 93.805 67.1018 93.5836 71.9748 90.2636C72.4178 89.9593 72.0025 89.24 71.5595 89.5443C66.6588 92.892 60.5122 93.0026 54.8085 93.473C48.6619 93.971 42.183 94.9946 36.1195 93.2516C35.5934 93.141 35.3719 93.9433 35.898 94.0816Z" fill="#161616"/>
<path d="M46.53 57.0637C45.9763 56.8147 46.5854 56.289 46.9176 56.206C47.3329 56.0953 48.1359 56.04 48.3297 56.5103C48.4681 56.87 48.2466 57.3403 47.9144 57.4787C47.3883 57.7277 46.8069 57.4233 46.4469 57.0637C46.0593 56.6763 45.4779 57.2573 45.8655 57.6447C46.5577 58.3363 47.6929 58.696 48.5512 58.0597C49.2434 57.5617 49.4926 56.455 48.9111 55.791C48.2466 55.044 46.8346 55.127 46.087 55.6803C45.4225 56.1783 45.2841 57.368 46.1424 57.7553C46.6131 58.0043 47.0284 57.285 46.53 57.0637Z" fill="#161616"/>
<path d="M57.6327 94.1923C55.6392 104.291 57.7711 114.5 59.9308 124.404C60.0415 124.93 60.8444 124.709 60.7337 124.183C58.6018 114.444 56.4975 104.374 58.4356 94.4136C58.5464 93.888 57.7434 93.6666 57.6327 94.1923Z" fill="#161616"/>
<path d="M69.0676 83.596C75.4634 82.3787 81.9423 81.936 88.4211 82.185C88.2827 82.0467 88.1443 81.9083 88.0058 81.77C86.7045 95.1053 92.4082 107.804 99.33 118.843C99.6069 119.286 100.327 118.871 100.05 118.428C93.2111 107.5 87.5351 94.967 88.8365 81.77C88.8641 81.5487 88.615 81.355 88.4211 81.355C81.8592 81.106 75.2973 81.5763 68.8461 82.7937C68.32 82.9043 68.5415 83.7067 69.0676 83.596Z" fill="#161616"/>
<path d="M60.3738 124.985C73.8299 126.562 87.4798 124.543 99.9392 119.231C100.438 119.009 99.9946 118.318 99.5239 118.511C87.2306 123.768 73.6638 125.705 60.3738 124.155C59.8477 124.1 59.8477 124.93 60.3738 124.985Z" fill="#161616"/>
<path d="M74.2728 86.999C74.2728 86.9713 74.3559 86.833 74.3559 86.7776C74.3836 86.667 74.4666 86.5563 74.5497 86.4733C74.7158 86.335 74.9096 86.2243 75.1311 86.1966C75.5464 86.1413 75.9341 86.3626 76.0448 86.7776C76.1279 87.1096 75.9894 87.5523 75.6018 87.6076C75.2419 87.663 74.9096 87.414 74.8543 87.0543C74.7712 86.5286 73.9683 86.75 74.0513 87.2756C74.1898 88.244 75.4357 88.7143 76.2386 88.244C77.1246 87.7183 77.0693 86.3626 76.3217 85.7263C75.4911 85.0346 74.1067 85.3943 73.636 86.335C73.4145 86.8053 73.4145 87.4416 73.9406 87.7183C74.3559 87.9396 74.965 87.746 75.0758 87.2203C75.1588 86.6946 74.3559 86.4733 74.2728 86.999Z" fill="#161616"/>
<path d="M35.1504 65.4743C42.5153 66.498 49.8248 64.9763 56.8851 62.9566C57.4112 62.8183 57.1897 62.016 56.6636 62.1543C49.7417 64.1186 42.5707 65.668 35.3719 64.672C34.8458 64.589 34.6243 65.3913 35.1504 65.4743Z" fill="#161616"/>
<path d="M36.5348 70.897C40.3557 71.312 44.1766 70.9247 47.859 69.7627C48.3574 69.5967 48.1636 68.7943 47.6375 68.9603C44.0381 70.0947 40.3003 70.4543 36.5348 70.067C36.0087 70.0117 36.0087 70.8417 36.5348 70.897Z" fill="#161616"/>
<path d="M36.5348 77.5923C43.8443 78.45 51.2092 77.9243 58.2972 76.0706C58.8232 75.9323 58.6017 75.13 58.0757 75.2683C51.043 77.122 43.7612 77.62 36.5348 76.7623C36.0087 76.6793 36.0087 77.5093 36.5348 77.5923Z" fill="#161616"/>
<path d="M63.89 120.061C71.2272 120.393 78.5644 119.507 85.5971 117.405C86.0954 117.266 85.9016 116.464 85.3756 116.602C78.3983 118.677 71.1719 119.563 63.89 119.231C63.3363 119.203 63.3363 120.033 63.89 120.061Z" fill="#161616"/>
<path d="M65.3021 113.725C68.5693 113.614 71.8364 113.365 75.1035 113.006C75.6296 112.95 75.6296 112.12 75.1035 112.176C71.8364 112.535 68.597 112.784 65.3021 112.895C64.7761 112.923 64.7761 113.753 65.3021 113.725Z" fill="#161616"/>
<path d="M67.9601 102.326C70.1197 102.603 72.3624 102.05 74.4944 101.745C76.8478 101.386 79.1735 101.054 81.527 100.694C82.053 100.611 81.8315 99.8086 81.3055 99.8916C79.1458 100.224 76.9585 100.556 74.7989 100.86C72.5562 101.192 70.2305 101.801 67.9601 101.496C67.434 101.413 67.434 102.243 67.9601 102.326Z" fill="#161616"/>
<path d="M165.808 40.2977C162.79 55.0993 162.485 70.316 164.894 85.2283C164.977 85.754 165.78 85.5327 165.697 85.007C163.316 70.2607 163.648 55.1547 166.611 40.519C166.721 39.9933 165.918 39.772 165.808 40.2977Z" fill="#161616"/>
<path d="M166.749 40.4913C176.8 38.195 187.182 37.7247 197.427 39.108C197.953 39.191 198.174 38.3887 197.648 38.3057C187.266 36.8947 176.744 37.365 166.528 39.689C166.029 39.8273 166.251 40.6297 166.749 40.4913Z" fill="#161616"/>
<path d="M197.178 38.361C196.873 52.6093 197.067 67.66 204.293 80.4143C204.57 80.8847 205.262 80.4697 205.013 79.9993C197.87 67.3833 197.704 52.471 198.008 38.361C198.036 37.8353 197.205 37.8353 197.178 38.361Z" fill="#161616"/>
<path d="M165.531 85.671C168.632 86.6116 171.954 86.667 175.166 86.6946C178.627 86.7223 182.088 86.501 185.549 86.0306C192.166 85.1453 198.618 83.347 204.792 80.7463C205.29 80.5526 204.847 79.8333 204.377 80.027C198.202 82.6276 191.696 84.3983 185.051 85.256C181.95 85.6433 178.821 85.8646 175.692 85.837C172.397 85.837 168.937 85.8093 165.78 84.841C165.226 84.7303 165.033 85.5326 165.531 85.671Z" fill="#161616"/>
<path d="M182.476 41.3766C181.534 41.7087 181.119 42.7877 181.451 43.7007C181.839 44.7243 183.029 44.9733 183.915 44.3647C184.774 43.756 185.051 42.5387 184.22 41.764C183.5 41.1 182.254 41.0723 181.59 41.7917C181.23 42.179 181.811 42.76 182.171 42.3727C183.002 41.4873 184.635 42.7323 183.5 43.6177C183.057 43.9497 182.42 43.9497 182.226 43.3687C182.088 42.926 182.226 42.3173 182.697 42.1513C183.195 41.9853 182.974 41.183 182.476 41.3766Z" fill="#161616"/>
<path d="M166.223 53.1627C173.782 53.3563 181.313 53.218 188.844 52.72C189.37 52.6923 189.37 51.8623 188.844 51.89C181.313 52.388 173.754 52.554 166.223 52.3327C165.669 52.3327 165.669 53.1627 166.223 53.1627Z" fill="#161616"/>
<path d="M166.971 57.368C169.795 57.4786 172.619 57.5893 175.415 57.7C175.941 57.7276 175.941 56.8976 175.415 56.87C172.591 56.7593 169.767 56.6486 166.971 56.538C166.417 56.5103 166.417 57.3403 166.971 57.368Z" fill="#161616"/>
<path d="M166.195 63.2333C173.311 63.6207 180.51 63.9527 187.515 62.4033C188.041 62.2927 187.819 61.4903 187.293 61.601C180.344 63.1227 173.228 62.7907 166.195 62.4033C165.669 62.3757 165.669 63.2057 166.195 63.2333Z" fill="#161616"/>
<path d="M62.9765 153.178C62.3397 158.711 62.1182 164.272 62.312 169.833C62.3397 170.359 63.1703 170.359 63.1426 169.833C62.9488 164.272 63.1703 158.711 63.8071 153.178C63.8625 152.652 63.0318 152.652 62.9765 153.178Z" fill="#161616"/>
<path d="M63.2532 153.51C73.1099 153.51 82.9944 153.371 92.8511 153.067C93.3772 153.039 93.3772 152.209 92.8511 152.237C82.9944 152.541 73.1099 152.68 63.2532 152.68C62.7271 152.68 62.7271 153.51 63.2532 153.51Z" fill="#161616"/>
<path d="M92.7681 152.68C92.8512 157.494 92.9342 162.28 93.0173 167.094C93.0173 167.62 93.8479 167.62 93.8479 167.094C93.7648 162.28 93.6818 157.494 93.5987 152.68C93.5987 152.154 92.7404 152.154 92.7681 152.68Z" fill="#161616"/>
<path d="M62.2288 169.224C62.2841 171.023 65.4128 170.22 66.4373 170.165C69.3721 169.971 72.307 169.778 75.2142 169.556C81.167 169.141 87.1198 168.754 93.0726 168.339C93.5987 168.311 93.5987 167.481 93.0726 167.509C88.0058 167.841 82.9667 168.201 77.8999 168.533C75.4911 168.699 73.0823 168.865 70.6734 169.031C69.9536 169.086 63.0594 169.75 63.0317 169.224C63.0594 168.699 62.2288 168.699 62.2288 169.224Z" fill="#161616"/>
<path d="M65.496 157.245C72.141 156.94 78.786 157.189 85.3756 158.019C85.9017 158.075 85.9017 157.245 85.3756 157.189C78.786 156.359 72.141 156.11 65.496 156.415C64.9423 156.442 64.9423 157.272 65.496 157.245Z" fill="#161616"/>
<path d="M65.7451 161.45C69.4553 161.173 73.1931 160.869 76.9032 160.592C77.4292 160.565 77.4292 159.735 76.9032 159.762C73.1931 160.039 69.4553 160.343 65.7451 160.62C65.2191 160.648 65.2191 161.478 65.7451 161.45Z" fill="#161616"/>
<path d="M66.991 165.683C72.3347 164.991 78.1491 163.58 83.5205 164.549C84.0466 164.632 84.2681 163.857 83.742 163.746C78.2599 162.75 72.4455 164.134 66.991 164.853C66.4927 164.936 66.465 165.766 66.991 165.683Z" fill="#161616"/>
<path d="M139.006 106.089C134.604 121.748 135.158 138.514 140.557 153.869C140.723 154.367 141.526 154.146 141.36 153.648C136.016 138.431 135.462 121.831 139.809 106.31C139.948 105.785 139.145 105.563 139.006 106.089Z" fill="#161616"/>
<path d="M139.56 106.366C151.881 106.31 164.147 104.706 176.08 101.579C176.606 101.441 176.384 100.639 175.858 100.777C164.008 103.876 151.826 105.48 139.56 105.536C139.006 105.536 139.006 106.366 139.56 106.366Z" fill="#161616"/>
<path d="M175.858 101.081C175.36 108.773 175.692 116.519 177.077 124.128C177.769 127.973 178.599 131.819 180.122 135.416C181.645 138.985 183.749 142.222 186.213 145.182C186.546 145.597 187.155 145.016 186.795 144.601C184.275 141.585 182.143 138.238 180.648 134.586C179.236 131.1 178.461 127.365 177.824 123.685C176.495 116.243 176.191 108.634 176.661 101.081C176.717 100.556 175.886 100.556 175.858 101.081Z" fill="#161616"/>
<path d="M140.667 154.312C156.339 155.419 172.702 153.648 186.435 145.569C186.906 145.293 186.49 144.573 186.02 144.85C172.37 152.873 156.173 154.561 140.667 153.482C140.141 153.427 140.141 154.257 140.667 154.312Z" fill="#161616"/>
<path d="M157.335 108.856C156.865 108.053 157.806 107.057 158.609 107.694C159.467 108.385 158.554 109.492 157.64 109.132C157.142 108.939 156.92 109.741 157.419 109.935C158.166 110.239 159.08 109.907 159.523 109.243C160.021 108.496 159.8 107.555 159.107 107.03C157.612 105.84 155.73 107.694 156.616 109.271C156.892 109.741 157.612 109.326 157.335 108.856Z" fill="#161616"/>
<path d="M139.837 118.401C148.115 118.262 156.394 117.681 164.645 116.685C165.171 116.63 165.171 115.8 164.645 115.855C156.422 116.879 148.143 117.432 139.837 117.571C139.311 117.598 139.311 118.428 139.837 118.401Z" fill="#161616"/>
<path d="M167.607 112.84C167.857 114.112 168.106 115.413 168.355 116.685C168.466 117.211 169.269 116.99 169.158 116.464C168.909 115.191 168.66 113.891 168.41 112.618C168.327 112.093 167.524 112.314 167.607 112.84Z" fill="#161616"/>
<path d="M168.161 112.729C169.684 112.508 171.207 112.286 172.757 112.037C173.283 111.954 173.062 111.152 172.536 111.235C171.013 111.456 169.49 111.678 167.94 111.927C167.414 112.01 167.635 112.812 168.161 112.729Z" fill="#161616"/>
<path d="M172.508 111.788C172.73 112.978 172.923 114.168 173.145 115.33C173.228 115.855 174.031 115.634 173.948 115.108C173.726 113.919 173.533 112.729 173.311 111.567C173.228 111.069 172.425 111.29 172.508 111.788Z" fill="#161616"/>
<path d="M169.047 117.322C170.681 116.99 172.231 116.547 173.782 115.938C174.28 115.745 174.059 114.942 173.56 115.136C172.01 115.717 170.432 116.187 168.826 116.519C168.3 116.63 168.521 117.432 169.047 117.322Z" fill="#161616"/>
<path d="M169.186 113.67C169.49 114.361 169.905 114.915 170.515 115.385C170.736 115.551 171.151 115.551 171.207 115.191C171.428 113.697 171.954 112.369 172.84 111.124C173.145 110.682 172.425 110.267 172.121 110.709C171.207 111.982 170.625 113.421 170.404 114.97C170.625 114.915 170.875 114.859 171.096 114.776C170.57 114.361 170.182 113.863 169.905 113.227C169.684 112.757 168.964 113.172 169.186 113.67Z" fill="#161616"/>
<path d="M169.49 125.539C169.047 127.531 169.241 129.467 170.044 131.321C170.265 131.819 170.958 131.376 170.764 130.906C170.044 129.274 169.905 127.503 170.293 125.76C170.404 125.234 169.601 125.013 169.49 125.539Z" fill="#161616"/>
<path d="M170.044 125.815C171.705 125.539 173.366 125.29 175.028 125.013C174.862 124.847 174.695 124.681 174.529 124.515C174.253 126.286 174.446 127.973 175.139 129.633C175.332 130.131 176.135 129.91 175.941 129.412C175.305 127.918 175.083 126.341 175.332 124.736C175.388 124.404 175.166 124.183 174.834 124.238C173.173 124.487 171.511 124.764 169.85 125.041C169.296 125.096 169.518 125.898 170.044 125.815Z" fill="#161616"/>
<path d="M170.404 131.349C172.231 131.293 173.976 130.934 175.692 130.325C176.191 130.131 175.969 129.329 175.471 129.523C173.837 130.131 172.148 130.463 170.404 130.519C169.878 130.519 169.878 131.349 170.404 131.349Z" fill="#161616"/>
<path d="M170.653 127.503C170.902 128.222 171.318 128.72 171.982 129.108C172.287 129.274 172.564 129.052 172.619 128.748C172.785 127.282 173.173 125.871 173.782 124.515C174.003 124.045 173.283 123.602 173.062 124.1C172.397 125.594 171.982 127.143 171.788 128.748C172.01 128.637 172.204 128.499 172.425 128.388C171.954 128.112 171.678 127.78 171.484 127.254C171.29 126.784 170.487 127.005 170.653 127.503Z" fill="#161616"/>
<path d="M171.207 138.376C171.401 140.23 171.899 141.973 172.73 143.633C172.951 144.103 173.671 143.688 173.449 143.218C172.702 141.696 172.231 140.064 172.065 138.376C171.982 137.85 171.151 137.85 171.207 138.376Z" fill="#161616"/>
<path d="M171.594 138.293C173.726 138.487 175.72 138.099 177.63 137.159C177.436 137.076 177.215 136.993 177.021 136.91C177.381 138.597 178.129 140.064 179.292 141.364C179.651 141.751 180.233 141.17 179.873 140.783C178.821 139.593 178.156 138.265 177.824 136.716C177.769 136.439 177.436 136.356 177.215 136.467C175.443 137.325 173.56 137.657 171.594 137.491C171.068 137.435 171.068 138.265 171.594 138.293Z" fill="#161616"/>
<path d="M173.477 143.937C175.637 143.135 177.769 142.277 179.845 141.336C180.344 141.115 179.901 140.396 179.43 140.617C177.409 141.53 175.332 142.36 173.256 143.135C172.757 143.328 172.979 144.131 173.477 143.937Z" fill="#161616"/>
<path d="M173.034 139.759C173.699 140.34 175.222 142.332 175.997 140.866C176.357 140.202 176.274 139.289 176.495 138.542C176.827 137.491 177.381 136.522 178.101 135.692C178.433 135.277 177.852 134.696 177.52 135.111C176.744 136.024 176.135 137.02 175.775 138.182C175.609 138.708 175.471 139.261 175.388 139.815C175.277 140.506 175.083 140.34 174.557 140.008C174.225 139.787 173.92 139.455 173.616 139.178C173.228 138.819 172.647 139.4 173.034 139.759Z" fill="#161616"/>
<path d="M140.584 131.93C148.337 131.847 156.062 131.21 163.703 129.993C164.229 129.91 164.008 129.108 163.482 129.191C155.896 130.38 148.254 131.017 140.584 131.072C140.058 131.1 140.058 131.93 140.584 131.93Z" fill="#161616"/>
<path d="M139.699 120.697C144.71 120.835 149.694 120.669 154.677 120.254C155.204 120.199 155.204 119.369 154.677 119.424C149.694 119.839 144.682 119.978 139.699 119.867C139.172 119.839 139.172 120.669 139.699 120.697Z" fill="#161616"/>
<path d="M140.889 133.562C146.15 133.811 151.41 133.617 156.616 132.953C157.142 132.898 157.142 132.068 156.616 132.123C151.383 132.76 146.122 132.981 140.889 132.732C140.363 132.704 140.363 133.534 140.889 133.562Z" fill="#161616"/>
<path d="M158.387 132.566C159.883 132.594 161.35 132.4 162.79 131.93C163.288 131.764 163.067 130.961 162.568 131.127C161.212 131.57 159.827 131.764 158.387 131.736C157.861 131.736 157.861 132.566 158.387 132.566Z" fill="#161616"/>
<path d="M143.713 143.965C150.026 143.577 156.311 142.996 162.568 142.139C163.094 142.056 163.094 141.226 162.568 141.309C156.311 142.139 150.026 142.747 143.713 143.135C143.159 143.162 143.159 143.992 143.713 143.965Z" fill="#161616"/>
<path d="M144.433 145.901C146.51 145.901 148.586 145.901 150.663 145.901C151.189 145.901 151.189 145.071 150.663 145.071C148.586 145.071 146.51 145.071 144.433 145.071C143.907 145.071 143.907 145.901 144.433 145.901Z" fill="#161616"/>
<path d="M146.233 147.755C149.472 147.561 152.712 147.257 155.951 146.87C158.554 146.538 161.35 146.399 163.593 144.878C164.036 144.573 163.62 143.854 163.177 144.158C160.824 145.763 157.668 145.846 154.927 146.15C152.047 146.482 149.14 146.731 146.26 146.925C145.707 146.953 145.679 147.783 146.233 147.755Z" fill="#161616"/>
<path d="M177.852 125.4C182.891 125.151 187.902 124.487 192.858 123.436C192.692 123.353 192.526 123.242 192.36 123.159C194.686 130.076 198.119 136.522 202.521 142.36C202.826 142.775 203.574 142.36 203.241 141.945C198.894 136.19 195.489 129.799 193.163 122.966C193.08 122.744 192.886 122.634 192.665 122.689C187.792 123.74 182.863 124.377 177.88 124.626C177.298 124.598 177.298 125.428 177.852 125.4Z" fill="#161616"/>
<path d="M178.71 148.751C179.458 149.802 180.067 150.909 180.593 152.099C180.648 152.265 180.897 152.348 181.063 152.292C185.134 150.937 189.148 149.443 193.08 147.755C195.073 146.897 197.039 146.012 199.005 145.071C199.946 144.629 200.888 144.158 201.801 143.688C202.355 143.411 202.992 143.245 203.186 142.637C203.241 142.471 203.158 142.249 202.992 142.166C202.743 142.028 202.604 142.028 202.355 142.166C202.189 142.249 202.106 142.471 202.161 142.637C202.161 142.664 202.189 142.692 202.189 142.72C202.328 143.245 203.13 143.024 202.992 142.498C202.992 142.471 202.964 142.443 202.964 142.415C202.909 142.581 202.826 142.72 202.771 142.886C202.715 142.886 202.632 142.886 202.577 142.886C202.521 142.72 202.438 142.581 202.383 142.415C202.217 142.913 200.472 143.439 200.002 143.688C199.227 144.075 198.451 144.435 197.648 144.822C195.793 145.708 193.911 146.538 192 147.34C188.345 148.889 184.608 150.273 180.842 151.518C181.008 151.573 181.147 151.656 181.313 151.711C180.814 150.522 180.178 149.415 179.43 148.364C179.125 147.893 178.405 148.308 178.71 148.751Z" fill="#161616"/>
<path d="M183.528 127.558C183.472 127.199 184.137 126.867 184.386 127.116C184.718 127.448 184.165 128.056 183.777 127.918C183.279 127.724 183.057 128.527 183.555 128.72C184.746 129.163 185.909 127.448 184.995 126.535C184.58 126.12 183.943 126.147 183.445 126.396C182.919 126.673 182.642 127.199 182.753 127.78C182.808 128.305 183.611 128.056 183.528 127.558Z" fill="#161616"/>
<path d="M60.8444 105.425C63.9177 105.48 67.0187 105.342 70.0643 104.927C73.2484 104.484 76.4047 103.571 79.6442 103.71C80.1703 103.737 80.1703 102.907 79.6442 102.88C76.6816 102.769 73.8021 103.516 70.8949 103.959C67.5724 104.484 64.1946 104.678 60.8167 104.595C60.3183 104.595 60.3183 105.425 60.8444 105.425Z" fill="#161616"/>
<path d="M61.2875 96.2673C65.9944 96.627 70.7012 96.212 75.2697 95.0223C75.7957 94.884 75.5743 94.0817 75.0482 94.22C70.5351 95.382 65.939 95.797 61.2875 95.4373C60.7614 95.4097 60.7614 96.2397 61.2875 96.2673Z" fill="#161616"/>
<path d="M167.829 72.972C167.358 76.0153 166.971 79.3077 168.881 81.9637C169.186 82.4063 169.905 81.9913 169.601 81.5487C167.829 79.0863 168.217 76.0153 168.632 73.1933C168.715 72.6677 167.912 72.4463 167.829 72.972Z" fill="#161616"/>
<path d="M168.078 72.9443C174.668 73.1933 181.257 72.557 187.681 71.0353C187.515 70.9523 187.349 70.8417 187.183 70.7587C187.764 73.6083 188.871 76.2643 190.422 78.699C190.699 79.1417 191.419 78.7267 191.142 78.284C189.619 75.9047 188.567 73.304 187.985 70.5373C187.93 70.316 187.681 70.2053 187.487 70.2607C181.147 71.7547 174.64 72.391 168.106 72.142C167.552 72.0867 167.552 72.9167 168.078 72.9443Z" fill="#161616"/>
<path d="M169.573 81.936C176.717 81.7146 183.777 80.6633 190.644 78.782C191.17 78.6437 190.948 77.8413 190.422 77.9796C183.611 79.861 176.634 80.9123 169.573 81.106C169.02 81.1336 169.02 81.9636 169.573 81.936Z" fill="#161616"/>
<path d="M267.199 275.188C267.199 278.314 267.199 281.413 267.199 284.539C245.049 293.309 240.536 296.436 240.869 297.57C240.952 297.847 241.533 298.677 253.162 297.321C264.68 295.965 274.011 294.001 280.49 292.396C279.354 286.005 278.191 279.614 277.056 273.223C273.761 273.887 270.467 274.551 267.199 275.188Z" fill="#161616"/>
<path d="M277.139 142.858C276.502 144.048 276.281 145.016 276.226 145.237C272.266 162.059 267.089 171.991 263.711 191.496C257.26 229.067 262.825 271.757 263.351 275.769C265.123 276.543 268.528 277.705 272.875 277.539C276.696 277.373 279.659 276.239 281.348 275.437C280.711 263.18 281.348 248.047 285.584 231.364C290.762 210.918 297.323 204.14 303.221 180.236C307.596 162.529 312.662 141.917 303.913 135.803C297.213 131.044 281.514 134.53 277.139 142.858Z" fill="#FFA061"/>
<path opacity="0.2" d="M292.451 151.684C288.021 171.88 283.895 193.405 280.406 216.175C277.112 237.589 274.647 258.09 272.82 277.567C275.617 276.986 278.385 276.405 281.182 275.824C280.822 267.22 281.209 259.888 281.763 254.272C282.428 247.3 284.117 231.059 290.9 214.847C291.786 212.772 292.921 210.254 294.776 205.523C297.905 197.693 300.175 190.998 301.2 187.844C306.017 172.793 308.426 155.336 309.174 149.581C303.581 150.245 298.016 150.964 292.451 151.684Z" fill="#6D6C6C"/>
<path opacity="0.19" d="M301.587 186.848C290.734 200.986 285.667 213.795 283.12 222.4C280.794 230.229 279.77 237.146 278.441 246.11C276.558 258.837 275.838 269.571 275.533 277.207C277.361 276.765 279.16 276.294 280.988 275.852C280.683 265.145 281.431 255.987 282.345 248.849C283.452 240.383 284.726 230.561 289.156 218.748C290.762 214.459 291.537 213.242 295.192 203.974C298.016 196.725 300.175 190.777 301.587 186.848Z" fill="#6D6C6C"/>
<path d="M327.004 272.006C328.555 275.852 330.133 279.697 331.684 283.571C318.67 291.843 312.524 296.657 313.216 298.068C314.074 299.811 325.315 296.353 346.939 287.748C344.641 280.278 342.343 272.836 340.045 265.366C335.698 267.579 331.351 269.793 327.004 272.006Z" fill="#161616"/>
<path d="M316.317 143.19C323.1 149.387 322.879 158.075 323.737 172.461C323.737 172.461 325.842 207.847 332.902 236.288C334.674 243.399 337.886 254.438 343.838 267.662C342.842 268.935 340.128 272.034 335.366 273.666C330.493 275.326 326.34 274.441 324.789 274.026C316.317 259.584 310.309 247.272 306.433 238.751C288.463 199.409 287.024 178.686 287.024 167.869C287.024 156.747 287.217 143.411 295.496 138.957C301.726 135.609 310.863 138.21 316.317 143.19Z" fill="#FFA061"/>
<path opacity="0.15" d="M297.102 147.423C300.175 159.237 303.498 171.244 307.042 183.417C316.289 215.013 326.34 244.865 336.889 272.864C337.913 272.338 339.159 271.619 340.433 270.65C341.734 269.654 342.759 268.658 343.534 267.773C342.094 264.425 340.101 259.584 337.996 253.635C334.812 244.533 329.635 227.795 326.949 205.495C324.374 184.081 323.073 173.374 323.183 166.624C323.267 161.063 323.765 149.747 316.566 143.66C315.071 142.415 313.604 141.668 312.579 141.226C307.402 143.301 302.252 145.376 297.102 147.423Z" fill="#6D6C6C"/>
<path opacity="0.22" d="M323.516 173.817C322.242 186.682 321.827 203.918 324.928 223.838C328.057 243.869 333.733 260.22 338.855 272.117C340.433 270.816 342.011 269.516 343.589 268.188C341.707 263.734 339.242 257.536 336.778 249.956C332.044 235.375 329.995 224.004 328.223 213.795C326.423 203.337 324.54 189.808 323.516 173.817Z" fill="#6D6C6C"/>
<path d="M193.883 42.1237C192.776 42.677 191.253 43.6453 190.062 45.3053C189.425 46.163 188.65 47.2973 188.539 48.902C188.512 49.5383 188.429 50.9217 189.315 51.8347C189.564 52.1113 190.228 52.637 193.495 52.5263C196.403 52.4157 197.87 52.3603 198.618 51.5857C200.057 50.0917 199.531 47.2697 198.618 45.582C197.178 42.8983 194.354 42.2343 193.883 42.1237Z" fill="white" stroke="#161616" stroke-width="2" stroke-miterlimit="10"/>
<path d="M210.606 49.068C214.51 53.5223 220.768 56.1783 232.258 60.9093C246.738 66.8853 253.993 69.8733 262.576 70.9246C271.851 72.059 276.807 70.8693 278.524 73.885C280.766 77.786 275.506 85.09 270.079 91.2043C266.037 90.319 261.856 89.2123 257.537 87.7737C233.864 79.944 216.753 66.166 205.512 54.712C204.1 55.0163 201.691 55.3206 198.95 54.4906C196.596 53.799 193.274 52.0283 193.468 50.6173C193.717 48.902 199.725 48.5976 200.085 48.57C198.258 47.823 195.627 46.5503 192.775 44.4753C191.945 43.8666 187.183 40.353 187.764 39.2463C188.262 38.278 192.582 39.606 196.652 40.851C200.362 41.9853 202.937 42.7876 205.761 44.7243C208.474 46.5503 210.052 48.4316 210.606 49.068Z" fill="white" stroke="#161616" stroke-width="2" stroke-miterlimit="10"/>
<path d="M191.447 42.428C192.111 43.175 192.249 44.171 192.831 44.9456C193.329 45.6373 194.049 46.1353 194.797 46.5503C197.039 47.7953 199.42 48.819 201.719 49.9533C202.106 50.147 202.605 49.6213 202.217 49.2893C201.026 48.2657 199.753 47.3527 198.424 46.5227C197.981 46.246 197.538 46.9653 198.008 47.242C199.282 48.0443 200.5 48.902 201.635 49.8703C201.802 49.649 201.968 49.4277 202.134 49.2063C199.947 48.155 197.759 47.1313 195.6 45.997C194.575 45.4713 193.662 44.8627 193.135 43.8113C192.776 43.092 192.582 42.4003 192.028 41.7917C191.668 41.4597 191.087 42.0407 191.447 42.428Z" fill="white"/>
<path d="M193.606 45.333C194.88 45.8863 196.098 46.6057 197.205 47.4633C197.621 47.7953 198.202 47.2143 197.787 46.8823C196.624 45.9693 195.378 45.2223 194.021 44.6137C193.523 44.3923 193.108 45.1117 193.606 45.333Z" fill="white"/>
<path d="M190.339 41.93C191.391 43.6176 192.776 45.001 194.409 46.1076C194.852 46.412 195.267 45.6926 194.824 45.3883C193.302 44.3646 192.028 43.0643 191.059 41.4873C190.782 41.0723 190.062 41.4873 190.339 41.93Z" fill="white"/>
<path d="M191.585 44.1986C192.139 44.9456 192.748 45.6373 193.44 46.246C193.938 46.6886 196.126 48.2656 194.99 49.068C194.769 49.2063 194.99 49.566 195.212 49.4276C195.987 48.902 195.683 47.9613 195.212 47.325C194.852 46.8546 194.354 46.495 193.883 46.08C193.163 45.4436 192.526 44.752 191.945 44.005C191.779 43.756 191.419 43.9773 191.585 44.1986Z" fill="#161616"/>
<path d="M191.003 47.076C191.834 48.2103 193.412 49.815 194.963 49.3447C195.212 49.2617 195.101 48.8743 194.852 48.9573C193.523 49.3723 192.056 47.8506 191.363 46.8823C191.197 46.661 190.837 46.8547 191.003 47.076Z" fill="#161616"/>
<path d="M189.785 49.0127C190.699 50.2577 192.028 50.977 193.578 51.06C193.855 51.0877 193.855 50.6727 193.578 50.645C192.194 50.562 190.976 49.898 190.145 48.7913C189.979 48.57 189.619 48.7913 189.785 49.0127Z" fill="#161616"/>
<path d="M188.899 51.5027C190.201 52.8583 192.36 52.886 193.661 51.5027C193.855 51.309 193.551 51.0046 193.357 51.1983C192.222 52.4157 190.339 52.388 189.204 51.1983C189.01 51.0046 188.705 51.309 188.899 51.5027Z" fill="#161616"/>
<path d="M189.176 41.8747C192.249 43.8943 194.464 47.2973 198.313 47.9613C198.562 48.0167 198.7 47.6017 198.424 47.574C194.63 46.9377 192.415 43.5347 189.398 41.5427C189.148 41.349 188.955 41.7087 189.176 41.8747Z" fill="#161616"/>
<path opacity="0.2" d="M188.844 50.9216C187.847 49.566 188.678 46.661 191.087 43.922C193.8 45.499 196.486 47.1036 199.199 48.6806C198.701 48.6806 194.326 48.736 194.021 50.0916C193.966 50.313 194.021 50.645 194.437 51.1153C195.821 51.7793 198.147 52.6646 201.137 52.7476C202.688 52.7753 204.044 52.5816 205.096 52.3326C210.745 58.032 220.684 66.6363 235.303 72.889C248.15 78.367 259.668 79.944 267.283 80.3866C267.033 83.6513 266.784 86.8883 266.535 90.153C253.993 86.833 236.992 80.525 220.103 67.8536C214.344 63.5376 209.416 59.0833 205.207 54.795C201.331 55.4313 198.922 54.7673 197.399 53.9926C196.098 53.3286 195.267 52.4986 193.551 52.3603C192.416 52.2773 191.446 52.554 190.201 51.9453C190.062 51.89 189.259 51.475 188.844 50.9216Z" fill="#6D6C6C"/>
<path opacity="0.14" d="M224.505 70.4543C228.382 72.5293 232.867 74.632 237.989 76.4303C249.147 80.3866 259.253 81.6316 266.978 81.9083C266.867 84.7303 266.784 87.58 266.673 90.402C258.644 88.5206 248.566 85.2283 237.878 79.2523C232.756 76.4026 228.326 73.387 224.505 70.4543Z" fill="#6D6C6C"/>
<path d="M268.279 78.3394C266.701 81.9084 266.618 84.8687 266.48 90.1807C266.369 94.1924 266.646 98.5084 268.805 109.852C271.436 123.574 272.682 125.788 273.097 133.064C273.429 138.763 272.986 143.439 272.571 146.538C276.059 148.447 281.901 151.047 289.543 151.628C303.055 152.652 313.05 146.704 316.483 144.435C316.898 135.748 317.314 127.033 317.757 118.345C316.234 110.931 314.434 105.121 313.133 101.303C309.035 89.2677 305.214 83.5684 307.651 77.537C309.008 74.1894 311.693 72.142 313.548 71.0077C312.247 70.0117 298.597 59.9133 283.701 65.1423C282.151 65.668 272.349 69.1263 268.279 78.3394Z" fill="white" stroke="#161616" stroke-width="2" stroke-miterlimit="10"/>
<path opacity="0.19" d="M283.646 65.1147C287.799 71.7547 290.125 77.62 291.454 81.7147C291.454 81.7147 297.96 101.469 293.198 127.973C292.173 133.617 290.346 141.641 286.747 150.826C288.131 151.13 289.792 151.379 291.675 151.462C291.675 151.462 294.582 151.601 297.849 151.186C301.836 150.66 308.675 148.53 316.732 144.435C316.871 135.167 317.009 125.926 317.148 116.658C315.099 108.828 313.022 102.548 311.472 98.1487C307.734 87.663 305.104 82.7384 307.263 77.537C308.675 74.134 311.555 72.0314 313.797 70.814C310.863 68.8774 305.436 65.8617 298.016 64.6997C291.897 63.759 286.858 64.423 283.646 65.1147Z" fill="#6D6C6C"/>
<path opacity="0.11" d="M287.439 64.4783C291.897 69.9563 297.102 77.952 300.314 88.493C309.423 118.594 294.444 144.988 290.983 150.771C293.89 150.743 297.296 150.494 301.006 149.775C307.623 148.502 312.911 146.233 316.705 144.214C316.843 135.582 316.982 126.95 317.12 118.345C314.767 110.35 312.552 102.769 309.534 92.477C307.485 85.422 305.879 79.6397 308.897 75.0193C310.364 72.7783 312.413 71.5333 313.964 70.814C305.131 68.6837 296.271 66.581 287.439 64.4783Z" fill="#6D6C6C"/>
<path d="M285.39 121.001C285.307 115.081 285.252 109.188 285.169 103.267C299.372 102.548 313.576 101.828 327.807 101.109C328.306 106.587 328.804 112.065 329.33 117.543C314.683 118.705 300.037 119.839 285.39 121.001Z" fill="white" stroke="#161616" stroke-width="2" stroke-miterlimit="10"/>
<path d="M281.071 119.065C281.071 116.907 281.071 114.749 281.071 112.591C299.317 111.235 317.563 109.852 335.809 108.496C335.948 111.152 336.086 113.836 336.252 116.492C317.868 117.322 299.455 118.207 281.071 119.065Z" fill="white" stroke="#161616" stroke-width="2" stroke-miterlimit="10"/>
<path d="M282.594 109.326C282.815 112.508 283.037 115.662 283.231 118.843C300.12 117.488 316.982 116.104 333.871 114.749C334.009 111.871 334.148 108.994 334.314 106.089C317.065 107.168 299.815 108.247 282.594 109.326Z" fill="white" stroke="#161616" stroke-width="2" stroke-miterlimit="10"/>
<path d="M278.468 116.464C278.967 129.08 279.465 141.696 279.991 154.312C298.819 152.209 317.646 150.134 336.474 148.032C337.055 135.637 337.636 123.242 338.218 110.848C318.283 112.729 298.376 114.583 278.468 116.464Z" fill="white" stroke="#161616" stroke-width="2" stroke-miterlimit="10"/>
<path d="M281.68 121.389C290.235 120.254 298.791 119.452 307.402 118.954C307.789 118.926 307.789 118.318 307.402 118.318C298.791 118.816 290.208 119.618 281.68 120.752C281.292 120.808 281.292 121.444 281.68 121.389Z" fill="#161616"/>
<path d="M291.232 123.076C297.794 122.246 304.356 121.389 310.946 120.559C311.333 120.503 311.333 119.895 310.946 119.922C304.384 120.752 297.822 121.61 291.232 122.44C290.844 122.523 290.844 123.132 291.232 123.076Z" fill="#161616"/>
<path d="M322.768 140.783C322.657 142.526 322.657 144.297 322.824 146.04C322.851 146.427 323.488 146.427 323.46 146.04C323.294 144.297 323.267 142.526 323.405 140.783C323.433 140.396 322.796 140.396 322.768 140.783Z" fill="#161616"/>
<path d="M323.045 140.838C326.478 140.921 329.884 140.728 333.29 140.285C333.179 140.174 333.068 140.064 332.985 139.981C332.93 141.585 332.985 143.162 333.096 144.739C333.123 145.127 333.76 145.127 333.733 144.739C333.594 143.162 333.566 141.558 333.622 139.981C333.622 139.815 333.483 139.649 333.317 139.676C329.912 140.119 326.506 140.285 323.073 140.23C322.63 140.202 322.63 140.811 323.045 140.838Z" fill="#161616"/>
<path d="M323.294 146.538C326.7 146.593 330.05 146.233 333.373 145.486C333.76 145.403 333.594 144.795 333.207 144.878C329.939 145.597 326.645 145.957 323.294 145.901C322.907 145.901 322.907 146.51 323.294 146.538Z" fill="#161616"/>
<path d="M324.596 142.775C326.7 142.913 328.776 142.803 330.881 142.471C331.268 142.415 331.102 141.807 330.715 141.862C328.693 142.194 326.645 142.277 324.596 142.139C324.208 142.111 324.208 142.747 324.596 142.775Z" fill="#161616"/>
<path d="M325.925 144.518C328.112 144.463 330.216 144.048 332.293 143.301C332.653 143.162 332.514 142.554 332.127 142.692C330.133 143.439 328.057 143.826 325.925 143.909C325.537 143.882 325.509 144.518 325.925 144.518Z" fill="#161616"/>
<path opacity="0.2" d="M287.411 152.873C287.91 141.198 288.408 129.523 288.879 117.82C305.048 116.519 321.246 115.247 337.415 113.946C337.055 125.013 336.667 136.08 336.308 147.146C320 149.055 303.719 150.964 287.411 152.873Z" fill="#6D6C6C"/>
<path opacity="0.2" d="M331.324 106.393C331.407 109.603 331.241 113.421 330.41 117.654C328.361 128.056 323.433 135.554 320.082 139.787C322.353 142.803 324.623 145.818 326.921 148.834C319.972 149.636 313.022 150.439 306.073 151.241C307.18 138.57 308.288 125.898 309.395 113.255C309.035 111.595 308.648 109.935 308.288 108.275C315.957 107.611 323.654 107.002 331.324 106.393Z" fill="#6D6C6C"/>
<path d="M312.053 70.2607C317.84 69.486 324.734 82.766 327.475 92.311C330.631 103.295 329.247 112.784 328.112 117.792C325.897 127.614 321.301 134.53 318.421 138.265C318.864 139.732 319.889 143.716 318.2 148.087C315.708 154.478 308.952 157.549 308.426 156.968C308.26 156.774 308.592 155.972 311.223 152.956C310.669 153.537 306.682 157.494 302.196 156.553C301.421 156.387 300.452 156.193 299.898 155.419C298.597 153.537 300.757 149.277 305.353 144.546C300.341 145.791 299.012 145.459 298.763 144.905C298.126 143.577 303.249 139.815 305.104 138.431C307.845 136.412 310.309 135.028 311.998 134.171C316.732 124.349 316.483 116.685 316.068 113.089C315.459 107.777 313.465 101.994 313.078 100.888C311.97 97.706 311.444 96.9867 309.229 91.2597C305.657 82.0743 305.657 80.4973 305.796 79.28C306.294 75.628 308.758 70.7033 312.053 70.2607Z" fill="white" stroke="#161616" stroke-width="2" stroke-miterlimit="10"/>
<path d="M300.009 154.644C303.082 152.901 305.768 150.66 308.011 147.949C308.343 147.534 307.762 146.953 307.429 147.368C305.242 150.024 302.612 152.237 299.594 153.952C299.123 154.174 299.538 154.893 300.009 154.644Z" fill="#161616"/>
<path d="M302.722 156.498C305.768 154.921 308.371 152.735 310.475 150.024C310.807 149.609 310.087 149.194 309.755 149.609C307.762 152.209 305.214 154.284 302.307 155.778C301.836 156.027 302.252 156.747 302.722 156.498Z" fill="#161616"/>
<path opacity="0.17" d="M309.727 71.5887C304.218 76.375 326.7 97.374 322.851 121.223C320.221 137.574 309.312 148.253 309.312 148.253C306.267 151.296 300.535 155.031 301.227 156.332C301.726 157.272 305.187 156.415 306.433 156.027C308.786 155.308 310.42 154.091 311.333 153.288C309.949 154.838 308.371 156.747 308.703 157.134C309.174 157.632 313.105 155.585 315.57 152.707C319.833 147.727 319.224 140.811 318.809 137.989C319.806 136.688 321.107 134.862 322.436 132.538C323.654 130.463 327.171 123.989 328.693 115.191C331.379 99.615 325.869 87.331 323.654 82.517C321.661 78.2287 318.283 71.1183 313.161 70.814C312.496 70.731 310.807 70.648 309.727 71.5887Z" fill="#6D6C6C"/>
<path opacity="0.22" d="M328.389 114.749C326.894 119.092 325.122 123.657 323.017 128.444C321.522 131.847 320 135.028 318.449 138.044C317.674 140.534 316.206 144.269 313.299 148.115C310.254 152.154 306.903 154.616 304.661 156.027C305.297 156.055 306.073 156 306.931 155.778C309.091 155.28 310.53 154.091 311.25 153.371C310.42 154.423 309.561 155.446 308.731 156.498C309.395 156.387 310.447 156.193 311.61 155.668C317.701 152.929 318.975 145.486 319.058 144.988C319.28 143.633 319.418 141.309 318.587 138.431C320.581 136.08 323.101 132.566 325.122 127.835C327.364 122.634 328.112 117.958 328.389 114.749Z" fill="#6D6C6C"/>
<path d="M261.911 52.056C257.453 57.1466 260.527 64.257 260.942 65.2253C262.492 68.822 266.507 73.9403 271.602 73.5253C275.312 73.1933 277.665 70.067 278.247 69.237C282.344 63.344 280.988 52.0836 274.066 49.1786C270.245 47.574 264.984 48.5146 261.911 52.056Z" fill="#6275FF"/>
<path d="M273.152 56.5933C273.346 58.779 275.644 59.2493 277.195 62.846C278.302 65.4466 278.302 67.9919 278.108 69.8179C279.908 69.9839 283.23 70.067 286.996 68.6283C289.959 67.494 292.035 65.8616 293.281 64.7273C292.7 63.427 291.841 61.518 290.817 59.2493C286.387 49.5936 285.667 48.7636 284.587 48.3486C280.268 46.7163 272.792 52.5263 273.152 56.5933Z" fill="white" stroke="#161616" stroke-width="2" stroke-miterlimit="10"/>
<path d="M257.204 28.0136C256.263 29.3416 255.681 30.974 255.598 37.9736C255.543 43.9496 255.875 49.4 256.429 54.2416C257.675 53.5223 258.921 52.803 260.167 52.0836C260.72 53.4393 261.662 55.293 263.268 57.0913C266.452 60.6603 270.328 61.8776 272.045 62.3203C273.844 61.8776 278.33 60.4943 281.735 56.2613C283.978 53.4393 284.698 50.645 284.864 50.0086C285.888 45.831 284.892 42.3726 284.366 40.934C285.03 40.6296 286.055 40.0486 286.83 38.9973C288.463 36.784 288.906 32.8276 286.885 31.4996C285.39 30.5036 282.732 31.0846 280.739 33.132C280.296 32.1083 279.603 30.6973 278.496 29.231C278.219 28.8713 276.142 26.16 273.595 24.749C268.694 21.927 260.582 23.255 257.204 28.0136Z" fill="white" stroke="#161616" stroke-width="2" stroke-miterlimit="10"/>
<path d="M255.183 36.701C254.076 36.5073 252.027 35.9263 251.058 34.2386C249.396 31.389 251.833 27.0453 252.442 25.9663C252.94 25.0533 254.269 22.8676 259.918 18.9113C264.209 15.8956 266.369 14.4016 268.695 13.6823C276.945 11.22 284.504 15.4806 285.916 16.283C288.879 17.9706 290.761 19.7966 292.257 21.2353C294.555 23.4486 297.13 25.994 300.009 28.9266C307.402 38.4993 310.004 47.242 311.056 52.471C312.247 58.3916 313.465 64.423 309.921 67.9643C306.377 71.5056 299.898 70.7863 295.939 69.0986C290.429 66.747 288.076 61.767 286.248 57.9213C283.147 51.3366 282.954 45.0286 283.258 40.934C286.027 40.1316 287.439 37.531 286.802 35.5666C286.304 34.0173 284.449 32.468 282.538 33.0213C281.071 33.4363 280.019 34.958 280.102 36.7286C278.773 36.701 275.229 36.3966 271.851 33.8513C269.387 31.9976 268.141 29.7843 267.559 28.567C266.037 28.7606 262.991 29.314 259.918 31.5273C257.343 33.298 255.903 35.4283 255.183 36.701Z" fill="#6275FF"/>
<path opacity="0.24" d="M273.512 41.9853C276.835 45.997 277.887 50.23 277.887 50.23C278.967 54.9886 277.416 59.028 276.724 60.6603C278.468 59.3323 280.24 58.0043 281.984 56.6763C283.203 60.7156 284.393 64.7273 285.612 68.7666C286.525 68.6836 288.408 68.3516 290.291 67.0236C291.73 66 292.589 64.8103 293.059 64.0633C290.817 61.9883 286.525 57.3956 284.559 50.1746C283.618 46.6886 283.48 43.59 283.59 41.266C286.11 40.2423 287.411 37.78 286.885 35.7326C286.498 34.2386 284.975 32.4403 283.009 32.717C281.375 32.966 280.019 34.5706 280.046 36.535C278.8 36.535 275.866 36.3966 272.792 34.543C269.608 32.634 268.085 29.978 267.504 28.8436C267.642 34.1556 269.276 37.2266 270.743 39.0526C271.712 40.2976 272.155 40.353 273.512 41.9853Z" fill="#6D6C6C"/>
<path d="M260.637 40.8233C260.333 41.93 260.361 43.0643 260.776 44.1433C260.914 44.5306 261.44 44.5583 261.579 44.1433C261.911 43.1473 261.911 42.096 261.607 41.1C261.44 40.602 260.637 40.7956 260.804 41.3213C261.08 42.2066 261.053 43.0643 260.776 43.9496C261.053 43.9496 261.302 43.9496 261.579 43.9496C261.219 43.009 261.164 42.0406 261.44 41.0723C261.579 40.5189 260.804 40.2976 260.637 40.8233Z" fill="#161616"/>
<path d="M259.641 39.108C260.361 38.6653 261.247 38.7483 261.856 39.3293C262.243 39.689 262.825 39.108 262.437 38.7483C261.579 37.9183 260.25 37.7523 259.225 38.3886C258.782 38.6653 259.198 39.3846 259.641 39.108Z" fill="#161616"/>
<path d="M262.631 46.1353C263.157 46.1353 263.157 45.3053 262.631 45.3053C262.077 45.3053 262.077 46.1353 262.631 46.1353Z" fill="#161616"/>
<path d="M264.458 43.7283C264.458 43.756 264.458 43.7836 264.458 43.8113C264.458 44.0326 264.652 44.2263 264.874 44.2263C265.095 44.2263 265.289 44.0326 265.289 43.8113C265.289 43.7836 265.289 43.756 265.289 43.7283C265.289 43.507 265.095 43.3133 264.874 43.3133C264.652 43.3133 264.458 43.4793 264.458 43.7283Z" fill="#161616"/>
<path d="M264.541 45.8033C265.067 45.8033 265.067 44.9733 264.541 44.9733C264.015 44.9733 264.015 45.8033 264.541 45.8033Z" fill="#161616"/>
<path d="M253.134 42.096C252.802 43.2026 252.829 44.337 253.217 45.416C253.356 45.8033 253.882 45.8033 254.02 45.416C254.352 44.42 254.38 43.3686 254.103 42.3726C253.965 41.847 253.162 42.0683 253.3 42.594C253.549 43.4793 253.522 44.337 253.217 45.1946C253.494 45.1946 253.743 45.1946 254.02 45.1946C253.688 44.254 253.632 43.2856 253.937 42.3173C254.075 41.7916 253.273 41.5703 253.134 42.096Z" fill="#161616"/>
<path d="M252.663 40.021C253.245 39.7166 254.048 39.855 254.435 40.4083C254.74 40.8233 255.46 40.4083 255.155 39.9933C254.463 39.0803 253.273 38.776 252.248 39.3016C251.777 39.5506 252.193 40.27 252.663 40.021Z" fill="#161616"/>
<path d="M261.994 55.0717C264.126 54.6843 265.981 53.55 267.366 51.8623C267.615 51.558 267.172 51.1153 266.923 51.4196C265.621 53.0243 263.877 54.0757 261.828 54.463C261.44 54.546 261.607 55.1547 261.994 55.0717Z" fill="#161616"/>
<path d="M266.313 51.475C266.812 51.641 267.227 51.89 267.587 52.2496C267.864 52.5263 268.307 52.0836 268.03 51.807C267.587 51.3643 267.061 51.06 266.48 50.8663C266.092 50.7556 265.926 51.3643 266.313 51.475Z" fill="#161616"/>
<path opacity="0.45" d="M283.563 15.287C287.079 20.1563 291.592 27.0453 295.884 35.8433C300.424 45.1393 303.747 52.139 301.172 54.9057C297.766 58.5853 285.999 52.7477 284.116 51.7793C284.504 54.297 285.473 58.3087 288.325 62.3203C289.765 64.34 292.284 67.909 296.936 69.569C299.732 70.565 302.224 70.5097 303.193 70.4267C304.494 70.3437 305.99 70.233 307.623 69.3477C307.623 69.3477 309.755 68.2133 311.195 65.8893C313.382 62.348 312.219 57.5617 310.669 51.558C308.814 44.3647 306.322 39.5783 303.885 34.8473C303.276 33.6853 302.556 32.3297 301.393 30.7527C300.231 29.148 299.372 28.2903 295.773 24.832C290.429 19.6583 289.599 18.9113 287.993 17.8323C286.221 16.615 284.643 15.8127 283.563 15.287Z" fill="#371B9B"/>
<path opacity="0.43" d="M276.89 62.348C277.111 62.9843 277.61 64.7826 276.89 66.7746C275.81 69.735 272.82 70.731 272.349 70.8693C268.944 71.976 264.652 70.233 261.773 66.4426C262.16 67.4386 263.019 69.2093 264.791 70.7586C265.677 71.5333 268.085 73.6083 271.491 73.3593C272.072 73.304 275.81 73.0273 277.527 69.7903C278.773 67.494 278.496 64.6166 276.89 62.348Z" fill="#371B9B"/>
</svg>
